M48
; DRILL file {KiCad 7.0.7} date 2024 July 29, Monday 17:51:52
; FORMAT={-:-/ absolute / inch / decimal}
; #@! TF.CreationDate,2024-07-29T17:51:52+02:00
; #@! TF.GenerationSoftware,Kicad,Pcbnew,7.0.7
; #@! TF.FileFunction,Plated,1,2,PTH
FMAT,2
INCH
; #@! TA.AperFunction,Plated,PTH,ViaDrill
T1C0.0118
; #@! TA.AperFunction,Plated,PTH,ComponentDrill
T2C0.0394
%
G90
G05
T1
X1.9685Y-2.7559
X1.9685Y-2.9528
X1.9685Y-3.1496
X2.0669Y-2.8543
X2.0669Y-3.0512
X2.0669Y-3.248
X2.1654Y-2.7559
X2.1654Y-2.9528
X2.1654Y-3.1496
X2.3228Y-3.1622
X2.3989Y-3.0807
X2.4409Y-2.9331
X2.5591Y-2.7559
X2.5591Y-3.248
X2.5761Y-3.0853
X2.6181Y-2.9331
X2.6575Y-2.8543
X2.7532Y-3.0853
X2.7559Y-2.7559
X2.7559Y-3.248
X2.7953Y-2.9331
X2.8543Y-2.8543
X2.9304Y-3.0853
X2.9528Y-2.7559
X2.9528Y-3.248
X2.9724Y-2.9331
X3.0512Y-2.8543
X3.1076Y-3.0853
X3.1496Y-2.7559
X3.1496Y-2.9331
X3.1496Y-3.248
X3.248Y-2.8543
X3.2847Y-3.0853
X3.3268Y-2.9331
X3.3465Y-2.7559
X3.3465Y-3.248
X3.4449Y-2.8543
X3.4619Y-3.0853
X3.5039Y-2.9331
X3.5433Y-2.7559
X3.5433Y-3.248
X3.6391Y-3.0853
X3.6417Y-2.8543
X3.6811Y-2.9331
X3.7402Y-2.7559
X3.7402Y-3.248
X3.8162Y-3.0853
X3.8386Y-2.8543
X3.8583Y-2.9331
X3.937Y-2.7559
X3.937Y-3.248
X3.9934Y-3.0853
X4.0354Y-2.8543
X4.0354Y-2.9331
X4.1339Y-2.7559
X4.1339Y-3.248
X4.1706Y-3.0853
X4.2126Y-2.9331
X4.2323Y-2.8543
X4.3307Y-2.7559
X4.3307Y-3.248
X4.3477Y-3.0853
X4.3898Y-2.9331
X4.4291Y-2.8543
X4.5249Y-3.0853
X4.5276Y-2.7559
X4.5276Y-3.248
X4.5669Y-2.9331
X4.626Y-2.8543
X4.7021Y-3.0853
X4.7244Y-2.7559
X4.7244Y-3.248
X4.7441Y-2.9331
X4.8228Y-2.8543
X4.8792Y-3.0853
X4.9213Y-2.7559
X4.9213Y-2.9331
X4.9213Y-3.248
X5.0564Y-3.0807
X5.0984Y-2.9331
X5.315Y-2.7559
X5.4134Y-2.8543
X5.4134Y-3.0512
X5.4134Y-3.248
X5.5118Y-2.7559
X5.5118Y-2.9528
X5.5118Y-3.1496
X5.6102Y-2.8543
X5.6102Y-3.0512
X5.6102Y-3.248
X5.7087Y-2.7559
X5.7087Y-2.9528
X5.7087Y-3.1496
T2
X2.2589Y-2.8622
X2.2589Y-2.9622
X2.2589Y-3.0622
X2.2589Y-3.1622
X5.3002Y-2.8614
X5.3002Y-2.9614
X5.3002Y-3.0614
X5.3002Y-3.1614
T0
M30
