%TF.GenerationSoftware,KiCad,Pcbnew,7.0.7*%
%TF.CreationDate,2024-07-29T17:51:35+02:00*%
%TF.ProjectId,LEDBAR,4c454442-4152-42e6-9b69-6361645f7063,rev?*%
%TF.SameCoordinates,Original*%
%TF.FileFunction,Copper,L1,Top*%
%TF.FilePolarity,Positive*%
%FSLAX46Y46*%
G04 Gerber Fmt 4.6, Leading zero omitted, Abs format (unit mm)*
G04 Created by KiCad (PCBNEW 7.0.7) date 2024-07-29 17:51:35*
%MOMM*%
%LPD*%
G01*
G04 APERTURE LIST*
G04 Aperture macros list*
%AMRoundRect*
0 Rectangle with rounded corners*
0 $1 Rounding radius*
0 $2 $3 $4 $5 $6 $7 $8 $9 X,Y pos of 4 corners*
0 Add a 4 corners polygon primitive as box body*
4,1,4,$2,$3,$4,$5,$6,$7,$8,$9,$2,$3,0*
0 Add four circle primitives for the rounded corners*
1,1,$1+$1,$2,$3*
1,1,$1+$1,$4,$5*
1,1,$1+$1,$6,$7*
1,1,$1+$1,$8,$9*
0 Add four rect primitives between the rounded corners*
20,1,$1+$1,$2,$3,$4,$5,0*
20,1,$1+$1,$4,$5,$6,$7,0*
20,1,$1+$1,$6,$7,$8,$9,0*
20,1,$1+$1,$8,$9,$2,$3,0*%
G04 Aperture macros list end*
%TA.AperFunction,SMDPad,CuDef*%
%ADD10RoundRect,0.155000X0.212500X0.155000X-0.212500X0.155000X-0.212500X-0.155000X0.212500X-0.155000X0*%
%TD*%
%TA.AperFunction,SMDPad,CuDef*%
%ADD11R,0.800000X0.500000*%
%TD*%
%TA.AperFunction,SMDPad,CuDef*%
%ADD12R,0.500000X1.000000*%
%TD*%
%TA.AperFunction,SMDPad,CuDef*%
%ADD13R,0.800000X0.300000*%
%TD*%
%TA.AperFunction,SMDPad,CuDef*%
%ADD14R,0.500000X1.480000*%
%TD*%
%TA.AperFunction,ComponentPad*%
%ADD15R,1.700000X1.700000*%
%TD*%
%TA.AperFunction,ComponentPad*%
%ADD16O,1.700000X1.700000*%
%TD*%
%TA.AperFunction,ViaPad*%
%ADD17C,0.560000*%
%TD*%
%TA.AperFunction,Conductor*%
%ADD18C,0.500000*%
%TD*%
%TA.AperFunction,Conductor*%
%ADD19C,0.250000*%
%TD*%
G04 APERTURE END LIST*
D10*
%TO.P,C13,1*%
%TO.N,VCC*%
X111567500Y-79500000D03*
%TO.P,C13,2*%
%TO.N,GND*%
X110432500Y-79500000D03*
%TD*%
D11*
%TO.P,D9,1,VDD*%
%TO.N,VCC*%
X98850000Y-77400000D03*
D12*
X98000000Y-77330000D03*
D13*
%TO.P,D9,2,CKO*%
%TO.N,Net-(D10-CKI)*%
X98850000Y-76500000D03*
D11*
%TO.P,D9,3,SDO*%
%TO.N,Net-(D10-SDI)*%
X98850000Y-75600000D03*
%TO.P,D9,4,SDI*%
%TO.N,/10x_Led/SDO*%
X97150000Y-75600000D03*
D13*
%TO.P,D9,5,CKI*%
%TO.N,/10x_Led/CKO*%
X97150000Y-76500000D03*
D14*
%TO.P,D9,6,GND*%
%TO.N,GND*%
X98000000Y-75910000D03*
D11*
X97150000Y-77400000D03*
%TD*%
%TO.P,D12,1,VDD*%
%TO.N,VCC*%
X112350000Y-77400000D03*
D12*
X111500000Y-77330000D03*
D13*
%TO.P,D12,2,CKO*%
%TO.N,Net-(D12-CKO)*%
X112350000Y-76500000D03*
D11*
%TO.P,D12,3,SDO*%
%TO.N,Net-(D12-SDO)*%
X112350000Y-75600000D03*
%TO.P,D12,4,SDI*%
%TO.N,Net-(D11-SDO)*%
X110650000Y-75600000D03*
D13*
%TO.P,D12,5,CKI*%
%TO.N,Net-(D11-CKO)*%
X110650000Y-76500000D03*
D14*
%TO.P,D12,6,GND*%
%TO.N,GND*%
X111500000Y-75910000D03*
D11*
X110650000Y-77400000D03*
%TD*%
D10*
%TO.P,C3,1*%
%TO.N,VCC*%
X66567500Y-79500000D03*
%TO.P,C3,2*%
%TO.N,GND*%
X65432500Y-79500000D03*
%TD*%
D11*
%TO.P,D4,1,VDD*%
%TO.N,VCC*%
X76350000Y-77400000D03*
D12*
X75500000Y-77330000D03*
D13*
%TO.P,D4,2,CKO*%
%TO.N,Net-(D4-CKO)*%
X76350000Y-76500000D03*
D11*
%TO.P,D4,3,SDO*%
%TO.N,Net-(D4-SDO)*%
X76350000Y-75600000D03*
%TO.P,D4,4,SDI*%
%TO.N,Net-(D3-SDO)*%
X74650000Y-75600000D03*
D13*
%TO.P,D4,5,CKI*%
%TO.N,Net-(D3-CKO)*%
X74650000Y-76500000D03*
D14*
%TO.P,D4,6,GND*%
%TO.N,GND*%
X75500000Y-75910000D03*
D11*
X74650000Y-77400000D03*
%TD*%
%TO.P,D11,1,VDD*%
%TO.N,VCC*%
X107850000Y-77400000D03*
D12*
X107000000Y-77330000D03*
D13*
%TO.P,D11,2,CKO*%
%TO.N,Net-(D11-CKO)*%
X107850000Y-76500000D03*
D11*
%TO.P,D11,3,SDO*%
%TO.N,Net-(D11-SDO)*%
X107850000Y-75600000D03*
%TO.P,D11,4,SDI*%
%TO.N,Net-(D10-SDO)*%
X106150000Y-75600000D03*
D13*
%TO.P,D11,5,CKI*%
%TO.N,Net-(D10-CKO)*%
X106150000Y-76500000D03*
D14*
%TO.P,D11,6,GND*%
%TO.N,GND*%
X107000000Y-75910000D03*
D11*
X106150000Y-77400000D03*
%TD*%
%TO.P,D15,1,VDD*%
%TO.N,VCC*%
X125850000Y-77400000D03*
D12*
X125000000Y-77330000D03*
D13*
%TO.P,D15,2,CKO*%
%TO.N,Net-(D15-CKO)*%
X125850000Y-76500000D03*
D11*
%TO.P,D15,3,SDO*%
%TO.N,Net-(D15-SDO)*%
X125850000Y-75600000D03*
%TO.P,D15,4,SDI*%
%TO.N,Net-(D14-SDO)*%
X124150000Y-75600000D03*
D13*
%TO.P,D15,5,CKI*%
%TO.N,Net-(D14-CKO)*%
X124150000Y-76500000D03*
D14*
%TO.P,D15,6,GND*%
%TO.N,GND*%
X125000000Y-75910000D03*
D11*
X124150000Y-77400000D03*
%TD*%
%TO.P,D7,1,VDD*%
%TO.N,VCC*%
X89850000Y-77400000D03*
D12*
X89000000Y-77330000D03*
D13*
%TO.P,D7,2,CKO*%
%TO.N,Net-(D7-CKO)*%
X89850000Y-76500000D03*
D11*
%TO.P,D7,3,SDO*%
%TO.N,Net-(D7-SDO)*%
X89850000Y-75600000D03*
%TO.P,D7,4,SDI*%
%TO.N,Net-(D6-SDO)*%
X88150000Y-75600000D03*
D13*
%TO.P,D7,5,CKI*%
%TO.N,Net-(D6-CKO)*%
X88150000Y-76500000D03*
D14*
%TO.P,D7,6,GND*%
%TO.N,GND*%
X89000000Y-75910000D03*
D11*
X88150000Y-77400000D03*
%TD*%
%TO.P,D13,1,VDD*%
%TO.N,VCC*%
X116850000Y-77400000D03*
D12*
X116000000Y-77330000D03*
D13*
%TO.P,D13,2,CKO*%
%TO.N,Net-(D13-CKO)*%
X116850000Y-76500000D03*
D11*
%TO.P,D13,3,SDO*%
%TO.N,Net-(D13-SDO)*%
X116850000Y-75600000D03*
%TO.P,D13,4,SDI*%
%TO.N,Net-(D12-SDO)*%
X115150000Y-75600000D03*
D13*
%TO.P,D13,5,CKI*%
%TO.N,Net-(D12-CKO)*%
X115150000Y-76500000D03*
D14*
%TO.P,D13,6,GND*%
%TO.N,GND*%
X116000000Y-75910000D03*
D11*
X115150000Y-77400000D03*
%TD*%
D10*
%TO.P,C17,1*%
%TO.N,VCC*%
X129567500Y-79000000D03*
%TO.P,C17,2*%
%TO.N,GND*%
X128432500Y-79000000D03*
%TD*%
%TO.P,C14,1*%
%TO.N,VCC*%
X116067500Y-79500000D03*
%TO.P,C14,2*%
%TO.N,GND*%
X114932500Y-79500000D03*
%TD*%
%TO.P,C8,1*%
%TO.N,VCC*%
X89067500Y-79500000D03*
%TO.P,C8,2*%
%TO.N,GND*%
X87932500Y-79500000D03*
%TD*%
D11*
%TO.P,D3,1,VDD*%
%TO.N,VCC*%
X71850000Y-77400000D03*
D12*
X71000000Y-77330000D03*
D13*
%TO.P,D3,2,CKO*%
%TO.N,Net-(D3-CKO)*%
X71850000Y-76500000D03*
D11*
%TO.P,D3,3,SDO*%
%TO.N,Net-(D3-SDO)*%
X71850000Y-75600000D03*
%TO.P,D3,4,SDI*%
%TO.N,Net-(D2-SDO)*%
X70150000Y-75600000D03*
D13*
%TO.P,D3,5,CKI*%
%TO.N,Net-(D2-CKO)*%
X70150000Y-76500000D03*
D14*
%TO.P,D3,6,GND*%
%TO.N,GND*%
X71000000Y-75910000D03*
D11*
X70150000Y-77400000D03*
%TD*%
D10*
%TO.P,C5,1*%
%TO.N,VCC*%
X75567500Y-79500000D03*
%TO.P,C5,2*%
%TO.N,GND*%
X74432500Y-79500000D03*
%TD*%
%TO.P,C9,1*%
%TO.N,VCC*%
X93567500Y-79500000D03*
%TO.P,C9,2*%
%TO.N,GND*%
X92432500Y-79500000D03*
%TD*%
D11*
%TO.P,D6,1,VDD*%
%TO.N,VCC*%
X85350000Y-77400000D03*
D12*
X84500000Y-77330000D03*
D13*
%TO.P,D6,2,CKO*%
%TO.N,Net-(D6-CKO)*%
X85350000Y-76500000D03*
D11*
%TO.P,D6,3,SDO*%
%TO.N,Net-(D6-SDO)*%
X85350000Y-75600000D03*
%TO.P,D6,4,SDI*%
%TO.N,Net-(D5-SDO)*%
X83650000Y-75600000D03*
D13*
%TO.P,D6,5,CKI*%
%TO.N,Net-(D5-CKO)*%
X83650000Y-76500000D03*
D14*
%TO.P,D6,6,GND*%
%TO.N,GND*%
X84500000Y-75910000D03*
D11*
X83650000Y-77400000D03*
%TD*%
%TO.P,D1,1,VDD*%
%TO.N,VCC*%
X62850000Y-77400000D03*
D12*
X62000000Y-77330000D03*
D13*
%TO.P,D1,2,CKO*%
%TO.N,Net-(D1-CKO)*%
X62850000Y-76500000D03*
D11*
%TO.P,D1,3,SDO*%
%TO.N,Net-(D1-SDO)*%
X62850000Y-75600000D03*
%TO.P,D1,4,SDI*%
%TO.N,SDI*%
X61150000Y-75600000D03*
D13*
%TO.P,D1,5,CKI*%
%TO.N,CKI*%
X61150000Y-76500000D03*
D14*
%TO.P,D1,6,GND*%
%TO.N,GND*%
X62000000Y-75910000D03*
D11*
X61150000Y-77400000D03*
%TD*%
%TO.P,D14,1,VDD*%
%TO.N,VCC*%
X121350000Y-77400000D03*
D12*
X120500000Y-77330000D03*
D13*
%TO.P,D14,2,CKO*%
%TO.N,Net-(D14-CKO)*%
X121350000Y-76500000D03*
D11*
%TO.P,D14,3,SDO*%
%TO.N,Net-(D14-SDO)*%
X121350000Y-75600000D03*
%TO.P,D14,4,SDI*%
%TO.N,Net-(D13-SDO)*%
X119650000Y-75600000D03*
D13*
%TO.P,D14,5,CKI*%
%TO.N,Net-(D13-CKO)*%
X119650000Y-76500000D03*
D14*
%TO.P,D14,6,GND*%
%TO.N,GND*%
X120500000Y-75910000D03*
D11*
X119650000Y-77400000D03*
%TD*%
%TO.P,D8,1,VDD*%
%TO.N,VCC*%
X94350000Y-77400000D03*
D12*
X93500000Y-77330000D03*
D13*
%TO.P,D8,2,CKO*%
%TO.N,/10x_Led/CKO*%
X94350000Y-76500000D03*
D11*
%TO.P,D8,3,SDO*%
%TO.N,/10x_Led/SDO*%
X94350000Y-75600000D03*
%TO.P,D8,4,SDI*%
%TO.N,Net-(D7-SDO)*%
X92650000Y-75600000D03*
D13*
%TO.P,D8,5,CKI*%
%TO.N,Net-(D7-CKO)*%
X92650000Y-76500000D03*
D14*
%TO.P,D8,6,GND*%
%TO.N,GND*%
X93500000Y-75910000D03*
D11*
X92650000Y-77400000D03*
%TD*%
D10*
%TO.P,C15,1*%
%TO.N,VCC*%
X120567500Y-79500000D03*
%TO.P,C15,2*%
%TO.N,GND*%
X119432500Y-79500000D03*
%TD*%
D11*
%TO.P,D10,1,VDD*%
%TO.N,VCC*%
X103350000Y-77400000D03*
D12*
X102500000Y-77330000D03*
D13*
%TO.P,D10,2,CKO*%
%TO.N,Net-(D10-CKO)*%
X103350000Y-76500000D03*
D11*
%TO.P,D10,3,SDO*%
%TO.N,Net-(D10-SDO)*%
X103350000Y-75600000D03*
%TO.P,D10,4,SDI*%
%TO.N,Net-(D10-SDI)*%
X101650000Y-75600000D03*
D13*
%TO.P,D10,5,CKI*%
%TO.N,Net-(D10-CKI)*%
X101650000Y-76500000D03*
D14*
%TO.P,D10,6,GND*%
%TO.N,GND*%
X102500000Y-75910000D03*
D11*
X101650000Y-77400000D03*
%TD*%
%TO.P,D16,1,VDD*%
%TO.N,VCC*%
X130350000Y-77400000D03*
D12*
X129500000Y-77330000D03*
D13*
%TO.P,D16,2,CKO*%
%TO.N,CKO*%
X130350000Y-76500000D03*
D11*
%TO.P,D16,3,SDO*%
%TO.N,SDO*%
X130350000Y-75600000D03*
%TO.P,D16,4,SDI*%
%TO.N,Net-(D15-SDO)*%
X128650000Y-75600000D03*
D13*
%TO.P,D16,5,CKI*%
%TO.N,Net-(D15-CKO)*%
X128650000Y-76500000D03*
D14*
%TO.P,D16,6,GND*%
%TO.N,GND*%
X129500000Y-75910000D03*
D11*
X128650000Y-77400000D03*
%TD*%
%TO.P,D2,1,VDD*%
%TO.N,VCC*%
X67350000Y-77400000D03*
D12*
X66500000Y-77330000D03*
D13*
%TO.P,D2,2,CKO*%
%TO.N,Net-(D2-CKO)*%
X67350000Y-76500000D03*
D11*
%TO.P,D2,3,SDO*%
%TO.N,Net-(D2-SDO)*%
X67350000Y-75600000D03*
%TO.P,D2,4,SDI*%
%TO.N,Net-(D1-SDO)*%
X65650000Y-75600000D03*
D13*
%TO.P,D2,5,CKI*%
%TO.N,Net-(D1-CKO)*%
X65650000Y-76500000D03*
D14*
%TO.P,D2,6,GND*%
%TO.N,GND*%
X66500000Y-75910000D03*
D11*
X65650000Y-77400000D03*
%TD*%
D10*
%TO.P,C4,1*%
%TO.N,VCC*%
X71067500Y-79500000D03*
%TO.P,C4,2*%
%TO.N,GND*%
X69932500Y-79500000D03*
%TD*%
%TO.P,C12,1*%
%TO.N,VCC*%
X107067500Y-79500000D03*
%TO.P,C12,2*%
%TO.N,GND*%
X105932500Y-79500000D03*
%TD*%
%TO.P,C6,1*%
%TO.N,VCC*%
X80067500Y-79500000D03*
%TO.P,C6,2*%
%TO.N,GND*%
X78932500Y-79500000D03*
%TD*%
%TO.P,C7,1*%
%TO.N,VCC*%
X84567500Y-79500000D03*
%TO.P,C7,2*%
%TO.N,GND*%
X83432500Y-79500000D03*
%TD*%
D11*
%TO.P,D5,1,VDD*%
%TO.N,VCC*%
X80850000Y-77400000D03*
D12*
X80000000Y-77330000D03*
D13*
%TO.P,D5,2,CKO*%
%TO.N,Net-(D5-CKO)*%
X80850000Y-76500000D03*
D11*
%TO.P,D5,3,SDO*%
%TO.N,Net-(D5-SDO)*%
X80850000Y-75600000D03*
%TO.P,D5,4,SDI*%
%TO.N,Net-(D4-SDO)*%
X79150000Y-75600000D03*
D13*
%TO.P,D5,5,CKI*%
%TO.N,Net-(D4-CKO)*%
X79150000Y-76500000D03*
D14*
%TO.P,D5,6,GND*%
%TO.N,GND*%
X80000000Y-75910000D03*
D11*
X79150000Y-77400000D03*
%TD*%
D10*
%TO.P,C11,1*%
%TO.N,VCC*%
X102567500Y-79500000D03*
%TO.P,C11,2*%
%TO.N,GND*%
X101432500Y-79500000D03*
%TD*%
%TO.P,C16,1*%
%TO.N,VCC*%
X125067500Y-79500000D03*
%TO.P,C16,2*%
%TO.N,GND*%
X123932500Y-79500000D03*
%TD*%
%TO.P,C10,1*%
%TO.N,VCC*%
X98067500Y-79500000D03*
%TO.P,C10,2*%
%TO.N,GND*%
X96932500Y-79500000D03*
%TD*%
%TO.P,C2,1*%
%TO.N,VCC*%
X62067500Y-79000000D03*
%TO.P,C2,2*%
%TO.N,GND*%
X60932500Y-79000000D03*
%TD*%
D15*
%TO.P,J1,1,Pin_1*%
%TO.N,GND*%
X57375000Y-72700000D03*
D16*
%TO.P,J1,2,Pin_2*%
%TO.N,SDI*%
X57375000Y-75240000D03*
%TO.P,J1,3,Pin_3*%
%TO.N,CKI*%
X57375000Y-77780000D03*
%TO.P,J1,4,Pin_4*%
%TO.N,VCC*%
X57375000Y-80320000D03*
%TD*%
D15*
%TO.P,J2,1,Pin_1*%
%TO.N,GND*%
X134625000Y-72680000D03*
D16*
%TO.P,J2,2,Pin_2*%
%TO.N,SDO*%
X134625000Y-75220000D03*
%TO.P,J2,3,Pin_3*%
%TO.N,CKO*%
X134625000Y-77760000D03*
%TO.P,J2,4,Pin_4*%
%TO.N,VCC*%
X134625000Y-80300000D03*
%TD*%
D17*
%TO.N,VCC*%
X59000000Y-80320000D03*
%TO.N,GND*%
X115000000Y-70000000D03*
X116000000Y-74500000D03*
X137500000Y-77500000D03*
X77500000Y-72500000D03*
X80000000Y-70000000D03*
X120000000Y-82500000D03*
X105932500Y-78367500D03*
X75500000Y-74500000D03*
X83432500Y-78367500D03*
X60932500Y-78250000D03*
X50000000Y-80000000D03*
X115000000Y-82500000D03*
X78932500Y-78367500D03*
X80000000Y-82500000D03*
X107000000Y-74500000D03*
X66500000Y-74500000D03*
X52500000Y-72500000D03*
X145000000Y-75000000D03*
X110000000Y-82500000D03*
X117500000Y-72500000D03*
X142500000Y-77500000D03*
X100000000Y-82500000D03*
X92432500Y-78367500D03*
X125000000Y-82500000D03*
X80000000Y-74500000D03*
X120000000Y-70000000D03*
X97500000Y-72500000D03*
X96932500Y-78367500D03*
X71000000Y-74500000D03*
X87932500Y-78367500D03*
X52500000Y-77500000D03*
X122500000Y-72500000D03*
X135000000Y-70000000D03*
X125000000Y-70000000D03*
X69932500Y-78367500D03*
X75000000Y-82500000D03*
X75000000Y-70000000D03*
X65000000Y-82500000D03*
X105000000Y-70000000D03*
X65000000Y-70000000D03*
X87500000Y-72500000D03*
X92500000Y-72500000D03*
X74432500Y-78367500D03*
X111500000Y-74500000D03*
X95000000Y-82500000D03*
X72500000Y-72500000D03*
X90000000Y-82500000D03*
X114932500Y-78367500D03*
X142500000Y-82500000D03*
X129500000Y-74500000D03*
X145000000Y-80000000D03*
X137500000Y-82500000D03*
X110432500Y-78367500D03*
X145000000Y-70000000D03*
X50000000Y-70000000D03*
X119432500Y-78367500D03*
X128432500Y-78250000D03*
X90000000Y-70000000D03*
X137500000Y-72500000D03*
X89000000Y-74500000D03*
X84500000Y-74500000D03*
X82500000Y-72500000D03*
X55000000Y-80000000D03*
X85000000Y-70000000D03*
X140000000Y-80000000D03*
X120500000Y-74500000D03*
X95000000Y-70000000D03*
X110000000Y-70000000D03*
X142500000Y-72500000D03*
X98000000Y-74500000D03*
X55000000Y-75000000D03*
X101432500Y-78367500D03*
X140000000Y-70000000D03*
X123932500Y-78367500D03*
X70000000Y-82500000D03*
X112500000Y-72500000D03*
X125000000Y-74500000D03*
X100000000Y-70000000D03*
X102500000Y-72500000D03*
X52500000Y-82500000D03*
X93500000Y-74500000D03*
X140000000Y-75000000D03*
X102500000Y-74500000D03*
X70000000Y-70000000D03*
X50000000Y-75000000D03*
X55000000Y-70000000D03*
X65432500Y-78367500D03*
X85000000Y-82500000D03*
X67500000Y-72500000D03*
X107500000Y-72500000D03*
X62000000Y-74500000D03*
X105000000Y-82500000D03*
%TD*%
D18*
%TO.N,VCC*%
X107070000Y-77400000D02*
X107000000Y-77330000D01*
D19*
X80250000Y-79317500D02*
X80067500Y-79500000D01*
D18*
X75500000Y-80320000D02*
X80000000Y-80320000D01*
X66570000Y-77400000D02*
X66500000Y-77330000D01*
X75570000Y-77400000D02*
X75500000Y-77330000D01*
X89000000Y-77330000D02*
X89000000Y-80320000D01*
X107000000Y-77330000D02*
X107000000Y-80320000D01*
X129570000Y-77490000D02*
X129500000Y-77420000D01*
X129500000Y-77330000D02*
X129500000Y-78932500D01*
X76350000Y-77400000D02*
X75570000Y-77400000D01*
X71000000Y-80320000D02*
X75500000Y-80320000D01*
X98070000Y-77400000D02*
X98000000Y-77330000D01*
X85350000Y-77400000D02*
X84570000Y-77400000D01*
X66500000Y-79432500D02*
X66567500Y-79500000D01*
X111500000Y-77330000D02*
X111500000Y-80320000D01*
X71000000Y-79432500D02*
X71067500Y-79500000D01*
X102500000Y-80320000D02*
X107000000Y-80320000D01*
X89850000Y-77400000D02*
X89070000Y-77400000D01*
X116850000Y-77400000D02*
X116070000Y-77400000D01*
X59500000Y-79750000D02*
X62680000Y-79750000D01*
X98850000Y-77400000D02*
X98070000Y-77400000D01*
X66567500Y-79500000D02*
X66500000Y-79567500D01*
X130350000Y-77400000D02*
X129570000Y-77400000D01*
X75500000Y-79432500D02*
X75567500Y-79500000D01*
X120570000Y-77400000D02*
X120500000Y-77330000D01*
X116070000Y-77400000D02*
X116000000Y-77330000D01*
X125850000Y-77400000D02*
X125070000Y-77400000D01*
X66500000Y-77330000D02*
X66500000Y-79432500D01*
X84500000Y-80320000D02*
X89000000Y-80320000D01*
X67350000Y-77400000D02*
X66570000Y-77400000D01*
X89000000Y-80320000D02*
X93500000Y-80320000D01*
X71000000Y-79567500D02*
X71000000Y-80320000D01*
X84570000Y-77400000D02*
X84500000Y-77330000D01*
X111500000Y-80320000D02*
X116000000Y-80320000D01*
X125000000Y-77330000D02*
X125000000Y-80320000D01*
X125070000Y-77400000D02*
X125000000Y-77330000D01*
X120500000Y-80320000D02*
X125000000Y-80320000D01*
X89070000Y-77400000D02*
X89000000Y-77330000D01*
X71000000Y-77330000D02*
X71000000Y-79432500D01*
X62680000Y-79750000D02*
X63250000Y-80320000D01*
X133325000Y-79000000D02*
X134625000Y-80300000D01*
X102500000Y-77330000D02*
X102500000Y-80320000D01*
X98067500Y-80252500D02*
X98000000Y-80320000D01*
X129500000Y-78932500D02*
X129567500Y-79000000D01*
X94350000Y-77400000D02*
X93570000Y-77400000D01*
X98000000Y-79432500D02*
X98067500Y-79500000D01*
X116000000Y-80320000D02*
X120500000Y-80320000D01*
X103350000Y-77400000D02*
X102570000Y-77400000D01*
X63250000Y-80320000D02*
X66500000Y-80320000D01*
X129567500Y-79182500D02*
X129567500Y-79000000D01*
X71067500Y-79500000D02*
X71000000Y-79567500D01*
X93500000Y-80320000D02*
X98000000Y-80320000D01*
X129570000Y-77400000D02*
X129500000Y-77330000D01*
X98000000Y-77330000D02*
X98000000Y-79432500D01*
X80850000Y-77400000D02*
X80070000Y-77400000D01*
X66500000Y-79567500D02*
X66500000Y-80320000D01*
X116000000Y-77330000D02*
X116000000Y-80320000D01*
X134605000Y-80320000D02*
X134625000Y-80300000D01*
X71850000Y-77400000D02*
X71070000Y-77400000D01*
X111570000Y-77400000D02*
X111500000Y-77330000D01*
X129567500Y-79000000D02*
X133325000Y-79000000D01*
X98000000Y-80320000D02*
X102500000Y-80320000D01*
X75500000Y-77330000D02*
X75500000Y-80320000D01*
D19*
X75567500Y-79500000D02*
X75500000Y-79567500D01*
D18*
X107000000Y-80320000D02*
X111500000Y-80320000D01*
X102570000Y-77400000D02*
X102500000Y-77330000D01*
X120500000Y-77330000D02*
X120500000Y-80320000D01*
X62850000Y-77400000D02*
X62070000Y-77400000D01*
X80070000Y-77400000D02*
X80000000Y-77330000D01*
X121350000Y-77400000D02*
X120570000Y-77400000D01*
X107850000Y-77400000D02*
X107070000Y-77400000D01*
X59000000Y-80320000D02*
X59000000Y-80250000D01*
X112350000Y-77400000D02*
X111570000Y-77400000D01*
X93570000Y-77400000D02*
X93500000Y-77330000D01*
X66500000Y-80320000D02*
X71000000Y-80320000D01*
X93500000Y-77330000D02*
X93500000Y-80320000D01*
X128750000Y-80000000D02*
X129567500Y-79182500D01*
X62000000Y-77330000D02*
X62000000Y-79432500D01*
X80000000Y-77330000D02*
X80000000Y-80320000D01*
X80000000Y-80320000D02*
X84500000Y-80320000D01*
X62070000Y-77400000D02*
X62000000Y-77330000D01*
X128000000Y-80000000D02*
X128750000Y-80000000D01*
X59000000Y-80250000D02*
X59500000Y-79750000D01*
X127680000Y-80320000D02*
X128000000Y-80000000D01*
X71070000Y-77400000D02*
X71000000Y-77330000D01*
X84500000Y-77330000D02*
X84500000Y-80320000D01*
X98067500Y-79500000D02*
X98067500Y-80252500D01*
X125000000Y-80320000D02*
X127680000Y-80320000D01*
D19*
%TO.N,Net-(D1-CKO)*%
X62850000Y-76500000D02*
X65650000Y-76500000D01*
%TO.N,Net-(D1-SDO)*%
X62850000Y-75600000D02*
X65650000Y-75600000D01*
%TO.N,SDI*%
X61150000Y-75600000D02*
X57735000Y-75600000D01*
X57735000Y-75600000D02*
X57375000Y-75240000D01*
%TO.N,CKI*%
X61150000Y-76500000D02*
X58655000Y-76500000D01*
X58655000Y-76500000D02*
X57375000Y-77780000D01*
D18*
%TO.N,GND*%
X98000000Y-74500000D02*
X98000000Y-75910000D01*
X128432500Y-77707500D02*
X128432500Y-79000000D01*
X120500000Y-74500000D02*
X120500000Y-75910000D01*
X125000000Y-74500000D02*
X125000000Y-75910000D01*
X111500000Y-74500000D02*
X111500000Y-75910000D01*
X65432500Y-79500000D02*
X65432500Y-77617500D01*
X110432500Y-77617500D02*
X110650000Y-77400000D01*
X114932500Y-77617500D02*
X115150000Y-77400000D01*
X93500000Y-74500000D02*
X93500000Y-75910000D01*
X66500000Y-74500000D02*
X66500000Y-75910000D01*
X71000000Y-74500000D02*
X71000000Y-75910000D01*
X74432500Y-79500000D02*
X74432500Y-77617500D01*
X96932500Y-79500000D02*
X96932500Y-77617500D01*
X87932500Y-77617500D02*
X88150000Y-77400000D01*
X61150000Y-77400000D02*
X60932500Y-77617500D01*
X102500000Y-74500000D02*
X102500000Y-75910000D01*
X123932500Y-77617500D02*
X124150000Y-77400000D01*
X78932500Y-79500000D02*
X78932500Y-77617500D01*
X101432500Y-79500000D02*
X101432500Y-77617500D01*
X110432500Y-79500000D02*
X110432500Y-77617500D01*
X107000000Y-74500000D02*
X107000000Y-75910000D01*
X114932500Y-79500000D02*
X114932500Y-77617500D01*
X101432500Y-77617500D02*
X101650000Y-77400000D01*
X119432500Y-77617500D02*
X119650000Y-77400000D01*
X84500000Y-74500000D02*
X84500000Y-75910000D01*
X83432500Y-79500000D02*
X83432500Y-77617500D01*
X60932500Y-77617500D02*
X60932500Y-79000000D01*
X69932500Y-77617500D02*
X70150000Y-77400000D01*
X75500000Y-74500000D02*
X75500000Y-75910000D01*
X89000000Y-74500000D02*
X89000000Y-75910000D01*
X128432500Y-77707500D02*
X128650000Y-77490000D01*
X74432500Y-77617500D02*
X74650000Y-77400000D01*
X116000000Y-74500000D02*
X116000000Y-75910000D01*
X69932500Y-79500000D02*
X69932500Y-77617500D01*
X78932500Y-77617500D02*
X79150000Y-77400000D01*
X92432500Y-79500000D02*
X92432500Y-77617500D01*
X65432500Y-77617500D02*
X65650000Y-77400000D01*
X87932500Y-79500000D02*
X87932500Y-77617500D01*
X83432500Y-77617500D02*
X83650000Y-77400000D01*
X96932500Y-77617500D02*
X97150000Y-77400000D01*
X119432500Y-79500000D02*
X119432500Y-77617500D01*
X80000000Y-74500000D02*
X80000000Y-75910000D01*
X92432500Y-77617500D02*
X92650000Y-77400000D01*
X123932500Y-79500000D02*
X123932500Y-77617500D01*
X129500000Y-74500000D02*
X129500000Y-75910000D01*
X105932500Y-77617500D02*
X106150000Y-77400000D01*
X105932500Y-79500000D02*
X105932500Y-77617500D01*
X62000000Y-75910000D02*
X62000000Y-74500000D01*
D19*
%TO.N,Net-(D2-CKO)*%
X67350000Y-76500000D02*
X70150000Y-76500000D01*
%TO.N,Net-(D2-SDO)*%
X67350000Y-75600000D02*
X70150000Y-75600000D01*
%TO.N,Net-(D3-CKO)*%
X71850000Y-76500000D02*
X74650000Y-76500000D01*
%TO.N,Net-(D3-SDO)*%
X71850000Y-75600000D02*
X74650000Y-75600000D01*
%TO.N,Net-(D4-CKO)*%
X76350000Y-76500000D02*
X79150000Y-76500000D01*
%TO.N,Net-(D4-SDO)*%
X76350000Y-75600000D02*
X79150000Y-75600000D01*
%TO.N,Net-(D5-CKO)*%
X80850000Y-76500000D02*
X83650000Y-76500000D01*
%TO.N,Net-(D5-SDO)*%
X80850000Y-75600000D02*
X83650000Y-75600000D01*
%TO.N,Net-(D6-CKO)*%
X85350000Y-76500000D02*
X88150000Y-76500000D01*
%TO.N,Net-(D6-SDO)*%
X85350000Y-75600000D02*
X88150000Y-75600000D01*
%TO.N,Net-(D7-CKO)*%
X89850000Y-76500000D02*
X92650000Y-76500000D01*
%TO.N,Net-(D7-SDO)*%
X89850000Y-75600000D02*
X92650000Y-75600000D01*
%TO.N,/10x_Led/CKO*%
X94350000Y-76500000D02*
X97150000Y-76500000D01*
%TO.N,/10x_Led/SDO*%
X94350000Y-75600000D02*
X97150000Y-75600000D01*
%TO.N,Net-(D10-CKI)*%
X98850000Y-76500000D02*
X101650000Y-76500000D01*
%TO.N,Net-(D10-SDI)*%
X98850000Y-75600000D02*
X101650000Y-75600000D01*
%TO.N,Net-(D10-CKO)*%
X103350000Y-76500000D02*
X106150000Y-76500000D01*
%TO.N,Net-(D10-SDO)*%
X103350000Y-75600000D02*
X106150000Y-75600000D01*
%TO.N,Net-(D11-CKO)*%
X107850000Y-76500000D02*
X110650000Y-76500000D01*
%TO.N,Net-(D11-SDO)*%
X107850000Y-75600000D02*
X110650000Y-75600000D01*
%TO.N,Net-(D12-CKO)*%
X112350000Y-76500000D02*
X115150000Y-76500000D01*
%TO.N,Net-(D12-SDO)*%
X112350000Y-75600000D02*
X115150000Y-75600000D01*
%TO.N,Net-(D13-CKO)*%
X116850000Y-76500000D02*
X119650000Y-76500000D01*
%TO.N,Net-(D13-SDO)*%
X116850000Y-75600000D02*
X119650000Y-75600000D01*
%TO.N,Net-(D14-CKO)*%
X121350000Y-76500000D02*
X124150000Y-76500000D01*
%TO.N,Net-(D14-SDO)*%
X121350000Y-75600000D02*
X124150000Y-75600000D01*
%TO.N,Net-(D15-CKO)*%
X125850000Y-76500000D02*
X128650000Y-76500000D01*
%TO.N,Net-(D15-SDO)*%
X128560000Y-75600000D02*
X128650000Y-75690000D01*
X125850000Y-75600000D02*
X128560000Y-75600000D01*
%TO.N,CKO*%
X130350000Y-76500000D02*
X133365000Y-76500000D01*
X133365000Y-76500000D02*
X134625000Y-77760000D01*
%TO.N,SDO*%
X134245000Y-75600000D02*
X134625000Y-75220000D01*
X130350000Y-75600000D02*
X134245000Y-75600000D01*
%TD*%
%TA.AperFunction,Conductor*%
%TO.N,GND*%
G36*
X65188029Y-76767691D02*
G01*
X65188967Y-76765428D01*
X65200248Y-76770101D01*
X65200251Y-76770101D01*
X65200252Y-76770102D01*
X65219092Y-76773849D01*
X65237441Y-76777500D01*
X65998500Y-76777500D01*
X66065539Y-76797185D01*
X66111294Y-76849989D01*
X66122500Y-76901500D01*
X66122500Y-77277987D01*
X66119861Y-77303432D01*
X66119860Y-77303438D01*
X66117606Y-77314184D01*
X66122023Y-77349616D01*
X66122500Y-77357292D01*
X66122500Y-79146012D01*
X66111934Y-79196099D01*
X66075241Y-79279198D01*
X66072500Y-79302824D01*
X66072500Y-79697175D01*
X66075241Y-79720802D01*
X66075242Y-79720804D01*
X66096264Y-79768414D01*
X66105336Y-79837692D01*
X66075513Y-79900877D01*
X66016263Y-79937908D01*
X65982830Y-79942500D01*
X63457727Y-79942500D01*
X63390688Y-79922815D01*
X63370046Y-79906181D01*
X63184669Y-79720804D01*
X62983710Y-79519844D01*
X62967584Y-79499987D01*
X62961576Y-79490791D01*
X62951959Y-79483306D01*
X62944007Y-79477116D01*
X62933396Y-79468857D01*
X62927634Y-79463768D01*
X62924813Y-79460947D01*
X62924811Y-79460946D01*
X62919154Y-79456907D01*
X62905705Y-79447304D01*
X62863282Y-79414285D01*
X62862157Y-79413409D01*
X62855194Y-79409642D01*
X62848091Y-79406169D01*
X62848089Y-79406168D01*
X62835953Y-79402554D01*
X62795193Y-79390419D01*
X62742995Y-79372499D01*
X62735199Y-79371198D01*
X62727335Y-79370218D01*
X62685980Y-79371929D01*
X62618184Y-79355031D01*
X62570286Y-79304163D01*
X62557494Y-79235475D01*
X62558991Y-79227411D01*
X62559757Y-79220801D01*
X62559759Y-79220799D01*
X62562500Y-79197174D01*
X62562500Y-78802826D01*
X62559759Y-78779201D01*
X62552265Y-78762230D01*
X62517100Y-78682588D01*
X62517099Y-78682587D01*
X62517098Y-78682584D01*
X62442416Y-78607902D01*
X62442415Y-78607901D01*
X62442414Y-78607900D01*
X62432938Y-78601409D01*
X62435166Y-78598155D01*
X62398018Y-78566760D01*
X62377509Y-78499968D01*
X62377500Y-78498440D01*
X62377500Y-77901500D01*
X62397185Y-77834461D01*
X62449989Y-77788706D01*
X62501500Y-77777500D01*
X63262559Y-77777500D01*
X63269957Y-77776028D01*
X63299748Y-77770102D01*
X63341922Y-77741922D01*
X63370102Y-77699748D01*
X63377500Y-77662558D01*
X63377500Y-77137442D01*
X63370102Y-77100252D01*
X63346854Y-77065459D01*
X63341922Y-77058077D01*
X63299749Y-77029898D01*
X63258120Y-77021617D01*
X63196210Y-76989230D01*
X63161637Y-76928514D01*
X63165378Y-76858744D01*
X63206246Y-76802073D01*
X63258120Y-76778383D01*
X63270635Y-76775893D01*
X63299748Y-76770102D01*
X63299748Y-76770101D01*
X63299751Y-76770101D01*
X63311033Y-76765428D01*
X63312093Y-76767987D01*
X63361497Y-76752520D01*
X63363707Y-76752500D01*
X65136293Y-76752500D01*
X65188029Y-76767691D01*
G37*
%TD.AperFunction*%
%TA.AperFunction,Conductor*%
G36*
X69688029Y-76767691D02*
G01*
X69688967Y-76765428D01*
X69700248Y-76770101D01*
X69700251Y-76770101D01*
X69700252Y-76770102D01*
X69719092Y-76773849D01*
X69737441Y-76777500D01*
X70498500Y-76777500D01*
X70565539Y-76797185D01*
X70611294Y-76849989D01*
X70622500Y-76901500D01*
X70622500Y-77277987D01*
X70619861Y-77303432D01*
X70619860Y-77303438D01*
X70617606Y-77314184D01*
X70622023Y-77349616D01*
X70622500Y-77357292D01*
X70622500Y-79146012D01*
X70611934Y-79196099D01*
X70575241Y-79279198D01*
X70572500Y-79302824D01*
X70572500Y-79697175D01*
X70575241Y-79720802D01*
X70575242Y-79720804D01*
X70596264Y-79768414D01*
X70605336Y-79837692D01*
X70575513Y-79900877D01*
X70516263Y-79937908D01*
X70482830Y-79942500D01*
X67152170Y-79942500D01*
X67085131Y-79922815D01*
X67039376Y-79870011D01*
X67029432Y-79800853D01*
X67038736Y-79768414D01*
X67059757Y-79720804D01*
X67059758Y-79720802D01*
X67059758Y-79720801D01*
X67059759Y-79720799D01*
X67062500Y-79697174D01*
X67062500Y-79302826D01*
X67059759Y-79279201D01*
X67059757Y-79279197D01*
X67017100Y-79182588D01*
X67017099Y-79182587D01*
X67017098Y-79182584D01*
X66942416Y-79107902D01*
X66942415Y-79107901D01*
X66942414Y-79107900D01*
X66932938Y-79101409D01*
X66935166Y-79098155D01*
X66898018Y-79066760D01*
X66877509Y-78999968D01*
X66877500Y-78998440D01*
X66877500Y-77901500D01*
X66897185Y-77834461D01*
X66949989Y-77788706D01*
X67001500Y-77777500D01*
X67762559Y-77777500D01*
X67769957Y-77776028D01*
X67799748Y-77770102D01*
X67841922Y-77741922D01*
X67870102Y-77699748D01*
X67877500Y-77662558D01*
X67877500Y-77137442D01*
X67870102Y-77100252D01*
X67846854Y-77065459D01*
X67841922Y-77058077D01*
X67799749Y-77029898D01*
X67758120Y-77021617D01*
X67696210Y-76989230D01*
X67661637Y-76928514D01*
X67665378Y-76858744D01*
X67706246Y-76802073D01*
X67758120Y-76778383D01*
X67770635Y-76775893D01*
X67799748Y-76770102D01*
X67799748Y-76770101D01*
X67799751Y-76770101D01*
X67811033Y-76765428D01*
X67812093Y-76767987D01*
X67861497Y-76752520D01*
X67863707Y-76752500D01*
X69636293Y-76752500D01*
X69688029Y-76767691D01*
G37*
%TD.AperFunction*%
%TA.AperFunction,Conductor*%
G36*
X74188029Y-76767691D02*
G01*
X74188967Y-76765428D01*
X74200248Y-76770101D01*
X74200251Y-76770101D01*
X74200252Y-76770102D01*
X74219092Y-76773849D01*
X74237441Y-76777500D01*
X74998500Y-76777500D01*
X75065539Y-76797185D01*
X75111294Y-76849989D01*
X75122500Y-76901500D01*
X75122500Y-77277987D01*
X75119861Y-77303432D01*
X75119860Y-77303438D01*
X75117606Y-77314184D01*
X75122023Y-77349616D01*
X75122500Y-77357292D01*
X75122500Y-79146012D01*
X75111934Y-79196099D01*
X75075241Y-79279198D01*
X75072500Y-79302824D01*
X75072500Y-79697175D01*
X75075241Y-79720802D01*
X75075242Y-79720804D01*
X75096264Y-79768414D01*
X75105336Y-79837692D01*
X75075513Y-79900877D01*
X75016263Y-79937908D01*
X74982830Y-79942500D01*
X71652170Y-79942500D01*
X71585131Y-79922815D01*
X71539376Y-79870011D01*
X71529432Y-79800853D01*
X71538736Y-79768414D01*
X71559757Y-79720804D01*
X71559758Y-79720802D01*
X71559758Y-79720801D01*
X71559759Y-79720799D01*
X71562500Y-79697174D01*
X71562500Y-79302826D01*
X71559759Y-79279201D01*
X71559757Y-79279197D01*
X71517100Y-79182588D01*
X71517099Y-79182587D01*
X71517098Y-79182584D01*
X71442416Y-79107902D01*
X71442415Y-79107901D01*
X71442414Y-79107900D01*
X71432938Y-79101409D01*
X71435166Y-79098155D01*
X71398018Y-79066760D01*
X71377509Y-78999968D01*
X71377500Y-78998440D01*
X71377500Y-77901500D01*
X71397185Y-77834461D01*
X71449989Y-77788706D01*
X71501500Y-77777500D01*
X72262559Y-77777500D01*
X72269957Y-77776028D01*
X72299748Y-77770102D01*
X72341922Y-77741922D01*
X72370102Y-77699748D01*
X72377500Y-77662558D01*
X72377500Y-77137442D01*
X72370102Y-77100252D01*
X72346854Y-77065459D01*
X72341922Y-77058077D01*
X72299749Y-77029898D01*
X72258120Y-77021617D01*
X72196210Y-76989230D01*
X72161637Y-76928514D01*
X72165378Y-76858744D01*
X72206246Y-76802073D01*
X72258120Y-76778383D01*
X72270635Y-76775893D01*
X72299748Y-76770102D01*
X72299748Y-76770101D01*
X72299751Y-76770101D01*
X72311033Y-76765428D01*
X72312093Y-76767987D01*
X72361497Y-76752520D01*
X72363707Y-76752500D01*
X74136293Y-76752500D01*
X74188029Y-76767691D01*
G37*
%TD.AperFunction*%
%TA.AperFunction,Conductor*%
G36*
X78688029Y-76767691D02*
G01*
X78688967Y-76765428D01*
X78700248Y-76770101D01*
X78700251Y-76770101D01*
X78700252Y-76770102D01*
X78719092Y-76773849D01*
X78737441Y-76777500D01*
X79498500Y-76777500D01*
X79565539Y-76797185D01*
X79611294Y-76849989D01*
X79622500Y-76901500D01*
X79622500Y-77277987D01*
X79619861Y-77303432D01*
X79619860Y-77303438D01*
X79617606Y-77314184D01*
X79622023Y-77349616D01*
X79622500Y-77357292D01*
X79622500Y-79146012D01*
X79611934Y-79196099D01*
X79575241Y-79279198D01*
X79572500Y-79302824D01*
X79572500Y-79697175D01*
X79575241Y-79720802D01*
X79575242Y-79720804D01*
X79596264Y-79768414D01*
X79605336Y-79837692D01*
X79575513Y-79900877D01*
X79516263Y-79937908D01*
X79482830Y-79942500D01*
X76152170Y-79942500D01*
X76085131Y-79922815D01*
X76039376Y-79870011D01*
X76029432Y-79800853D01*
X76038736Y-79768414D01*
X76059757Y-79720804D01*
X76059758Y-79720802D01*
X76059758Y-79720801D01*
X76059759Y-79720799D01*
X76062500Y-79697174D01*
X76062500Y-79302826D01*
X76059759Y-79279201D01*
X76059757Y-79279197D01*
X76017100Y-79182588D01*
X76017099Y-79182587D01*
X76017098Y-79182584D01*
X75942416Y-79107902D01*
X75942415Y-79107901D01*
X75942414Y-79107900D01*
X75932938Y-79101409D01*
X75935166Y-79098155D01*
X75898018Y-79066760D01*
X75877509Y-78999968D01*
X75877500Y-78998440D01*
X75877500Y-77901500D01*
X75897185Y-77834461D01*
X75949989Y-77788706D01*
X76001500Y-77777500D01*
X76762559Y-77777500D01*
X76769957Y-77776028D01*
X76799748Y-77770102D01*
X76841922Y-77741922D01*
X76870102Y-77699748D01*
X76877500Y-77662558D01*
X76877500Y-77137442D01*
X76870102Y-77100252D01*
X76846854Y-77065459D01*
X76841922Y-77058077D01*
X76799749Y-77029898D01*
X76758120Y-77021617D01*
X76696210Y-76989230D01*
X76661637Y-76928514D01*
X76665378Y-76858744D01*
X76706246Y-76802073D01*
X76758120Y-76778383D01*
X76770635Y-76775893D01*
X76799748Y-76770102D01*
X76799748Y-76770101D01*
X76799751Y-76770101D01*
X76811033Y-76765428D01*
X76812093Y-76767987D01*
X76861497Y-76752520D01*
X76863707Y-76752500D01*
X78636293Y-76752500D01*
X78688029Y-76767691D01*
G37*
%TD.AperFunction*%
%TA.AperFunction,Conductor*%
G36*
X83188029Y-76767691D02*
G01*
X83188967Y-76765428D01*
X83200248Y-76770101D01*
X83200251Y-76770101D01*
X83200252Y-76770102D01*
X83219092Y-76773849D01*
X83237441Y-76777500D01*
X83998500Y-76777500D01*
X84065539Y-76797185D01*
X84111294Y-76849989D01*
X84122500Y-76901500D01*
X84122500Y-77277987D01*
X84119861Y-77303432D01*
X84119860Y-77303438D01*
X84117606Y-77314184D01*
X84122023Y-77349616D01*
X84122500Y-77357292D01*
X84122500Y-79146012D01*
X84111934Y-79196099D01*
X84075241Y-79279198D01*
X84072500Y-79302824D01*
X84072500Y-79697175D01*
X84075241Y-79720802D01*
X84075242Y-79720804D01*
X84096264Y-79768414D01*
X84105336Y-79837692D01*
X84075513Y-79900877D01*
X84016263Y-79937908D01*
X83982830Y-79942500D01*
X80652170Y-79942500D01*
X80585131Y-79922815D01*
X80539376Y-79870011D01*
X80529432Y-79800853D01*
X80538736Y-79768414D01*
X80559757Y-79720804D01*
X80559758Y-79720802D01*
X80559758Y-79720801D01*
X80559759Y-79720799D01*
X80562500Y-79697174D01*
X80562500Y-79302826D01*
X80559759Y-79279201D01*
X80559757Y-79279197D01*
X80517100Y-79182588D01*
X80517099Y-79182587D01*
X80517098Y-79182584D01*
X80442416Y-79107902D01*
X80442415Y-79107901D01*
X80442414Y-79107900D01*
X80432938Y-79101409D01*
X80435166Y-79098155D01*
X80398018Y-79066760D01*
X80377509Y-78999968D01*
X80377500Y-78998440D01*
X80377500Y-77901500D01*
X80397185Y-77834461D01*
X80449989Y-77788706D01*
X80501500Y-77777500D01*
X81262559Y-77777500D01*
X81269957Y-77776028D01*
X81299748Y-77770102D01*
X81341922Y-77741922D01*
X81370102Y-77699748D01*
X81377500Y-77662558D01*
X81377500Y-77137442D01*
X81370102Y-77100252D01*
X81346854Y-77065459D01*
X81341922Y-77058077D01*
X81299749Y-77029898D01*
X81258120Y-77021617D01*
X81196210Y-76989230D01*
X81161637Y-76928514D01*
X81165378Y-76858744D01*
X81206246Y-76802073D01*
X81258120Y-76778383D01*
X81270635Y-76775893D01*
X81299748Y-76770102D01*
X81299748Y-76770101D01*
X81299751Y-76770101D01*
X81311033Y-76765428D01*
X81312093Y-76767987D01*
X81361497Y-76752520D01*
X81363707Y-76752500D01*
X83136293Y-76752500D01*
X83188029Y-76767691D01*
G37*
%TD.AperFunction*%
%TA.AperFunction,Conductor*%
G36*
X87688029Y-76767691D02*
G01*
X87688967Y-76765428D01*
X87700248Y-76770101D01*
X87700251Y-76770101D01*
X87700252Y-76770102D01*
X87719092Y-76773849D01*
X87737441Y-76777500D01*
X88498500Y-76777500D01*
X88565539Y-76797185D01*
X88611294Y-76849989D01*
X88622500Y-76901500D01*
X88622500Y-77277987D01*
X88619861Y-77303432D01*
X88619860Y-77303438D01*
X88617606Y-77314184D01*
X88622023Y-77349616D01*
X88622500Y-77357292D01*
X88622500Y-79146012D01*
X88611934Y-79196099D01*
X88575241Y-79279198D01*
X88572500Y-79302824D01*
X88572500Y-79697175D01*
X88575241Y-79720802D01*
X88575242Y-79720804D01*
X88596264Y-79768414D01*
X88605336Y-79837692D01*
X88575513Y-79900877D01*
X88516263Y-79937908D01*
X88482830Y-79942500D01*
X85152170Y-79942500D01*
X85085131Y-79922815D01*
X85039376Y-79870011D01*
X85029432Y-79800853D01*
X85038736Y-79768414D01*
X85059757Y-79720804D01*
X85059758Y-79720802D01*
X85059758Y-79720801D01*
X85059759Y-79720799D01*
X85062500Y-79697174D01*
X85062500Y-79302826D01*
X85059759Y-79279201D01*
X85059757Y-79279197D01*
X85017100Y-79182588D01*
X85017099Y-79182587D01*
X85017098Y-79182584D01*
X84942416Y-79107902D01*
X84942415Y-79107901D01*
X84942414Y-79107900D01*
X84932938Y-79101409D01*
X84935166Y-79098155D01*
X84898018Y-79066760D01*
X84877509Y-78999968D01*
X84877500Y-78998440D01*
X84877500Y-77901500D01*
X84897185Y-77834461D01*
X84949989Y-77788706D01*
X85001500Y-77777500D01*
X85762559Y-77777500D01*
X85769957Y-77776028D01*
X85799748Y-77770102D01*
X85841922Y-77741922D01*
X85870102Y-77699748D01*
X85877500Y-77662558D01*
X85877500Y-77137442D01*
X85870102Y-77100252D01*
X85846854Y-77065459D01*
X85841922Y-77058077D01*
X85799749Y-77029898D01*
X85758120Y-77021617D01*
X85696210Y-76989230D01*
X85661637Y-76928514D01*
X85665378Y-76858744D01*
X85706246Y-76802073D01*
X85758120Y-76778383D01*
X85770635Y-76775893D01*
X85799748Y-76770102D01*
X85799748Y-76770101D01*
X85799751Y-76770101D01*
X85811033Y-76765428D01*
X85812093Y-76767987D01*
X85861497Y-76752520D01*
X85863707Y-76752500D01*
X87636293Y-76752500D01*
X87688029Y-76767691D01*
G37*
%TD.AperFunction*%
%TA.AperFunction,Conductor*%
G36*
X92188029Y-76767691D02*
G01*
X92188967Y-76765428D01*
X92200248Y-76770101D01*
X92200251Y-76770101D01*
X92200252Y-76770102D01*
X92219092Y-76773849D01*
X92237441Y-76777500D01*
X92998500Y-76777500D01*
X93065539Y-76797185D01*
X93111294Y-76849989D01*
X93122500Y-76901500D01*
X93122500Y-77277987D01*
X93119861Y-77303432D01*
X93119860Y-77303438D01*
X93117606Y-77314184D01*
X93122023Y-77349616D01*
X93122500Y-77357292D01*
X93122500Y-79146012D01*
X93111934Y-79196099D01*
X93075241Y-79279198D01*
X93072500Y-79302824D01*
X93072500Y-79697175D01*
X93075241Y-79720802D01*
X93075242Y-79720804D01*
X93096264Y-79768414D01*
X93105336Y-79837692D01*
X93075513Y-79900877D01*
X93016263Y-79937908D01*
X92982830Y-79942500D01*
X89652170Y-79942500D01*
X89585131Y-79922815D01*
X89539376Y-79870011D01*
X89529432Y-79800853D01*
X89538736Y-79768414D01*
X89559757Y-79720804D01*
X89559758Y-79720802D01*
X89559758Y-79720801D01*
X89559759Y-79720799D01*
X89562500Y-79697174D01*
X89562500Y-79302826D01*
X89559759Y-79279201D01*
X89559757Y-79279197D01*
X89517100Y-79182588D01*
X89517099Y-79182587D01*
X89517098Y-79182584D01*
X89442416Y-79107902D01*
X89442415Y-79107901D01*
X89442414Y-79107900D01*
X89432938Y-79101409D01*
X89435166Y-79098155D01*
X89398018Y-79066760D01*
X89377509Y-78999968D01*
X89377500Y-78998440D01*
X89377500Y-77901500D01*
X89397185Y-77834461D01*
X89449989Y-77788706D01*
X89501500Y-77777500D01*
X90262559Y-77777500D01*
X90269957Y-77776028D01*
X90299748Y-77770102D01*
X90341922Y-77741922D01*
X90370102Y-77699748D01*
X90377500Y-77662558D01*
X90377500Y-77137442D01*
X90370102Y-77100252D01*
X90346854Y-77065459D01*
X90341922Y-77058077D01*
X90299749Y-77029898D01*
X90258120Y-77021617D01*
X90196210Y-76989230D01*
X90161637Y-76928514D01*
X90165378Y-76858744D01*
X90206246Y-76802073D01*
X90258120Y-76778383D01*
X90270635Y-76775893D01*
X90299748Y-76770102D01*
X90299748Y-76770101D01*
X90299751Y-76770101D01*
X90311033Y-76765428D01*
X90312093Y-76767987D01*
X90361497Y-76752520D01*
X90363707Y-76752500D01*
X92136293Y-76752500D01*
X92188029Y-76767691D01*
G37*
%TD.AperFunction*%
%TA.AperFunction,Conductor*%
G36*
X96688029Y-76767691D02*
G01*
X96688967Y-76765428D01*
X96700248Y-76770101D01*
X96700251Y-76770101D01*
X96700252Y-76770102D01*
X96719092Y-76773849D01*
X96737441Y-76777500D01*
X97498500Y-76777500D01*
X97565539Y-76797185D01*
X97611294Y-76849989D01*
X97622500Y-76901500D01*
X97622500Y-77277987D01*
X97619861Y-77303432D01*
X97619860Y-77303438D01*
X97617606Y-77314184D01*
X97622023Y-77349616D01*
X97622500Y-77357292D01*
X97622500Y-79146012D01*
X97611934Y-79196099D01*
X97575241Y-79279198D01*
X97572500Y-79302824D01*
X97572500Y-79697175D01*
X97575241Y-79720802D01*
X97575242Y-79720804D01*
X97596264Y-79768414D01*
X97605336Y-79837692D01*
X97575513Y-79900877D01*
X97516263Y-79937908D01*
X97482830Y-79942500D01*
X94152170Y-79942500D01*
X94085131Y-79922815D01*
X94039376Y-79870011D01*
X94029432Y-79800853D01*
X94038736Y-79768414D01*
X94059757Y-79720804D01*
X94059758Y-79720802D01*
X94059758Y-79720801D01*
X94059759Y-79720799D01*
X94062500Y-79697174D01*
X94062500Y-79302826D01*
X94059759Y-79279201D01*
X94059757Y-79279197D01*
X94017100Y-79182588D01*
X94017099Y-79182587D01*
X94017098Y-79182584D01*
X93942416Y-79107902D01*
X93942415Y-79107901D01*
X93942414Y-79107900D01*
X93932938Y-79101409D01*
X93935166Y-79098155D01*
X93898018Y-79066760D01*
X93877509Y-78999968D01*
X93877500Y-78998440D01*
X93877500Y-77901500D01*
X93897185Y-77834461D01*
X93949989Y-77788706D01*
X94001500Y-77777500D01*
X94762559Y-77777500D01*
X94769957Y-77776028D01*
X94799748Y-77770102D01*
X94841922Y-77741922D01*
X94870102Y-77699748D01*
X94877500Y-77662558D01*
X94877500Y-77137442D01*
X94870102Y-77100252D01*
X94846854Y-77065459D01*
X94841922Y-77058077D01*
X94799749Y-77029898D01*
X94758120Y-77021617D01*
X94696210Y-76989230D01*
X94661637Y-76928514D01*
X94665378Y-76858744D01*
X94706246Y-76802073D01*
X94758120Y-76778383D01*
X94770635Y-76775893D01*
X94799748Y-76770102D01*
X94799748Y-76770101D01*
X94799751Y-76770101D01*
X94811033Y-76765428D01*
X94812093Y-76767987D01*
X94861497Y-76752520D01*
X94863707Y-76752500D01*
X96636293Y-76752500D01*
X96688029Y-76767691D01*
G37*
%TD.AperFunction*%
%TA.AperFunction,Conductor*%
G36*
X101188029Y-76767691D02*
G01*
X101188967Y-76765428D01*
X101200248Y-76770101D01*
X101200251Y-76770101D01*
X101200252Y-76770102D01*
X101219092Y-76773849D01*
X101237441Y-76777500D01*
X101998500Y-76777500D01*
X102065539Y-76797185D01*
X102111294Y-76849989D01*
X102122500Y-76901500D01*
X102122500Y-77277987D01*
X102119861Y-77303432D01*
X102119860Y-77303438D01*
X102117606Y-77314184D01*
X102122023Y-77349616D01*
X102122500Y-77357292D01*
X102122499Y-79146012D01*
X102111934Y-79196098D01*
X102075241Y-79279199D01*
X102072500Y-79302824D01*
X102072500Y-79697175D01*
X102075241Y-79720802D01*
X102075242Y-79720804D01*
X102096264Y-79768414D01*
X102105336Y-79837692D01*
X102075513Y-79900877D01*
X102016263Y-79937908D01*
X101982830Y-79942500D01*
X98652170Y-79942500D01*
X98585131Y-79922815D01*
X98539376Y-79870011D01*
X98529432Y-79800853D01*
X98538736Y-79768414D01*
X98559757Y-79720804D01*
X98559758Y-79720802D01*
X98559758Y-79720801D01*
X98559759Y-79720799D01*
X98562500Y-79697174D01*
X98562500Y-79302826D01*
X98559759Y-79279201D01*
X98559757Y-79279197D01*
X98517100Y-79182588D01*
X98517099Y-79182587D01*
X98517098Y-79182584D01*
X98442416Y-79107902D01*
X98442415Y-79107901D01*
X98442414Y-79107900D01*
X98432938Y-79101409D01*
X98435166Y-79098155D01*
X98398018Y-79066760D01*
X98377509Y-78999968D01*
X98377500Y-78998440D01*
X98377500Y-77901500D01*
X98397185Y-77834461D01*
X98449989Y-77788706D01*
X98501500Y-77777500D01*
X99262559Y-77777500D01*
X99269957Y-77776028D01*
X99299748Y-77770102D01*
X99341922Y-77741922D01*
X99370102Y-77699748D01*
X99377500Y-77662558D01*
X99377500Y-77137442D01*
X99370102Y-77100252D01*
X99346854Y-77065459D01*
X99341922Y-77058077D01*
X99299749Y-77029898D01*
X99258120Y-77021617D01*
X99196210Y-76989230D01*
X99161637Y-76928514D01*
X99165378Y-76858744D01*
X99206246Y-76802073D01*
X99258120Y-76778383D01*
X99270635Y-76775893D01*
X99299748Y-76770102D01*
X99299748Y-76770101D01*
X99299751Y-76770101D01*
X99311033Y-76765428D01*
X99312093Y-76767987D01*
X99361497Y-76752520D01*
X99363707Y-76752500D01*
X101136293Y-76752500D01*
X101188029Y-76767691D01*
G37*
%TD.AperFunction*%
%TA.AperFunction,Conductor*%
G36*
X105688029Y-76767691D02*
G01*
X105688967Y-76765428D01*
X105700248Y-76770101D01*
X105700251Y-76770101D01*
X105700252Y-76770102D01*
X105719092Y-76773849D01*
X105737441Y-76777500D01*
X106498500Y-76777500D01*
X106565539Y-76797185D01*
X106611294Y-76849989D01*
X106622500Y-76901500D01*
X106622500Y-77277987D01*
X106619861Y-77303432D01*
X106619860Y-77303438D01*
X106617606Y-77314184D01*
X106622023Y-77349616D01*
X106622500Y-77357292D01*
X106622500Y-79146012D01*
X106611934Y-79196099D01*
X106575241Y-79279198D01*
X106572500Y-79302824D01*
X106572500Y-79697175D01*
X106575241Y-79720802D01*
X106575242Y-79720804D01*
X106596264Y-79768414D01*
X106605336Y-79837692D01*
X106575513Y-79900877D01*
X106516263Y-79937908D01*
X106482830Y-79942500D01*
X103152170Y-79942500D01*
X103085131Y-79922815D01*
X103039376Y-79870011D01*
X103029432Y-79800853D01*
X103038736Y-79768414D01*
X103059757Y-79720804D01*
X103059758Y-79720802D01*
X103059758Y-79720801D01*
X103059759Y-79720799D01*
X103062500Y-79697174D01*
X103062500Y-79302826D01*
X103059759Y-79279201D01*
X103059757Y-79279197D01*
X103017100Y-79182588D01*
X103017099Y-79182587D01*
X103017098Y-79182584D01*
X102942416Y-79107902D01*
X102942415Y-79107901D01*
X102942414Y-79107900D01*
X102932938Y-79101409D01*
X102935166Y-79098155D01*
X102898018Y-79066760D01*
X102877509Y-78999968D01*
X102877500Y-78998440D01*
X102877500Y-77901500D01*
X102897185Y-77834461D01*
X102949989Y-77788706D01*
X103001500Y-77777500D01*
X103762559Y-77777500D01*
X103769957Y-77776028D01*
X103799748Y-77770102D01*
X103841922Y-77741922D01*
X103870102Y-77699748D01*
X103877500Y-77662558D01*
X103877500Y-77137442D01*
X103870102Y-77100252D01*
X103846854Y-77065459D01*
X103841922Y-77058077D01*
X103799749Y-77029898D01*
X103758120Y-77021617D01*
X103696210Y-76989230D01*
X103661637Y-76928514D01*
X103665378Y-76858744D01*
X103706246Y-76802073D01*
X103758120Y-76778383D01*
X103770635Y-76775893D01*
X103799748Y-76770102D01*
X103799748Y-76770101D01*
X103799751Y-76770101D01*
X103811033Y-76765428D01*
X103812093Y-76767987D01*
X103861497Y-76752520D01*
X103863707Y-76752500D01*
X105636293Y-76752500D01*
X105688029Y-76767691D01*
G37*
%TD.AperFunction*%
%TA.AperFunction,Conductor*%
G36*
X110188029Y-76767691D02*
G01*
X110188967Y-76765428D01*
X110200248Y-76770101D01*
X110200251Y-76770101D01*
X110200252Y-76770102D01*
X110219092Y-76773849D01*
X110237441Y-76777500D01*
X110998500Y-76777500D01*
X111065539Y-76797185D01*
X111111294Y-76849989D01*
X111122499Y-76901499D01*
X111122499Y-77100250D01*
X111122499Y-77277993D01*
X111119860Y-77303437D01*
X111117607Y-77314181D01*
X111117607Y-77314183D01*
X111117607Y-77314184D01*
X111122023Y-77349616D01*
X111122499Y-77357289D01*
X111122499Y-79146013D01*
X111111933Y-79196099D01*
X111075242Y-79279195D01*
X111075241Y-79279197D01*
X111072500Y-79302824D01*
X111072500Y-79697175D01*
X111075241Y-79720802D01*
X111075242Y-79720804D01*
X111096264Y-79768414D01*
X111105336Y-79837692D01*
X111075513Y-79900877D01*
X111016263Y-79937908D01*
X110982830Y-79942500D01*
X107652170Y-79942500D01*
X107585131Y-79922815D01*
X107539376Y-79870011D01*
X107529432Y-79800853D01*
X107538736Y-79768414D01*
X107559757Y-79720804D01*
X107559758Y-79720802D01*
X107559758Y-79720801D01*
X107559759Y-79720799D01*
X107562500Y-79697174D01*
X107562500Y-79302826D01*
X107559759Y-79279201D01*
X107559757Y-79279197D01*
X107517100Y-79182588D01*
X107517099Y-79182587D01*
X107517098Y-79182584D01*
X107442416Y-79107902D01*
X107442415Y-79107901D01*
X107442414Y-79107900D01*
X107432938Y-79101409D01*
X107435166Y-79098155D01*
X107398018Y-79066760D01*
X107377509Y-78999968D01*
X107377500Y-78998440D01*
X107377500Y-77901500D01*
X107397185Y-77834461D01*
X107449989Y-77788706D01*
X107501500Y-77777500D01*
X108262559Y-77777500D01*
X108269957Y-77776028D01*
X108299748Y-77770102D01*
X108341922Y-77741922D01*
X108370102Y-77699748D01*
X108377500Y-77662558D01*
X108377500Y-77137442D01*
X108370102Y-77100252D01*
X108346854Y-77065459D01*
X108341922Y-77058077D01*
X108299749Y-77029898D01*
X108258120Y-77021617D01*
X108196210Y-76989230D01*
X108161637Y-76928514D01*
X108165378Y-76858744D01*
X108206246Y-76802073D01*
X108258120Y-76778383D01*
X108270635Y-76775893D01*
X108299748Y-76770102D01*
X108299748Y-76770101D01*
X108299751Y-76770101D01*
X108311033Y-76765428D01*
X108312093Y-76767987D01*
X108361497Y-76752520D01*
X108363707Y-76752500D01*
X110136293Y-76752500D01*
X110188029Y-76767691D01*
G37*
%TD.AperFunction*%
%TA.AperFunction,Conductor*%
G36*
X114688029Y-76767691D02*
G01*
X114688967Y-76765428D01*
X114700248Y-76770101D01*
X114700251Y-76770101D01*
X114700252Y-76770102D01*
X114719092Y-76773849D01*
X114737441Y-76777500D01*
X115498500Y-76777500D01*
X115565539Y-76797185D01*
X115611294Y-76849989D01*
X115622500Y-76901500D01*
X115622500Y-77277988D01*
X115619862Y-77303425D01*
X115617607Y-77314184D01*
X115622023Y-77349616D01*
X115622499Y-77357289D01*
X115622499Y-79146013D01*
X115611933Y-79196099D01*
X115575242Y-79279195D01*
X115575241Y-79279197D01*
X115572500Y-79302824D01*
X115572500Y-79697175D01*
X115575241Y-79720802D01*
X115575242Y-79720804D01*
X115596264Y-79768414D01*
X115605336Y-79837692D01*
X115575513Y-79900877D01*
X115516263Y-79937908D01*
X115482830Y-79942500D01*
X112152170Y-79942500D01*
X112085131Y-79922815D01*
X112039376Y-79870011D01*
X112029432Y-79800853D01*
X112038736Y-79768414D01*
X112059757Y-79720804D01*
X112059758Y-79720802D01*
X112059758Y-79720801D01*
X112059759Y-79720799D01*
X112062500Y-79697174D01*
X112062500Y-79302826D01*
X112059759Y-79279201D01*
X112059757Y-79279197D01*
X112017100Y-79182588D01*
X112017099Y-79182587D01*
X112017098Y-79182584D01*
X111942416Y-79107902D01*
X111942415Y-79107901D01*
X111942414Y-79107900D01*
X111932938Y-79101409D01*
X111935166Y-79098155D01*
X111898018Y-79066760D01*
X111877509Y-78999968D01*
X111877500Y-78998440D01*
X111877500Y-77901500D01*
X111897185Y-77834461D01*
X111949989Y-77788706D01*
X112001500Y-77777500D01*
X112762559Y-77777500D01*
X112769957Y-77776028D01*
X112799748Y-77770102D01*
X112841922Y-77741922D01*
X112870102Y-77699748D01*
X112877500Y-77662558D01*
X112877500Y-77137442D01*
X112870102Y-77100252D01*
X112846854Y-77065459D01*
X112841922Y-77058077D01*
X112799749Y-77029898D01*
X112758120Y-77021617D01*
X112696210Y-76989230D01*
X112661637Y-76928514D01*
X112665378Y-76858744D01*
X112706246Y-76802073D01*
X112758120Y-76778383D01*
X112770635Y-76775893D01*
X112799748Y-76770102D01*
X112799748Y-76770101D01*
X112799751Y-76770101D01*
X112811033Y-76765428D01*
X112812093Y-76767987D01*
X112861497Y-76752520D01*
X112863707Y-76752500D01*
X114636293Y-76752500D01*
X114688029Y-76767691D01*
G37*
%TD.AperFunction*%
%TA.AperFunction,Conductor*%
G36*
X119188029Y-76767691D02*
G01*
X119188967Y-76765428D01*
X119200248Y-76770101D01*
X119200251Y-76770101D01*
X119200252Y-76770102D01*
X119219092Y-76773849D01*
X119237441Y-76777500D01*
X119998500Y-76777500D01*
X120065539Y-76797185D01*
X120111294Y-76849989D01*
X120122499Y-76901499D01*
X120122499Y-77100250D01*
X120122499Y-77277991D01*
X120119860Y-77303438D01*
X120117606Y-77314183D01*
X120122023Y-77349616D01*
X120122500Y-77357292D01*
X120122500Y-79146013D01*
X120111934Y-79196100D01*
X120075241Y-79279198D01*
X120072500Y-79302824D01*
X120072500Y-79697175D01*
X120075241Y-79720802D01*
X120075242Y-79720804D01*
X120096264Y-79768414D01*
X120105336Y-79837692D01*
X120075513Y-79900877D01*
X120016263Y-79937908D01*
X119982830Y-79942500D01*
X116652170Y-79942500D01*
X116585131Y-79922815D01*
X116539376Y-79870011D01*
X116529432Y-79800853D01*
X116538736Y-79768414D01*
X116559757Y-79720804D01*
X116559758Y-79720802D01*
X116559758Y-79720801D01*
X116559759Y-79720799D01*
X116562500Y-79697174D01*
X116562500Y-79302826D01*
X116559759Y-79279201D01*
X116559757Y-79279197D01*
X116517100Y-79182588D01*
X116517099Y-79182587D01*
X116517098Y-79182584D01*
X116442416Y-79107902D01*
X116442415Y-79107901D01*
X116442414Y-79107900D01*
X116432938Y-79101409D01*
X116435166Y-79098155D01*
X116398018Y-79066760D01*
X116377509Y-78999968D01*
X116377500Y-78998440D01*
X116377500Y-77901500D01*
X116397185Y-77834461D01*
X116449989Y-77788706D01*
X116501500Y-77777500D01*
X117262559Y-77777500D01*
X117269957Y-77776028D01*
X117299748Y-77770102D01*
X117341922Y-77741922D01*
X117370102Y-77699748D01*
X117377500Y-77662558D01*
X117377500Y-77137442D01*
X117370102Y-77100252D01*
X117346854Y-77065459D01*
X117341922Y-77058077D01*
X117299749Y-77029898D01*
X117258120Y-77021617D01*
X117196210Y-76989230D01*
X117161637Y-76928514D01*
X117165378Y-76858744D01*
X117206246Y-76802073D01*
X117258120Y-76778383D01*
X117270635Y-76775893D01*
X117299748Y-76770102D01*
X117299748Y-76770101D01*
X117299751Y-76770101D01*
X117311033Y-76765428D01*
X117312093Y-76767987D01*
X117361497Y-76752520D01*
X117363707Y-76752500D01*
X119136293Y-76752500D01*
X119188029Y-76767691D01*
G37*
%TD.AperFunction*%
%TA.AperFunction,Conductor*%
G36*
X123688029Y-76767691D02*
G01*
X123688967Y-76765428D01*
X123700248Y-76770101D01*
X123700251Y-76770101D01*
X123700252Y-76770102D01*
X123719092Y-76773849D01*
X123737441Y-76777500D01*
X124498500Y-76777500D01*
X124565539Y-76797185D01*
X124611294Y-76849989D01*
X124622500Y-76901500D01*
X124622500Y-77277987D01*
X124619861Y-77303432D01*
X124619860Y-77303438D01*
X124617606Y-77314184D01*
X124622023Y-77349616D01*
X124622500Y-77357292D01*
X124622500Y-79146013D01*
X124611934Y-79196100D01*
X124575241Y-79279198D01*
X124572500Y-79302824D01*
X124572500Y-79697175D01*
X124575241Y-79720802D01*
X124575242Y-79720804D01*
X124596264Y-79768414D01*
X124605336Y-79837692D01*
X124575513Y-79900877D01*
X124516263Y-79937908D01*
X124482830Y-79942500D01*
X121152170Y-79942500D01*
X121085131Y-79922815D01*
X121039376Y-79870011D01*
X121029432Y-79800853D01*
X121038736Y-79768414D01*
X121059757Y-79720804D01*
X121059758Y-79720802D01*
X121059758Y-79720801D01*
X121059759Y-79720799D01*
X121062500Y-79697174D01*
X121062500Y-79302826D01*
X121059759Y-79279201D01*
X121059757Y-79279197D01*
X121017100Y-79182588D01*
X121017099Y-79182587D01*
X121017098Y-79182584D01*
X120942416Y-79107902D01*
X120942415Y-79107901D01*
X120942414Y-79107900D01*
X120932938Y-79101409D01*
X120935166Y-79098155D01*
X120898018Y-79066760D01*
X120877509Y-78999968D01*
X120877500Y-78998440D01*
X120877500Y-77901500D01*
X120897185Y-77834461D01*
X120949989Y-77788706D01*
X121001500Y-77777500D01*
X121762559Y-77777500D01*
X121769957Y-77776028D01*
X121799748Y-77770102D01*
X121841922Y-77741922D01*
X121870102Y-77699748D01*
X121877500Y-77662558D01*
X121877500Y-77137442D01*
X121870102Y-77100252D01*
X121846854Y-77065459D01*
X121841922Y-77058077D01*
X121799749Y-77029898D01*
X121758120Y-77021617D01*
X121696210Y-76989230D01*
X121661637Y-76928514D01*
X121665378Y-76858744D01*
X121706246Y-76802073D01*
X121758120Y-76778383D01*
X121770635Y-76775893D01*
X121799748Y-76770102D01*
X121799748Y-76770101D01*
X121799751Y-76770101D01*
X121811033Y-76765428D01*
X121812093Y-76767987D01*
X121861497Y-76752520D01*
X121863707Y-76752500D01*
X123636293Y-76752500D01*
X123688029Y-76767691D01*
G37*
%TD.AperFunction*%
%TA.AperFunction,Conductor*%
G36*
X128188029Y-76767691D02*
G01*
X128188967Y-76765428D01*
X128200248Y-76770101D01*
X128200251Y-76770101D01*
X128200252Y-76770102D01*
X128219092Y-76773849D01*
X128237441Y-76777500D01*
X128998500Y-76777500D01*
X129065539Y-76797185D01*
X129111294Y-76849989D01*
X129122499Y-76901499D01*
X129122499Y-77100250D01*
X129122499Y-77277990D01*
X129119861Y-77303431D01*
X129117607Y-77314183D01*
X129122023Y-77349616D01*
X129122499Y-77357290D01*
X129122499Y-77367988D01*
X129119862Y-77393426D01*
X129117607Y-77404184D01*
X129122024Y-77439624D01*
X129122500Y-77447292D01*
X129122500Y-78646012D01*
X129111934Y-78696099D01*
X129075241Y-78779198D01*
X129072500Y-78802824D01*
X129072500Y-79092271D01*
X129052815Y-79159310D01*
X129036181Y-79179952D01*
X128629953Y-79586181D01*
X128568630Y-79619666D01*
X128542272Y-79622500D01*
X128052011Y-79622500D01*
X128026566Y-79619861D01*
X128015816Y-79617607D01*
X128015813Y-79617607D01*
X127980384Y-79622023D01*
X127972708Y-79622500D01*
X127968719Y-79622500D01*
X127951349Y-79625398D01*
X127945559Y-79626364D01*
X127890791Y-79633191D01*
X127883234Y-79635441D01*
X127875730Y-79638017D01*
X127827192Y-79664284D01*
X127777610Y-79688523D01*
X127771172Y-79693119D01*
X127764931Y-79697977D01*
X127748770Y-79715532D01*
X127727554Y-79738579D01*
X127559951Y-79906182D01*
X127498630Y-79939666D01*
X127472272Y-79942500D01*
X125652170Y-79942500D01*
X125585131Y-79922815D01*
X125539376Y-79870011D01*
X125529432Y-79800853D01*
X125538736Y-79768414D01*
X125559757Y-79720804D01*
X125559758Y-79720802D01*
X125559758Y-79720801D01*
X125559759Y-79720799D01*
X125562500Y-79697174D01*
X125562500Y-79302826D01*
X125559759Y-79279201D01*
X125559757Y-79279197D01*
X125517100Y-79182588D01*
X125517099Y-79182587D01*
X125517098Y-79182584D01*
X125442416Y-79107902D01*
X125442415Y-79107901D01*
X125442414Y-79107900D01*
X125432938Y-79101409D01*
X125435167Y-79098153D01*
X125398034Y-79066785D01*
X125377509Y-78999998D01*
X125377500Y-78998595D01*
X125377500Y-77901499D01*
X125397185Y-77834460D01*
X125449989Y-77788706D01*
X125501500Y-77777500D01*
X126262559Y-77777500D01*
X126269957Y-77776028D01*
X126299748Y-77770102D01*
X126341922Y-77741922D01*
X126370102Y-77699748D01*
X126377500Y-77662558D01*
X126377500Y-77137442D01*
X126370102Y-77100252D01*
X126346854Y-77065459D01*
X126341922Y-77058077D01*
X126299749Y-77029898D01*
X126258120Y-77021617D01*
X126196210Y-76989230D01*
X126161637Y-76928514D01*
X126165378Y-76858744D01*
X126206246Y-76802073D01*
X126258120Y-76778383D01*
X126270635Y-76775893D01*
X126299748Y-76770102D01*
X126299748Y-76770101D01*
X126299751Y-76770101D01*
X126311033Y-76765428D01*
X126312093Y-76767987D01*
X126361497Y-76752520D01*
X126363707Y-76752500D01*
X128136293Y-76752500D01*
X128188029Y-76767691D01*
G37*
%TD.AperFunction*%
%TA.AperFunction,Conductor*%
G36*
X145942539Y-69020185D02*
G01*
X145988294Y-69072989D01*
X145999500Y-69124500D01*
X145999500Y-83875500D01*
X145979815Y-83942539D01*
X145927011Y-83988294D01*
X145875500Y-83999500D01*
X46124500Y-83999500D01*
X46057461Y-83979815D01*
X46011706Y-83927011D01*
X46000500Y-83875500D01*
X46000500Y-82000000D01*
X59644341Y-82000000D01*
X59664936Y-82235403D01*
X59664938Y-82235413D01*
X59726094Y-82463655D01*
X59726096Y-82463659D01*
X59726097Y-82463663D01*
X59776031Y-82570745D01*
X59825964Y-82677828D01*
X59825965Y-82677830D01*
X59961505Y-82871402D01*
X60128597Y-83038494D01*
X60322169Y-83174034D01*
X60322171Y-83174035D01*
X60536337Y-83273903D01*
X60764592Y-83335063D01*
X60941034Y-83350500D01*
X61058966Y-83350500D01*
X61235408Y-83335063D01*
X61463663Y-83273903D01*
X61677829Y-83174035D01*
X61871401Y-83038495D01*
X62038495Y-82871401D01*
X62174035Y-82677830D01*
X62273903Y-82463663D01*
X62335063Y-82235408D01*
X62355659Y-82000000D01*
X128644341Y-82000000D01*
X128664936Y-82235403D01*
X128664938Y-82235413D01*
X128726094Y-82463655D01*
X128726096Y-82463659D01*
X128726097Y-82463663D01*
X128776031Y-82570745D01*
X128825964Y-82677828D01*
X128825965Y-82677830D01*
X128961505Y-82871402D01*
X129128597Y-83038494D01*
X129322169Y-83174034D01*
X129322171Y-83174035D01*
X129536337Y-83273903D01*
X129764592Y-83335063D01*
X129941034Y-83350500D01*
X130058966Y-83350500D01*
X130235408Y-83335063D01*
X130463663Y-83273903D01*
X130677829Y-83174035D01*
X130871401Y-83038495D01*
X131038495Y-82871401D01*
X131174035Y-82677830D01*
X131273903Y-82463663D01*
X131335063Y-82235408D01*
X131355659Y-82000000D01*
X131335063Y-81764592D01*
X131273903Y-81536337D01*
X131174035Y-81322171D01*
X131174034Y-81322169D01*
X131038494Y-81128597D01*
X130871402Y-80961505D01*
X130677830Y-80825965D01*
X130677828Y-80825964D01*
X130570745Y-80776031D01*
X130463663Y-80726097D01*
X130463659Y-80726096D01*
X130463655Y-80726094D01*
X130235413Y-80664938D01*
X130235403Y-80664936D01*
X130058966Y-80649500D01*
X129941034Y-80649500D01*
X129764596Y-80664936D01*
X129764586Y-80664938D01*
X129536344Y-80726094D01*
X129536335Y-80726098D01*
X129322171Y-80825964D01*
X129322169Y-80825965D01*
X129128597Y-80961505D01*
X128961506Y-81128597D01*
X128961501Y-81128604D01*
X128825967Y-81322165D01*
X128825965Y-81322169D01*
X128726098Y-81536335D01*
X128726094Y-81536344D01*
X128664938Y-81764586D01*
X128664936Y-81764596D01*
X128644341Y-81999999D01*
X128644341Y-82000000D01*
X62355659Y-82000000D01*
X62335063Y-81764592D01*
X62273903Y-81536337D01*
X62174035Y-81322171D01*
X62174034Y-81322169D01*
X62038494Y-81128597D01*
X61871402Y-80961505D01*
X61677830Y-80825965D01*
X61677828Y-80825964D01*
X61570745Y-80776030D01*
X61463663Y-80726097D01*
X61463659Y-80726096D01*
X61463655Y-80726094D01*
X61235413Y-80664938D01*
X61235403Y-80664936D01*
X61058966Y-80649500D01*
X60941034Y-80649500D01*
X60764596Y-80664936D01*
X60764586Y-80664938D01*
X60536344Y-80726094D01*
X60536335Y-80726098D01*
X60322171Y-80825964D01*
X60322169Y-80825965D01*
X60128597Y-80961505D01*
X59961506Y-81128597D01*
X59961501Y-81128604D01*
X59825967Y-81322165D01*
X59825965Y-81322169D01*
X59726098Y-81536335D01*
X59726094Y-81536344D01*
X59664938Y-81764586D01*
X59664936Y-81764596D01*
X59644341Y-81999999D01*
X59644341Y-82000000D01*
X46000500Y-82000000D01*
X46000500Y-80320000D01*
X56392770Y-80320000D01*
X56411643Y-80511626D01*
X56467538Y-80695884D01*
X56558302Y-80865692D01*
X56558306Y-80865699D01*
X56680458Y-81014541D01*
X56829300Y-81136693D01*
X56829307Y-81136697D01*
X56999115Y-81227461D01*
X56999117Y-81227462D01*
X57183376Y-81283357D01*
X57375000Y-81302230D01*
X57566624Y-81283357D01*
X57750883Y-81227462D01*
X57920698Y-81136694D01*
X58069541Y-81014541D01*
X58191694Y-80865698D01*
X58282462Y-80695883D01*
X58338357Y-80511624D01*
X58350775Y-80385532D01*
X58376935Y-80320746D01*
X58378272Y-80319799D01*
X58351201Y-80258204D01*
X58350775Y-80254465D01*
X58344673Y-80192506D01*
X58338357Y-80128376D01*
X58282462Y-79944117D01*
X58191694Y-79774302D01*
X58191693Y-79774300D01*
X58069541Y-79625458D01*
X57920699Y-79503306D01*
X57920692Y-79503302D01*
X57750884Y-79412538D01*
X57566626Y-79356643D01*
X57375000Y-79337770D01*
X57183373Y-79356643D01*
X56999115Y-79412538D01*
X56829307Y-79503302D01*
X56829300Y-79503306D01*
X56680458Y-79625458D01*
X56558306Y-79774300D01*
X56558302Y-79774307D01*
X56467538Y-79944115D01*
X56411643Y-80128373D01*
X56392770Y-80320000D01*
X46000500Y-80320000D01*
X46000500Y-73597844D01*
X56025000Y-73597844D01*
X56031401Y-73657372D01*
X56031403Y-73657379D01*
X56081645Y-73792086D01*
X56081649Y-73792093D01*
X56167809Y-73907187D01*
X56167812Y-73907190D01*
X56282906Y-73993350D01*
X56282913Y-73993354D01*
X56417620Y-74043596D01*
X56417627Y-74043598D01*
X56477155Y-74049999D01*
X56477172Y-74050000D01*
X57094578Y-74050000D01*
X57161617Y-74069685D01*
X57207372Y-74122489D01*
X57217316Y-74191647D01*
X57188291Y-74255203D01*
X57130574Y-74292660D01*
X56999115Y-74332538D01*
X56829307Y-74423302D01*
X56829300Y-74423306D01*
X56680458Y-74545458D01*
X56558306Y-74694300D01*
X56558302Y-74694307D01*
X56467538Y-74864115D01*
X56411643Y-75048373D01*
X56394395Y-75223500D01*
X56392770Y-75240000D01*
X56396218Y-75275011D01*
X56411643Y-75431626D01*
X56467538Y-75615884D01*
X56558302Y-75785692D01*
X56558306Y-75785699D01*
X56680458Y-75934541D01*
X56829300Y-76056693D01*
X56829307Y-76056697D01*
X56963668Y-76128514D01*
X56999117Y-76147462D01*
X57183376Y-76203357D01*
X57375000Y-76222230D01*
X57566624Y-76203357D01*
X57750883Y-76147462D01*
X57920698Y-76056694D01*
X58069541Y-75934541D01*
X58099667Y-75897832D01*
X58157411Y-75858500D01*
X58195518Y-75852500D01*
X60532048Y-75852500D01*
X60599087Y-75872185D01*
X60635150Y-75907609D01*
X60658077Y-75941922D01*
X60700250Y-75970101D01*
X60700252Y-75970102D01*
X60725975Y-75975219D01*
X60741879Y-75978383D01*
X60803790Y-76010770D01*
X60838362Y-76071487D01*
X60834621Y-76141256D01*
X60793753Y-76197927D01*
X60741879Y-76221617D01*
X60700249Y-76229898D01*
X60688967Y-76234572D01*
X60687906Y-76232012D01*
X60638503Y-76247480D01*
X60636293Y-76247500D01*
X58692082Y-76247500D01*
X58667890Y-76245117D01*
X58655001Y-76242553D01*
X58655000Y-76242553D01*
X58630130Y-76247500D01*
X58605579Y-76252383D01*
X58556477Y-76262150D01*
X58472958Y-76317956D01*
X58472957Y-76317957D01*
X58465651Y-76328891D01*
X58450233Y-76347676D01*
X57929621Y-76868288D01*
X57868298Y-76901773D01*
X57798606Y-76896789D01*
X57783490Y-76889967D01*
X57768250Y-76881820D01*
X57750882Y-76872537D01*
X57566626Y-76816643D01*
X57375000Y-76797770D01*
X57183373Y-76816643D01*
X56999115Y-76872538D01*
X56829307Y-76963302D01*
X56829300Y-76963306D01*
X56680458Y-77085458D01*
X56558306Y-77234300D01*
X56558302Y-77234307D01*
X56467538Y-77404115D01*
X56411643Y-77588373D01*
X56392770Y-77780000D01*
X56411643Y-77971626D01*
X56467538Y-78155884D01*
X56558302Y-78325692D01*
X56558306Y-78325699D01*
X56680458Y-78474541D01*
X56829300Y-78596693D01*
X56829307Y-78596697D01*
X56989991Y-78682584D01*
X56999117Y-78687462D01*
X57183376Y-78743357D01*
X57375000Y-78762230D01*
X57566624Y-78743357D01*
X57750883Y-78687462D01*
X57920698Y-78596694D01*
X58069541Y-78474541D01*
X58191694Y-78325698D01*
X58282462Y-78155883D01*
X58338357Y-77971624D01*
X58357230Y-77780000D01*
X58338357Y-77588376D01*
X58282462Y-77404117D01*
X58265033Y-77371511D01*
X58250792Y-77303109D01*
X58275792Y-77237865D01*
X58286711Y-77225377D01*
X58723270Y-76788819D01*
X58784593Y-76755334D01*
X58810951Y-76752500D01*
X60636293Y-76752500D01*
X60688029Y-76767691D01*
X60688967Y-76765428D01*
X60700248Y-76770101D01*
X60700251Y-76770101D01*
X60700252Y-76770102D01*
X60719092Y-76773849D01*
X60737441Y-76777500D01*
X61498500Y-76777500D01*
X61565539Y-76797185D01*
X61611294Y-76849989D01*
X61622500Y-76901500D01*
X61622500Y-77277987D01*
X61619861Y-77303432D01*
X61619860Y-77303438D01*
X61617606Y-77314184D01*
X61622023Y-77349616D01*
X61622500Y-77357292D01*
X61622500Y-78646012D01*
X61611934Y-78696099D01*
X61575241Y-78779198D01*
X61572500Y-78802824D01*
X61572500Y-79197175D01*
X61576316Y-79230062D01*
X61573632Y-79230373D01*
X61572526Y-79285802D01*
X61533586Y-79343815D01*
X61469464Y-79371566D01*
X61454270Y-79372500D01*
X59552011Y-79372500D01*
X59526566Y-79369861D01*
X59515816Y-79367607D01*
X59515813Y-79367607D01*
X59480383Y-79372023D01*
X59472707Y-79372500D01*
X59468719Y-79372500D01*
X59453287Y-79375074D01*
X59445570Y-79376362D01*
X59390792Y-79383190D01*
X59383246Y-79385437D01*
X59375731Y-79388017D01*
X59327191Y-79414285D01*
X59277611Y-79438523D01*
X59271182Y-79443113D01*
X59264925Y-79447983D01*
X59227544Y-79488590D01*
X58769843Y-79946289D01*
X58749990Y-79962412D01*
X58740794Y-79968420D01*
X58740789Y-79968425D01*
X58718855Y-79996603D01*
X58713778Y-80002354D01*
X58710956Y-80005177D01*
X58710946Y-80005189D01*
X58697303Y-80024295D01*
X58663406Y-80067846D01*
X58659651Y-80074785D01*
X58656165Y-80081915D01*
X58648433Y-80107885D01*
X58640076Y-80128791D01*
X58607612Y-80192505D01*
X58607612Y-80192506D01*
X58596651Y-80261711D01*
X58568563Y-80320958D01*
X58596006Y-80374581D01*
X58596651Y-80378289D01*
X58607611Y-80447490D01*
X58607612Y-80447493D01*
X58607613Y-80447494D01*
X58666216Y-80562508D01*
X58666218Y-80562510D01*
X58666220Y-80562513D01*
X58757486Y-80653779D01*
X58757488Y-80653780D01*
X58757492Y-80653784D01*
X58872506Y-80712387D01*
X58872507Y-80712387D01*
X58872509Y-80712388D01*
X58872508Y-80712388D01*
X58999998Y-80732580D01*
X59000000Y-80732580D01*
X59000002Y-80732580D01*
X59127491Y-80712388D01*
X59127492Y-80712387D01*
X59127494Y-80712387D01*
X59242508Y-80653784D01*
X59333784Y-80562508D01*
X59392387Y-80447494D01*
X59396625Y-80420729D01*
X59426554Y-80357596D01*
X59431397Y-80352466D01*
X59584279Y-80199586D01*
X59620048Y-80163818D01*
X59681372Y-80130334D01*
X59707729Y-80127500D01*
X62472273Y-80127500D01*
X62539312Y-80147185D01*
X62559953Y-80163818D01*
X62753730Y-80357596D01*
X62946289Y-80550155D01*
X62962413Y-80570010D01*
X62968424Y-80579209D01*
X62968425Y-80579210D01*
X62996597Y-80601137D01*
X63002362Y-80606228D01*
X63005185Y-80609052D01*
X63023349Y-80622020D01*
X63024294Y-80622695D01*
X63067845Y-80656592D01*
X63067847Y-80656592D01*
X63074817Y-80660365D01*
X63081906Y-80663830D01*
X63081909Y-80663831D01*
X63081911Y-80663832D01*
X63115343Y-80673784D01*
X63134805Y-80679579D01*
X63149294Y-80684553D01*
X63187006Y-80697500D01*
X63187007Y-80697500D01*
X63194799Y-80698800D01*
X63202657Y-80699780D01*
X63202660Y-80699781D01*
X63202662Y-80699780D01*
X63202663Y-80699781D01*
X63246272Y-80697977D01*
X63257804Y-80697500D01*
X66437006Y-80697500D01*
X66481821Y-80697500D01*
X66486936Y-80697711D01*
X66511910Y-80699781D01*
X66531603Y-80701413D01*
X66531603Y-80701412D01*
X66531605Y-80701413D01*
X66532075Y-80701293D01*
X66562514Y-80697500D01*
X70937006Y-80697500D01*
X70981821Y-80697500D01*
X70986936Y-80697711D01*
X71011910Y-80699781D01*
X71031603Y-80701413D01*
X71031603Y-80701412D01*
X71031605Y-80701413D01*
X71032075Y-80701293D01*
X71062514Y-80697500D01*
X75437006Y-80697500D01*
X75481821Y-80697500D01*
X75486936Y-80697711D01*
X75511910Y-80699781D01*
X75531603Y-80701413D01*
X75531603Y-80701412D01*
X75531605Y-80701413D01*
X75532075Y-80701293D01*
X75562514Y-80697500D01*
X79937006Y-80697500D01*
X79981821Y-80697500D01*
X79986936Y-80697711D01*
X80011910Y-80699781D01*
X80031603Y-80701413D01*
X80031603Y-80701412D01*
X80031605Y-80701413D01*
X80032075Y-80701293D01*
X80062514Y-80697500D01*
X84437006Y-80697500D01*
X84481821Y-80697500D01*
X84486936Y-80697711D01*
X84511910Y-80699781D01*
X84531603Y-80701413D01*
X84531603Y-80701412D01*
X84531605Y-80701413D01*
X84532075Y-80701293D01*
X84562514Y-80697500D01*
X88937006Y-80697500D01*
X88981821Y-80697500D01*
X88986936Y-80697711D01*
X89011910Y-80699781D01*
X89031603Y-80701413D01*
X89031603Y-80701412D01*
X89031605Y-80701413D01*
X89032075Y-80701293D01*
X89062514Y-80697500D01*
X93437006Y-80697500D01*
X93481821Y-80697500D01*
X93486936Y-80697711D01*
X93511910Y-80699781D01*
X93531603Y-80701413D01*
X93531603Y-80701412D01*
X93531605Y-80701413D01*
X93532075Y-80701293D01*
X93562514Y-80697500D01*
X97937006Y-80697500D01*
X97947989Y-80697500D01*
X97973434Y-80700139D01*
X97984184Y-80702393D01*
X98003864Y-80699939D01*
X98019617Y-80697977D01*
X98027293Y-80697500D01*
X102437006Y-80697500D01*
X102481821Y-80697500D01*
X102486936Y-80697711D01*
X102511910Y-80699781D01*
X102531603Y-80701413D01*
X102531603Y-80701412D01*
X102531605Y-80701413D01*
X102532075Y-80701293D01*
X102562514Y-80697500D01*
X106937006Y-80697500D01*
X106981821Y-80697500D01*
X106986936Y-80697711D01*
X107011910Y-80699781D01*
X107031603Y-80701413D01*
X107031603Y-80701412D01*
X107031605Y-80701413D01*
X107032075Y-80701293D01*
X107062514Y-80697500D01*
X111437006Y-80697500D01*
X111481821Y-80697500D01*
X111486936Y-80697711D01*
X111511910Y-80699781D01*
X111531603Y-80701413D01*
X111531603Y-80701412D01*
X111531605Y-80701413D01*
X111532075Y-80701293D01*
X111562514Y-80697500D01*
X115937006Y-80697500D01*
X115981821Y-80697500D01*
X115986936Y-80697711D01*
X116011910Y-80699781D01*
X116031603Y-80701413D01*
X116031603Y-80701412D01*
X116031605Y-80701413D01*
X116032075Y-80701293D01*
X116062514Y-80697500D01*
X120437006Y-80697500D01*
X120481821Y-80697500D01*
X120486936Y-80697711D01*
X120511910Y-80699781D01*
X120531603Y-80701413D01*
X120531603Y-80701412D01*
X120531605Y-80701413D01*
X120532075Y-80701293D01*
X120562514Y-80697500D01*
X124937006Y-80697500D01*
X124981821Y-80697500D01*
X124986936Y-80697711D01*
X125011910Y-80699781D01*
X125031603Y-80701413D01*
X125031603Y-80701412D01*
X125031605Y-80701413D01*
X125032075Y-80701293D01*
X125062514Y-80697500D01*
X127627989Y-80697500D01*
X127653434Y-80700139D01*
X127664184Y-80702393D01*
X127683864Y-80699939D01*
X127699617Y-80697977D01*
X127707293Y-80697500D01*
X127711278Y-80697500D01*
X127711281Y-80697500D01*
X127734428Y-80693637D01*
X127789203Y-80686810D01*
X127789209Y-80686806D01*
X127796780Y-80684553D01*
X127804265Y-80681983D01*
X127804269Y-80681983D01*
X127837812Y-80663830D01*
X127852807Y-80655715D01*
X127865519Y-80649500D01*
X127902389Y-80631476D01*
X127902391Y-80631473D01*
X127908823Y-80626882D01*
X127915065Y-80622023D01*
X127915071Y-80622020D01*
X127952455Y-80581409D01*
X128120048Y-80413817D01*
X128181371Y-80380334D01*
X128207728Y-80377500D01*
X128697989Y-80377500D01*
X128723434Y-80380139D01*
X128734184Y-80382393D01*
X128753864Y-80379939D01*
X128769617Y-80377977D01*
X128777293Y-80377500D01*
X128781278Y-80377500D01*
X128781281Y-80377500D01*
X128804428Y-80373637D01*
X128859203Y-80366810D01*
X128859209Y-80366806D01*
X128866780Y-80364553D01*
X128874265Y-80361983D01*
X128874269Y-80361983D01*
X128898538Y-80348848D01*
X128922807Y-80335715D01*
X128935203Y-80329654D01*
X128972389Y-80311476D01*
X128972391Y-80311473D01*
X128978823Y-80306882D01*
X128985065Y-80302023D01*
X128985071Y-80302020D01*
X129022456Y-80261408D01*
X129797657Y-79486207D01*
X129817516Y-79470082D01*
X129826707Y-79464077D01*
X129826706Y-79464077D01*
X129826709Y-79464076D01*
X129832289Y-79456905D01*
X129880058Y-79419632D01*
X129951548Y-79388066D01*
X130001634Y-79377500D01*
X133117273Y-79377500D01*
X133184312Y-79397185D01*
X133204954Y-79413819D01*
X133664450Y-79873316D01*
X133697935Y-79934639D01*
X133695430Y-79996991D01*
X133661643Y-80108375D01*
X133656183Y-80163818D01*
X133642770Y-80300000D01*
X133646288Y-80335715D01*
X133661643Y-80491626D01*
X133717538Y-80675884D01*
X133808302Y-80845692D01*
X133808306Y-80845699D01*
X133930458Y-80994541D01*
X134079300Y-81116693D01*
X134079307Y-81116697D01*
X134249115Y-81207461D01*
X134249117Y-81207462D01*
X134433376Y-81263357D01*
X134625000Y-81282230D01*
X134816624Y-81263357D01*
X135000883Y-81207462D01*
X135170698Y-81116694D01*
X135319541Y-80994541D01*
X135441694Y-80845698D01*
X135532462Y-80675883D01*
X135588357Y-80491624D01*
X135607230Y-80300000D01*
X135588357Y-80108376D01*
X135532462Y-79924117D01*
X135520040Y-79900877D01*
X135441697Y-79754307D01*
X135441693Y-79754300D01*
X135319541Y-79605458D01*
X135170699Y-79483306D01*
X135170692Y-79483302D01*
X135000884Y-79392538D01*
X134816626Y-79336643D01*
X134625000Y-79317770D01*
X134433375Y-79336643D01*
X134321991Y-79370430D01*
X134252124Y-79371053D01*
X134198316Y-79339450D01*
X133628709Y-78769843D01*
X133612583Y-78749986D01*
X133606576Y-78740791D01*
X133578397Y-78718858D01*
X133572635Y-78713769D01*
X133569813Y-78710947D01*
X133569811Y-78710946D01*
X133550705Y-78697304D01*
X133512364Y-78667462D01*
X133507157Y-78663409D01*
X133500194Y-78659642D01*
X133493091Y-78656169D01*
X133493089Y-78656168D01*
X133480953Y-78652554D01*
X133440193Y-78640419D01*
X133387995Y-78622499D01*
X133380199Y-78621198D01*
X133372336Y-78620218D01*
X133319086Y-78622421D01*
X133317196Y-78622500D01*
X130001635Y-78622500D01*
X129951274Y-78611813D01*
X129951139Y-78611753D01*
X129897872Y-78566537D01*
X129877506Y-78499702D01*
X129877500Y-78498440D01*
X129877500Y-77901500D01*
X129897185Y-77834461D01*
X129949989Y-77788706D01*
X130001500Y-77777500D01*
X130762559Y-77777500D01*
X130769957Y-77776028D01*
X130799748Y-77770102D01*
X130841922Y-77741922D01*
X130870102Y-77699748D01*
X130877500Y-77662558D01*
X130877500Y-77137442D01*
X130870102Y-77100252D01*
X130846854Y-77065459D01*
X130841922Y-77058077D01*
X130799749Y-77029898D01*
X130758120Y-77021617D01*
X130696210Y-76989230D01*
X130661637Y-76928514D01*
X130665378Y-76858744D01*
X130706246Y-76802073D01*
X130758120Y-76778383D01*
X130770635Y-76775893D01*
X130799748Y-76770102D01*
X130799748Y-76770101D01*
X130799751Y-76770101D01*
X130811033Y-76765428D01*
X130812093Y-76767987D01*
X130861497Y-76752520D01*
X130863707Y-76752500D01*
X133209049Y-76752500D01*
X133276088Y-76772185D01*
X133296730Y-76788819D01*
X133713288Y-77205377D01*
X133746773Y-77266700D01*
X133741789Y-77336392D01*
X133734967Y-77351509D01*
X133717536Y-77384121D01*
X133661643Y-77568373D01*
X133642770Y-77760000D01*
X133661643Y-77951626D01*
X133717538Y-78135884D01*
X133808302Y-78305692D01*
X133808306Y-78305699D01*
X133930458Y-78454541D01*
X134079300Y-78576693D01*
X134079307Y-78576697D01*
X134162563Y-78621198D01*
X134249117Y-78667462D01*
X134433376Y-78723357D01*
X134625000Y-78742230D01*
X134816624Y-78723357D01*
X135000883Y-78667462D01*
X135170698Y-78576694D01*
X135319541Y-78454541D01*
X135441694Y-78305698D01*
X135532462Y-78135883D01*
X135588357Y-77951624D01*
X135607230Y-77760000D01*
X135588357Y-77568376D01*
X135532462Y-77384117D01*
X135530714Y-77380847D01*
X135441697Y-77214307D01*
X135441693Y-77214300D01*
X135319541Y-77065458D01*
X135170699Y-76943306D01*
X135170692Y-76943302D01*
X135000884Y-76852538D01*
X134816626Y-76796643D01*
X134625000Y-76777770D01*
X134433373Y-76796643D01*
X134249121Y-76852536D01*
X134216509Y-76869967D01*
X134148105Y-76884207D01*
X134082862Y-76859205D01*
X134070377Y-76848288D01*
X133569769Y-76347680D01*
X133554348Y-76328890D01*
X133547043Y-76317957D01*
X133513588Y-76295603D01*
X133463521Y-76262149D01*
X133443051Y-76258078D01*
X133365001Y-76242552D01*
X133365000Y-76242552D01*
X133352106Y-76245117D01*
X133327913Y-76247500D01*
X130863707Y-76247500D01*
X130811970Y-76232308D01*
X130811033Y-76234572D01*
X130799751Y-76229898D01*
X130758120Y-76221617D01*
X130696210Y-76189230D01*
X130661637Y-76128514D01*
X130665378Y-76058744D01*
X130706246Y-76002073D01*
X130758120Y-75978383D01*
X130762558Y-75977500D01*
X130799748Y-75970102D01*
X130841922Y-75941922D01*
X130860218Y-75914541D01*
X130864850Y-75907609D01*
X130918463Y-75862804D01*
X130967952Y-75852500D01*
X133820895Y-75852500D01*
X133887934Y-75872185D01*
X133916748Y-75897835D01*
X133930458Y-75914541D01*
X134079300Y-76036693D01*
X134079307Y-76036697D01*
X134144395Y-76071487D01*
X134249117Y-76127462D01*
X134433376Y-76183357D01*
X134625000Y-76202230D01*
X134816624Y-76183357D01*
X135000883Y-76127462D01*
X135170698Y-76036694D01*
X135319541Y-75914541D01*
X135441694Y-75765698D01*
X135532462Y-75595883D01*
X135588357Y-75411624D01*
X135607230Y-75220000D01*
X135588357Y-75028376D01*
X135532462Y-74844117D01*
X135452387Y-74694307D01*
X135441697Y-74674307D01*
X135441693Y-74674300D01*
X135319541Y-74525458D01*
X135170699Y-74403306D01*
X135170692Y-74403302D01*
X135000884Y-74312538D01*
X134869426Y-74272660D01*
X134810988Y-74234363D01*
X134782531Y-74170550D01*
X134793092Y-74101483D01*
X134839317Y-74049090D01*
X134905422Y-74030000D01*
X135522828Y-74030000D01*
X135522844Y-74029999D01*
X135582372Y-74023598D01*
X135582379Y-74023596D01*
X135717086Y-73973354D01*
X135717093Y-73973350D01*
X135832187Y-73887190D01*
X135832190Y-73887187D01*
X135918350Y-73772093D01*
X135918354Y-73772086D01*
X135968596Y-73637379D01*
X135968598Y-73637372D01*
X135974999Y-73577844D01*
X135975000Y-73577827D01*
X135975000Y-72930000D01*
X135238347Y-72930000D01*
X135171308Y-72910315D01*
X135125553Y-72857511D01*
X135115609Y-72788353D01*
X135119369Y-72771067D01*
X135125000Y-72751888D01*
X135125000Y-72608111D01*
X135119369Y-72588933D01*
X135119370Y-72519064D01*
X135157145Y-72460286D01*
X135220701Y-72431262D01*
X135238347Y-72430000D01*
X135975000Y-72430000D01*
X135975000Y-71782172D01*
X135974999Y-71782155D01*
X135968598Y-71722627D01*
X135968596Y-71722620D01*
X135918354Y-71587913D01*
X135918350Y-71587906D01*
X135832190Y-71472812D01*
X135832187Y-71472809D01*
X135717093Y-71386649D01*
X135717086Y-71386645D01*
X135582379Y-71336403D01*
X135582372Y-71336401D01*
X135522844Y-71330000D01*
X134875000Y-71330000D01*
X134875000Y-72067698D01*
X134855315Y-72134737D01*
X134802511Y-72180492D01*
X134733355Y-72190436D01*
X134660766Y-72180000D01*
X134660763Y-72180000D01*
X134589237Y-72180000D01*
X134589233Y-72180000D01*
X134516645Y-72190436D01*
X134447487Y-72180492D01*
X134394684Y-72134736D01*
X134375000Y-72067698D01*
X134375000Y-71330000D01*
X133727155Y-71330000D01*
X133667627Y-71336401D01*
X133667620Y-71336403D01*
X133532913Y-71386645D01*
X133532906Y-71386649D01*
X133417812Y-71472809D01*
X133417809Y-71472812D01*
X133331649Y-71587906D01*
X133331645Y-71587913D01*
X133281403Y-71722620D01*
X133281401Y-71722627D01*
X133275000Y-71782155D01*
X133275000Y-72430000D01*
X134011653Y-72430000D01*
X134078692Y-72449685D01*
X134124447Y-72502489D01*
X134134391Y-72571647D01*
X134130631Y-72588933D01*
X134125000Y-72608111D01*
X134125000Y-72751888D01*
X134130631Y-72771067D01*
X134130630Y-72840936D01*
X134092855Y-72899714D01*
X134029299Y-72928738D01*
X134011653Y-72930000D01*
X133275000Y-72930000D01*
X133275000Y-73577844D01*
X133281401Y-73637372D01*
X133281403Y-73637379D01*
X133331645Y-73772086D01*
X133331649Y-73772093D01*
X133417809Y-73887187D01*
X133417812Y-73887190D01*
X133532906Y-73973350D01*
X133532913Y-73973354D01*
X133667620Y-74023596D01*
X133667627Y-74023598D01*
X133727155Y-74029999D01*
X133727172Y-74030000D01*
X134344578Y-74030000D01*
X134411617Y-74049685D01*
X134457372Y-74102489D01*
X134467316Y-74171647D01*
X134438291Y-74235203D01*
X134380574Y-74272660D01*
X134249115Y-74312538D01*
X134079307Y-74403302D01*
X134079300Y-74403306D01*
X133930458Y-74525458D01*
X133808306Y-74674300D01*
X133808302Y-74674307D01*
X133717538Y-74844115D01*
X133661643Y-75028373D01*
X133642770Y-75220000D01*
X133642770Y-75223500D01*
X133642251Y-75225266D01*
X133642173Y-75226062D01*
X133642022Y-75226047D01*
X133623085Y-75290539D01*
X133570281Y-75336294D01*
X133518770Y-75347500D01*
X130967952Y-75347500D01*
X130900913Y-75327815D01*
X130864850Y-75292391D01*
X130841922Y-75258077D01*
X130799749Y-75229898D01*
X130762559Y-75222500D01*
X130762558Y-75222500D01*
X129937442Y-75222500D01*
X129937441Y-75222500D01*
X129900250Y-75229898D01*
X129858077Y-75258077D01*
X129829898Y-75300250D01*
X129822500Y-75337441D01*
X129822500Y-75862558D01*
X129829898Y-75899749D01*
X129858077Y-75941922D01*
X129900250Y-75970101D01*
X129900252Y-75970102D01*
X129925975Y-75975219D01*
X129941879Y-75978383D01*
X130003790Y-76010770D01*
X130038362Y-76071487D01*
X130034621Y-76141256D01*
X129993753Y-76197927D01*
X129941879Y-76221617D01*
X129900250Y-76229898D01*
X129858077Y-76258077D01*
X129829898Y-76300250D01*
X129822500Y-76337441D01*
X129822500Y-76578500D01*
X129802815Y-76645539D01*
X129750011Y-76691294D01*
X129698500Y-76702500D01*
X129301500Y-76702500D01*
X129234461Y-76682815D01*
X129188706Y-76630011D01*
X129177500Y-76578500D01*
X129177500Y-76337441D01*
X129173624Y-76317956D01*
X129170102Y-76300252D01*
X129144643Y-76262150D01*
X129141922Y-76258077D01*
X129099749Y-76229898D01*
X129058120Y-76221617D01*
X128996210Y-76189230D01*
X128961637Y-76128514D01*
X128965378Y-76058744D01*
X129006246Y-76002073D01*
X129058120Y-75978383D01*
X129062558Y-75977500D01*
X129099748Y-75970102D01*
X129141922Y-75941922D01*
X129170102Y-75899748D01*
X129177500Y-75862558D01*
X129177500Y-75337442D01*
X129170102Y-75300252D01*
X129170101Y-75300250D01*
X129141922Y-75258077D01*
X129099749Y-75229898D01*
X129062559Y-75222500D01*
X129062558Y-75222500D01*
X128237442Y-75222500D01*
X128237441Y-75222500D01*
X128200250Y-75229898D01*
X128158077Y-75258077D01*
X128135150Y-75292391D01*
X128081537Y-75337196D01*
X128032048Y-75347500D01*
X126467952Y-75347500D01*
X126400913Y-75327815D01*
X126364850Y-75292391D01*
X126341922Y-75258077D01*
X126299749Y-75229898D01*
X126262559Y-75222500D01*
X126262558Y-75222500D01*
X125437442Y-75222500D01*
X125437441Y-75222500D01*
X125400250Y-75229898D01*
X125358077Y-75258077D01*
X125329898Y-75300250D01*
X125322500Y-75337441D01*
X125322500Y-75862558D01*
X125329898Y-75899749D01*
X125358077Y-75941922D01*
X125400250Y-75970101D01*
X125400252Y-75970102D01*
X125425975Y-75975219D01*
X125441879Y-75978383D01*
X125503790Y-76010770D01*
X125538362Y-76071487D01*
X125534621Y-76141256D01*
X125493753Y-76197927D01*
X125441879Y-76221617D01*
X125400250Y-76229898D01*
X125358077Y-76258077D01*
X125329898Y-76300250D01*
X125322500Y-76337441D01*
X125322500Y-76578500D01*
X125302815Y-76645539D01*
X125250011Y-76691294D01*
X125198500Y-76702500D01*
X124801500Y-76702500D01*
X124734461Y-76682815D01*
X124688706Y-76630011D01*
X124677500Y-76578500D01*
X124677500Y-76337441D01*
X124673624Y-76317956D01*
X124670102Y-76300252D01*
X124644643Y-76262150D01*
X124641922Y-76258077D01*
X124599749Y-76229898D01*
X124558120Y-76221617D01*
X124496210Y-76189230D01*
X124461637Y-76128514D01*
X124465378Y-76058744D01*
X124506246Y-76002073D01*
X124558120Y-75978383D01*
X124562558Y-75977500D01*
X124599748Y-75970102D01*
X124641922Y-75941922D01*
X124670102Y-75899748D01*
X124677500Y-75862558D01*
X124677500Y-75337442D01*
X124670102Y-75300252D01*
X124670101Y-75300250D01*
X124641922Y-75258077D01*
X124599749Y-75229898D01*
X124562559Y-75222500D01*
X124562558Y-75222500D01*
X123737442Y-75222500D01*
X123737441Y-75222500D01*
X123700250Y-75229898D01*
X123658077Y-75258077D01*
X123635150Y-75292391D01*
X123581537Y-75337196D01*
X123532048Y-75347500D01*
X121967952Y-75347500D01*
X121900913Y-75327815D01*
X121864850Y-75292391D01*
X121841922Y-75258077D01*
X121799749Y-75229898D01*
X121762559Y-75222500D01*
X121762558Y-75222500D01*
X120937442Y-75222500D01*
X120937441Y-75222500D01*
X120900250Y-75229898D01*
X120858077Y-75258077D01*
X120829898Y-75300250D01*
X120822500Y-75337441D01*
X120822500Y-75862558D01*
X120829898Y-75899749D01*
X120858077Y-75941922D01*
X120900250Y-75970101D01*
X120900252Y-75970102D01*
X120925975Y-75975219D01*
X120941879Y-75978383D01*
X121003790Y-76010770D01*
X121038362Y-76071487D01*
X121034621Y-76141256D01*
X120993753Y-76197927D01*
X120941879Y-76221617D01*
X120900250Y-76229898D01*
X120858077Y-76258077D01*
X120829898Y-76300250D01*
X120822500Y-76337441D01*
X120822500Y-76578500D01*
X120802815Y-76645539D01*
X120750011Y-76691294D01*
X120698500Y-76702500D01*
X120301500Y-76702500D01*
X120234461Y-76682815D01*
X120188706Y-76630011D01*
X120177500Y-76578500D01*
X120177500Y-76337441D01*
X120173624Y-76317956D01*
X120170102Y-76300252D01*
X120144643Y-76262150D01*
X120141922Y-76258077D01*
X120099749Y-76229898D01*
X120058120Y-76221617D01*
X119996210Y-76189230D01*
X119961637Y-76128514D01*
X119965378Y-76058744D01*
X120006246Y-76002073D01*
X120058120Y-75978383D01*
X120062558Y-75977500D01*
X120099748Y-75970102D01*
X120141922Y-75941922D01*
X120170102Y-75899748D01*
X120177500Y-75862558D01*
X120177500Y-75337442D01*
X120170102Y-75300252D01*
X120170101Y-75300250D01*
X120141922Y-75258077D01*
X120099749Y-75229898D01*
X120062559Y-75222500D01*
X120062558Y-75222500D01*
X119237442Y-75222500D01*
X119237441Y-75222500D01*
X119200250Y-75229898D01*
X119158077Y-75258077D01*
X119135150Y-75292391D01*
X119081537Y-75337196D01*
X119032048Y-75347500D01*
X117467952Y-75347500D01*
X117400913Y-75327815D01*
X117364850Y-75292391D01*
X117341922Y-75258077D01*
X117299749Y-75229898D01*
X117262559Y-75222500D01*
X117262558Y-75222500D01*
X116437442Y-75222500D01*
X116437441Y-75222500D01*
X116400250Y-75229898D01*
X116358077Y-75258077D01*
X116329898Y-75300250D01*
X116322500Y-75337441D01*
X116322500Y-75862558D01*
X116329898Y-75899749D01*
X116358077Y-75941922D01*
X116400250Y-75970101D01*
X116400252Y-75970102D01*
X116425975Y-75975219D01*
X116441879Y-75978383D01*
X116503790Y-76010770D01*
X116538362Y-76071487D01*
X116534621Y-76141256D01*
X116493753Y-76197927D01*
X116441879Y-76221617D01*
X116400250Y-76229898D01*
X116358077Y-76258077D01*
X116329898Y-76300250D01*
X116322500Y-76337441D01*
X116322500Y-76578500D01*
X116302815Y-76645539D01*
X116250011Y-76691294D01*
X116198500Y-76702500D01*
X115801500Y-76702500D01*
X115734461Y-76682815D01*
X115688706Y-76630011D01*
X115677500Y-76578500D01*
X115677500Y-76337441D01*
X115673624Y-76317956D01*
X115670102Y-76300252D01*
X115644643Y-76262150D01*
X115641922Y-76258077D01*
X115599749Y-76229898D01*
X115558120Y-76221617D01*
X115496210Y-76189230D01*
X115461637Y-76128514D01*
X115465378Y-76058744D01*
X115506246Y-76002073D01*
X115558120Y-75978383D01*
X115562558Y-75977500D01*
X115599748Y-75970102D01*
X115641922Y-75941922D01*
X115670102Y-75899748D01*
X115677500Y-75862558D01*
X115677500Y-75337442D01*
X115670102Y-75300252D01*
X115670101Y-75300250D01*
X115641922Y-75258077D01*
X115599749Y-75229898D01*
X115562559Y-75222500D01*
X115562558Y-75222500D01*
X114737442Y-75222500D01*
X114737441Y-75222500D01*
X114700250Y-75229898D01*
X114658077Y-75258077D01*
X114635150Y-75292391D01*
X114581537Y-75337196D01*
X114532048Y-75347500D01*
X112967952Y-75347500D01*
X112900913Y-75327815D01*
X112864850Y-75292391D01*
X112841922Y-75258077D01*
X112799749Y-75229898D01*
X112762559Y-75222500D01*
X112762558Y-75222500D01*
X111937442Y-75222500D01*
X111937441Y-75222500D01*
X111900250Y-75229898D01*
X111858077Y-75258077D01*
X111829898Y-75300250D01*
X111822500Y-75337441D01*
X111822500Y-75862558D01*
X111829898Y-75899749D01*
X111858077Y-75941922D01*
X111900250Y-75970101D01*
X111900252Y-75970102D01*
X111925975Y-75975219D01*
X111941879Y-75978383D01*
X112003790Y-76010770D01*
X112038362Y-76071487D01*
X112034621Y-76141256D01*
X111993753Y-76197927D01*
X111941879Y-76221617D01*
X111900250Y-76229898D01*
X111858077Y-76258077D01*
X111829898Y-76300250D01*
X111822500Y-76337441D01*
X111822500Y-76578500D01*
X111802815Y-76645539D01*
X111750011Y-76691294D01*
X111698500Y-76702500D01*
X111301500Y-76702500D01*
X111234461Y-76682815D01*
X111188706Y-76630011D01*
X111177500Y-76578500D01*
X111177500Y-76337441D01*
X111173624Y-76317956D01*
X111170102Y-76300252D01*
X111144643Y-76262150D01*
X111141922Y-76258077D01*
X111099749Y-76229898D01*
X111058120Y-76221617D01*
X110996210Y-76189230D01*
X110961637Y-76128514D01*
X110965378Y-76058744D01*
X111006246Y-76002073D01*
X111058120Y-75978383D01*
X111062558Y-75977500D01*
X111099748Y-75970102D01*
X111141922Y-75941922D01*
X111170102Y-75899748D01*
X111177500Y-75862558D01*
X111177500Y-75337442D01*
X111170102Y-75300252D01*
X111170101Y-75300250D01*
X111141922Y-75258077D01*
X111099749Y-75229898D01*
X111062559Y-75222500D01*
X111062558Y-75222500D01*
X110237442Y-75222500D01*
X110237441Y-75222500D01*
X110200250Y-75229898D01*
X110158077Y-75258077D01*
X110135150Y-75292391D01*
X110081537Y-75337196D01*
X110032048Y-75347500D01*
X108467952Y-75347500D01*
X108400913Y-75327815D01*
X108364850Y-75292391D01*
X108341922Y-75258077D01*
X108299749Y-75229898D01*
X108262559Y-75222500D01*
X108262558Y-75222500D01*
X107437442Y-75222500D01*
X107437441Y-75222500D01*
X107400250Y-75229898D01*
X107358077Y-75258077D01*
X107329898Y-75300250D01*
X107322500Y-75337441D01*
X107322500Y-75862558D01*
X107329898Y-75899749D01*
X107358077Y-75941922D01*
X107400250Y-75970101D01*
X107400252Y-75970102D01*
X107425975Y-75975219D01*
X107441879Y-75978383D01*
X107503790Y-76010770D01*
X107538362Y-76071487D01*
X107534621Y-76141256D01*
X107493753Y-76197927D01*
X107441879Y-76221617D01*
X107400250Y-76229898D01*
X107358077Y-76258077D01*
X107329898Y-76300250D01*
X107322500Y-76337441D01*
X107322500Y-76578500D01*
X107302815Y-76645539D01*
X107250011Y-76691294D01*
X107198500Y-76702500D01*
X106801500Y-76702500D01*
X106734461Y-76682815D01*
X106688706Y-76630011D01*
X106677500Y-76578500D01*
X106677500Y-76337441D01*
X106673624Y-76317956D01*
X106670102Y-76300252D01*
X106644643Y-76262150D01*
X106641922Y-76258077D01*
X106599749Y-76229898D01*
X106558120Y-76221617D01*
X106496210Y-76189230D01*
X106461637Y-76128514D01*
X106465378Y-76058744D01*
X106506246Y-76002073D01*
X106558120Y-75978383D01*
X106562558Y-75977500D01*
X106599748Y-75970102D01*
X106641922Y-75941922D01*
X106670102Y-75899748D01*
X106677500Y-75862558D01*
X106677500Y-75337442D01*
X106670102Y-75300252D01*
X106670101Y-75300250D01*
X106641922Y-75258077D01*
X106599749Y-75229898D01*
X106562559Y-75222500D01*
X106562558Y-75222500D01*
X105737442Y-75222500D01*
X105737441Y-75222500D01*
X105700250Y-75229898D01*
X105658077Y-75258077D01*
X105635150Y-75292391D01*
X105581537Y-75337196D01*
X105532048Y-75347500D01*
X103967952Y-75347500D01*
X103900913Y-75327815D01*
X103864850Y-75292391D01*
X103841922Y-75258077D01*
X103799749Y-75229898D01*
X103762559Y-75222500D01*
X103762558Y-75222500D01*
X102937442Y-75222500D01*
X102937441Y-75222500D01*
X102900250Y-75229898D01*
X102858077Y-75258077D01*
X102829898Y-75300250D01*
X102822500Y-75337441D01*
X102822500Y-75862558D01*
X102829898Y-75899749D01*
X102858077Y-75941922D01*
X102900250Y-75970101D01*
X102900252Y-75970102D01*
X102925975Y-75975219D01*
X102941879Y-75978383D01*
X103003790Y-76010770D01*
X103038362Y-76071487D01*
X103034621Y-76141256D01*
X102993753Y-76197927D01*
X102941879Y-76221617D01*
X102900250Y-76229898D01*
X102858077Y-76258077D01*
X102829898Y-76300250D01*
X102822500Y-76337441D01*
X102822500Y-76578500D01*
X102802815Y-76645539D01*
X102750011Y-76691294D01*
X102698500Y-76702500D01*
X102301500Y-76702500D01*
X102234461Y-76682815D01*
X102188706Y-76630011D01*
X102177500Y-76578500D01*
X102177500Y-76337441D01*
X102173624Y-76317956D01*
X102170102Y-76300252D01*
X102144643Y-76262150D01*
X102141922Y-76258077D01*
X102099749Y-76229898D01*
X102058120Y-76221617D01*
X101996210Y-76189230D01*
X101961637Y-76128514D01*
X101965378Y-76058744D01*
X102006246Y-76002073D01*
X102058120Y-75978383D01*
X102062558Y-75977500D01*
X102099748Y-75970102D01*
X102141922Y-75941922D01*
X102170102Y-75899748D01*
X102177500Y-75862558D01*
X102177500Y-75337442D01*
X102170102Y-75300252D01*
X102170101Y-75300250D01*
X102141922Y-75258077D01*
X102099749Y-75229898D01*
X102062559Y-75222500D01*
X102062558Y-75222500D01*
X101237442Y-75222500D01*
X101237441Y-75222500D01*
X101200250Y-75229898D01*
X101158077Y-75258077D01*
X101135150Y-75292391D01*
X101081537Y-75337196D01*
X101032048Y-75347500D01*
X99467952Y-75347500D01*
X99400913Y-75327815D01*
X99364850Y-75292391D01*
X99341922Y-75258077D01*
X99299749Y-75229898D01*
X99262559Y-75222500D01*
X99262558Y-75222500D01*
X98437442Y-75222500D01*
X98437441Y-75222500D01*
X98400250Y-75229898D01*
X98358077Y-75258077D01*
X98329898Y-75300250D01*
X98322500Y-75337441D01*
X98322500Y-75862558D01*
X98329898Y-75899749D01*
X98358077Y-75941922D01*
X98400250Y-75970101D01*
X98400252Y-75970102D01*
X98425975Y-75975219D01*
X98441879Y-75978383D01*
X98503790Y-76010770D01*
X98538362Y-76071487D01*
X98534621Y-76141256D01*
X98493753Y-76197927D01*
X98441879Y-76221617D01*
X98400250Y-76229898D01*
X98358077Y-76258077D01*
X98329898Y-76300250D01*
X98322500Y-76337441D01*
X98322500Y-76578500D01*
X98302815Y-76645539D01*
X98250011Y-76691294D01*
X98198500Y-76702500D01*
X97801500Y-76702500D01*
X97734461Y-76682815D01*
X97688706Y-76630011D01*
X97677500Y-76578500D01*
X97677500Y-76337441D01*
X97673624Y-76317956D01*
X97670102Y-76300252D01*
X97644643Y-76262150D01*
X97641922Y-76258077D01*
X97599749Y-76229898D01*
X97558120Y-76221617D01*
X97496210Y-76189230D01*
X97461637Y-76128514D01*
X97465378Y-76058744D01*
X97506246Y-76002073D01*
X97558120Y-75978383D01*
X97562558Y-75977500D01*
X97599748Y-75970102D01*
X97641922Y-75941922D01*
X97670102Y-75899748D01*
X97677500Y-75862558D01*
X97677500Y-75337442D01*
X97670102Y-75300252D01*
X97670101Y-75300250D01*
X97641922Y-75258077D01*
X97599749Y-75229898D01*
X97562559Y-75222500D01*
X97562558Y-75222500D01*
X96737442Y-75222500D01*
X96737441Y-75222500D01*
X96700250Y-75229898D01*
X96658077Y-75258077D01*
X96635150Y-75292391D01*
X96581537Y-75337196D01*
X96532048Y-75347500D01*
X94967952Y-75347500D01*
X94900913Y-75327815D01*
X94864850Y-75292391D01*
X94841922Y-75258077D01*
X94799749Y-75229898D01*
X94762559Y-75222500D01*
X94762558Y-75222500D01*
X93937442Y-75222500D01*
X93937441Y-75222500D01*
X93900250Y-75229898D01*
X93858077Y-75258077D01*
X93829898Y-75300250D01*
X93822500Y-75337441D01*
X93822500Y-75862558D01*
X93829898Y-75899749D01*
X93858077Y-75941922D01*
X93900250Y-75970101D01*
X93900252Y-75970102D01*
X93925975Y-75975219D01*
X93941879Y-75978383D01*
X94003790Y-76010770D01*
X94038362Y-76071487D01*
X94034621Y-76141256D01*
X93993753Y-76197927D01*
X93941879Y-76221617D01*
X93900250Y-76229898D01*
X93858077Y-76258077D01*
X93829898Y-76300250D01*
X93822500Y-76337441D01*
X93822500Y-76578500D01*
X93802815Y-76645539D01*
X93750011Y-76691294D01*
X93698500Y-76702500D01*
X93301500Y-76702500D01*
X93234461Y-76682815D01*
X93188706Y-76630011D01*
X93177500Y-76578500D01*
X93177500Y-76337441D01*
X93173624Y-76317956D01*
X93170102Y-76300252D01*
X93144643Y-76262150D01*
X93141922Y-76258077D01*
X93099749Y-76229898D01*
X93058120Y-76221617D01*
X92996210Y-76189230D01*
X92961637Y-76128514D01*
X92965378Y-76058744D01*
X93006246Y-76002073D01*
X93058120Y-75978383D01*
X93062558Y-75977500D01*
X93099748Y-75970102D01*
X93141922Y-75941922D01*
X93170102Y-75899748D01*
X93177500Y-75862558D01*
X93177500Y-75337442D01*
X93170102Y-75300252D01*
X93170101Y-75300250D01*
X93141922Y-75258077D01*
X93099749Y-75229898D01*
X93062559Y-75222500D01*
X93062558Y-75222500D01*
X92237442Y-75222500D01*
X92237441Y-75222500D01*
X92200250Y-75229898D01*
X92158077Y-75258077D01*
X92135150Y-75292391D01*
X92081537Y-75337196D01*
X92032048Y-75347500D01*
X90467952Y-75347500D01*
X90400913Y-75327815D01*
X90364850Y-75292391D01*
X90341922Y-75258077D01*
X90299749Y-75229898D01*
X90262559Y-75222500D01*
X90262558Y-75222500D01*
X89437442Y-75222500D01*
X89437441Y-75222500D01*
X89400250Y-75229898D01*
X89358077Y-75258077D01*
X89329898Y-75300250D01*
X89322500Y-75337441D01*
X89322500Y-75862558D01*
X89329898Y-75899749D01*
X89358077Y-75941922D01*
X89400250Y-75970101D01*
X89400252Y-75970102D01*
X89425975Y-75975219D01*
X89441879Y-75978383D01*
X89503790Y-76010770D01*
X89538362Y-76071487D01*
X89534621Y-76141256D01*
X89493753Y-76197927D01*
X89441879Y-76221617D01*
X89400250Y-76229898D01*
X89358077Y-76258077D01*
X89329898Y-76300250D01*
X89322500Y-76337441D01*
X89322500Y-76578500D01*
X89302815Y-76645539D01*
X89250011Y-76691294D01*
X89198500Y-76702500D01*
X88801500Y-76702500D01*
X88734461Y-76682815D01*
X88688706Y-76630011D01*
X88677500Y-76578500D01*
X88677500Y-76337441D01*
X88673624Y-76317956D01*
X88670102Y-76300252D01*
X88644643Y-76262150D01*
X88641922Y-76258077D01*
X88599749Y-76229898D01*
X88558120Y-76221617D01*
X88496210Y-76189230D01*
X88461637Y-76128514D01*
X88465378Y-76058744D01*
X88506246Y-76002073D01*
X88558120Y-75978383D01*
X88562558Y-75977500D01*
X88599748Y-75970102D01*
X88641922Y-75941922D01*
X88670102Y-75899748D01*
X88677500Y-75862558D01*
X88677500Y-75337442D01*
X88670102Y-75300252D01*
X88670101Y-75300250D01*
X88641922Y-75258077D01*
X88599749Y-75229898D01*
X88562559Y-75222500D01*
X88562558Y-75222500D01*
X87737442Y-75222500D01*
X87737441Y-75222500D01*
X87700250Y-75229898D01*
X87658077Y-75258077D01*
X87635150Y-75292391D01*
X87581537Y-75337196D01*
X87532048Y-75347500D01*
X85967952Y-75347500D01*
X85900913Y-75327815D01*
X85864850Y-75292391D01*
X85841922Y-75258077D01*
X85799749Y-75229898D01*
X85762559Y-75222500D01*
X85762558Y-75222500D01*
X84937442Y-75222500D01*
X84937441Y-75222500D01*
X84900250Y-75229898D01*
X84858077Y-75258077D01*
X84829898Y-75300250D01*
X84822500Y-75337441D01*
X84822500Y-75862558D01*
X84829898Y-75899749D01*
X84858077Y-75941922D01*
X84900250Y-75970101D01*
X84900252Y-75970102D01*
X84925975Y-75975219D01*
X84941879Y-75978383D01*
X85003790Y-76010770D01*
X85038362Y-76071487D01*
X85034621Y-76141256D01*
X84993753Y-76197927D01*
X84941879Y-76221617D01*
X84900250Y-76229898D01*
X84858077Y-76258077D01*
X84829898Y-76300250D01*
X84822500Y-76337441D01*
X84822500Y-76578500D01*
X84802815Y-76645539D01*
X84750011Y-76691294D01*
X84698500Y-76702500D01*
X84301500Y-76702500D01*
X84234461Y-76682815D01*
X84188706Y-76630011D01*
X84177500Y-76578500D01*
X84177500Y-76337441D01*
X84173624Y-76317956D01*
X84170102Y-76300252D01*
X84144643Y-76262150D01*
X84141922Y-76258077D01*
X84099749Y-76229898D01*
X84058120Y-76221617D01*
X83996210Y-76189230D01*
X83961637Y-76128514D01*
X83965378Y-76058744D01*
X84006246Y-76002073D01*
X84058120Y-75978383D01*
X84062558Y-75977500D01*
X84099748Y-75970102D01*
X84141922Y-75941922D01*
X84170102Y-75899748D01*
X84177500Y-75862558D01*
X84177500Y-75337442D01*
X84170102Y-75300252D01*
X84170101Y-75300250D01*
X84141922Y-75258077D01*
X84099749Y-75229898D01*
X84062559Y-75222500D01*
X84062558Y-75222500D01*
X83237442Y-75222500D01*
X83237441Y-75222500D01*
X83200250Y-75229898D01*
X83158077Y-75258077D01*
X83135150Y-75292391D01*
X83081537Y-75337196D01*
X83032048Y-75347500D01*
X81467952Y-75347500D01*
X81400913Y-75327815D01*
X81364850Y-75292391D01*
X81341922Y-75258077D01*
X81299749Y-75229898D01*
X81262559Y-75222500D01*
X81262558Y-75222500D01*
X80437442Y-75222500D01*
X80437441Y-75222500D01*
X80400250Y-75229898D01*
X80358077Y-75258077D01*
X80329898Y-75300250D01*
X80322500Y-75337441D01*
X80322500Y-75862558D01*
X80329898Y-75899749D01*
X80358077Y-75941922D01*
X80400250Y-75970101D01*
X80400252Y-75970102D01*
X80425975Y-75975219D01*
X80441879Y-75978383D01*
X80503790Y-76010770D01*
X80538362Y-76071487D01*
X80534621Y-76141256D01*
X80493753Y-76197927D01*
X80441879Y-76221617D01*
X80400250Y-76229898D01*
X80358077Y-76258077D01*
X80329898Y-76300250D01*
X80322500Y-76337441D01*
X80322500Y-76578500D01*
X80302815Y-76645539D01*
X80250011Y-76691294D01*
X80198500Y-76702500D01*
X79801500Y-76702500D01*
X79734461Y-76682815D01*
X79688706Y-76630011D01*
X79677500Y-76578500D01*
X79677500Y-76337441D01*
X79673624Y-76317956D01*
X79670102Y-76300252D01*
X79644643Y-76262150D01*
X79641922Y-76258077D01*
X79599749Y-76229898D01*
X79558120Y-76221617D01*
X79496210Y-76189230D01*
X79461637Y-76128514D01*
X79465378Y-76058744D01*
X79506246Y-76002073D01*
X79558120Y-75978383D01*
X79562558Y-75977500D01*
X79599748Y-75970102D01*
X79641922Y-75941922D01*
X79670102Y-75899748D01*
X79677500Y-75862558D01*
X79677500Y-75337442D01*
X79670102Y-75300252D01*
X79670101Y-75300250D01*
X79641922Y-75258077D01*
X79599749Y-75229898D01*
X79562559Y-75222500D01*
X79562558Y-75222500D01*
X78737442Y-75222500D01*
X78737441Y-75222500D01*
X78700250Y-75229898D01*
X78658077Y-75258077D01*
X78635150Y-75292391D01*
X78581537Y-75337196D01*
X78532048Y-75347500D01*
X76967952Y-75347500D01*
X76900913Y-75327815D01*
X76864850Y-75292391D01*
X76841922Y-75258077D01*
X76799749Y-75229898D01*
X76762559Y-75222500D01*
X76762558Y-75222500D01*
X75937442Y-75222500D01*
X75937441Y-75222500D01*
X75900250Y-75229898D01*
X75858077Y-75258077D01*
X75829898Y-75300250D01*
X75822500Y-75337441D01*
X75822500Y-75862558D01*
X75829898Y-75899749D01*
X75858077Y-75941922D01*
X75900250Y-75970101D01*
X75900252Y-75970102D01*
X75925975Y-75975219D01*
X75941879Y-75978383D01*
X76003790Y-76010770D01*
X76038362Y-76071487D01*
X76034621Y-76141256D01*
X75993753Y-76197927D01*
X75941879Y-76221617D01*
X75900250Y-76229898D01*
X75858077Y-76258077D01*
X75829898Y-76300250D01*
X75822500Y-76337441D01*
X75822500Y-76578500D01*
X75802815Y-76645539D01*
X75750011Y-76691294D01*
X75698500Y-76702500D01*
X75301500Y-76702500D01*
X75234461Y-76682815D01*
X75188706Y-76630011D01*
X75177500Y-76578500D01*
X75177500Y-76337441D01*
X75173624Y-76317956D01*
X75170102Y-76300252D01*
X75144643Y-76262150D01*
X75141922Y-76258077D01*
X75099749Y-76229898D01*
X75058120Y-76221617D01*
X74996210Y-76189230D01*
X74961637Y-76128514D01*
X74965378Y-76058744D01*
X75006246Y-76002073D01*
X75058120Y-75978383D01*
X75062558Y-75977500D01*
X75099748Y-75970102D01*
X75141922Y-75941922D01*
X75170102Y-75899748D01*
X75177500Y-75862558D01*
X75177500Y-75337442D01*
X75170102Y-75300252D01*
X75170101Y-75300250D01*
X75141922Y-75258077D01*
X75099749Y-75229898D01*
X75062559Y-75222500D01*
X75062558Y-75222500D01*
X74237442Y-75222500D01*
X74237441Y-75222500D01*
X74200250Y-75229898D01*
X74158077Y-75258077D01*
X74135150Y-75292391D01*
X74081537Y-75337196D01*
X74032048Y-75347500D01*
X72467952Y-75347500D01*
X72400913Y-75327815D01*
X72364850Y-75292391D01*
X72341922Y-75258077D01*
X72299749Y-75229898D01*
X72262559Y-75222500D01*
X72262558Y-75222500D01*
X71437442Y-75222500D01*
X71437441Y-75222500D01*
X71400250Y-75229898D01*
X71358077Y-75258077D01*
X71329898Y-75300250D01*
X71322500Y-75337441D01*
X71322500Y-75862558D01*
X71329898Y-75899749D01*
X71358077Y-75941922D01*
X71400250Y-75970101D01*
X71400252Y-75970102D01*
X71425975Y-75975219D01*
X71441879Y-75978383D01*
X71503790Y-76010770D01*
X71538362Y-76071487D01*
X71534621Y-76141256D01*
X71493753Y-76197927D01*
X71441879Y-76221617D01*
X71400250Y-76229898D01*
X71358077Y-76258077D01*
X71329898Y-76300250D01*
X71322500Y-76337441D01*
X71322500Y-76578500D01*
X71302815Y-76645539D01*
X71250011Y-76691294D01*
X71198500Y-76702500D01*
X70801500Y-76702500D01*
X70734461Y-76682815D01*
X70688706Y-76630011D01*
X70677500Y-76578500D01*
X70677500Y-76337441D01*
X70673624Y-76317956D01*
X70670102Y-76300252D01*
X70644643Y-76262150D01*
X70641922Y-76258077D01*
X70599749Y-76229898D01*
X70558120Y-76221617D01*
X70496210Y-76189230D01*
X70461637Y-76128514D01*
X70465378Y-76058744D01*
X70506246Y-76002073D01*
X70558120Y-75978383D01*
X70562558Y-75977500D01*
X70599748Y-75970102D01*
X70641922Y-75941922D01*
X70670102Y-75899748D01*
X70677500Y-75862558D01*
X70677500Y-75337442D01*
X70670102Y-75300252D01*
X70670101Y-75300250D01*
X70641922Y-75258077D01*
X70599749Y-75229898D01*
X70562559Y-75222500D01*
X70562558Y-75222500D01*
X69737442Y-75222500D01*
X69737441Y-75222500D01*
X69700250Y-75229898D01*
X69658077Y-75258077D01*
X69635150Y-75292391D01*
X69581537Y-75337196D01*
X69532048Y-75347500D01*
X67967952Y-75347500D01*
X67900913Y-75327815D01*
X67864850Y-75292391D01*
X67841922Y-75258077D01*
X67799749Y-75229898D01*
X67762559Y-75222500D01*
X67762558Y-75222500D01*
X66937442Y-75222500D01*
X66937441Y-75222500D01*
X66900250Y-75229898D01*
X66858077Y-75258077D01*
X66829898Y-75300250D01*
X66822499Y-75337441D01*
X66822499Y-75862558D01*
X66829898Y-75899749D01*
X66858077Y-75941922D01*
X66900250Y-75970101D01*
X66900252Y-75970102D01*
X66925975Y-75975219D01*
X66941879Y-75978383D01*
X67003790Y-76010770D01*
X67038362Y-76071487D01*
X67034621Y-76141256D01*
X66993753Y-76197927D01*
X66941879Y-76221617D01*
X66900250Y-76229898D01*
X66858077Y-76258077D01*
X66829898Y-76300250D01*
X66822500Y-76337441D01*
X66822500Y-76578500D01*
X66802815Y-76645539D01*
X66750011Y-76691294D01*
X66698500Y-76702500D01*
X66301500Y-76702500D01*
X66234461Y-76682815D01*
X66188706Y-76630011D01*
X66177500Y-76578500D01*
X66177500Y-76578499D01*
X66177500Y-76337442D01*
X66170102Y-76300252D01*
X66144643Y-76262150D01*
X66141922Y-76258077D01*
X66099749Y-76229898D01*
X66058120Y-76221617D01*
X65996210Y-76189230D01*
X65961637Y-76128514D01*
X65965378Y-76058744D01*
X66006246Y-76002073D01*
X66058120Y-75978383D01*
X66062558Y-75977500D01*
X66099748Y-75970102D01*
X66141922Y-75941922D01*
X66170102Y-75899748D01*
X66177500Y-75862558D01*
X66177500Y-75337442D01*
X66170102Y-75300252D01*
X66170101Y-75300250D01*
X66141922Y-75258077D01*
X66099749Y-75229898D01*
X66062559Y-75222500D01*
X66062558Y-75222500D01*
X65237442Y-75222500D01*
X65237441Y-75222500D01*
X65200250Y-75229898D01*
X65158077Y-75258077D01*
X65135150Y-75292391D01*
X65081537Y-75337196D01*
X65032048Y-75347500D01*
X63467952Y-75347500D01*
X63400913Y-75327815D01*
X63364850Y-75292391D01*
X63341922Y-75258077D01*
X63299749Y-75229898D01*
X63262559Y-75222500D01*
X63262558Y-75222500D01*
X62437442Y-75222500D01*
X62437441Y-75222500D01*
X62400250Y-75229898D01*
X62358077Y-75258077D01*
X62329898Y-75300250D01*
X62322499Y-75337441D01*
X62322499Y-75862558D01*
X62329898Y-75899749D01*
X62358077Y-75941922D01*
X62400250Y-75970101D01*
X62400252Y-75970102D01*
X62425975Y-75975219D01*
X62441879Y-75978383D01*
X62503790Y-76010770D01*
X62538362Y-76071487D01*
X62534621Y-76141256D01*
X62493753Y-76197927D01*
X62441879Y-76221617D01*
X62400250Y-76229898D01*
X62358077Y-76258077D01*
X62329898Y-76300250D01*
X62322500Y-76337441D01*
X62322500Y-76578500D01*
X62302815Y-76645539D01*
X62250011Y-76691294D01*
X62198500Y-76702500D01*
X61801500Y-76702500D01*
X61734461Y-76682815D01*
X61688706Y-76630011D01*
X61677500Y-76578500D01*
X61677500Y-76578499D01*
X61677500Y-76337442D01*
X61670102Y-76300252D01*
X61644643Y-76262150D01*
X61641922Y-76258077D01*
X61599749Y-76229898D01*
X61558120Y-76221617D01*
X61496210Y-76189230D01*
X61461637Y-76128514D01*
X61465378Y-76058744D01*
X61506246Y-76002073D01*
X61558120Y-75978383D01*
X61562558Y-75977500D01*
X61599748Y-75970102D01*
X61641922Y-75941922D01*
X61670102Y-75899748D01*
X61677500Y-75862558D01*
X61677500Y-75337442D01*
X61670102Y-75300252D01*
X61670101Y-75300250D01*
X61641922Y-75258077D01*
X61599749Y-75229898D01*
X61562559Y-75222500D01*
X61562558Y-75222500D01*
X60737442Y-75222500D01*
X60737441Y-75222500D01*
X60700250Y-75229898D01*
X60658077Y-75258077D01*
X60635150Y-75292391D01*
X60581537Y-75337196D01*
X60532048Y-75347500D01*
X58480205Y-75347500D01*
X58413166Y-75327815D01*
X58367411Y-75275011D01*
X58356802Y-75235654D01*
X58355260Y-75220000D01*
X58338357Y-75048376D01*
X58282462Y-74864117D01*
X58191694Y-74694302D01*
X58191693Y-74694300D01*
X58069541Y-74545458D01*
X57920699Y-74423306D01*
X57920692Y-74423302D01*
X57750884Y-74332538D01*
X57619426Y-74292660D01*
X57560988Y-74254363D01*
X57532531Y-74190550D01*
X57543092Y-74121483D01*
X57589317Y-74069090D01*
X57655422Y-74050000D01*
X58272828Y-74050000D01*
X58272844Y-74049999D01*
X58332372Y-74043598D01*
X58332379Y-74043596D01*
X58467086Y-73993354D01*
X58467093Y-73993350D01*
X58582187Y-73907190D01*
X58582190Y-73907187D01*
X58668350Y-73792093D01*
X58668354Y-73792086D01*
X58718596Y-73657379D01*
X58718598Y-73657372D01*
X58724999Y-73597844D01*
X58725000Y-73597827D01*
X58725000Y-72950000D01*
X57988347Y-72950000D01*
X57921308Y-72930315D01*
X57875553Y-72877511D01*
X57865609Y-72808353D01*
X57869369Y-72791067D01*
X57875000Y-72771888D01*
X57875000Y-72628111D01*
X57869369Y-72608933D01*
X57869370Y-72539064D01*
X57907145Y-72480286D01*
X57970701Y-72451262D01*
X57988347Y-72450000D01*
X58725000Y-72450000D01*
X58725000Y-71802172D01*
X58724999Y-71802155D01*
X58718598Y-71742627D01*
X58718596Y-71742620D01*
X58668354Y-71607913D01*
X58668350Y-71607906D01*
X58582190Y-71492812D01*
X58582187Y-71492809D01*
X58467093Y-71406649D01*
X58467086Y-71406645D01*
X58332379Y-71356403D01*
X58332372Y-71356401D01*
X58272844Y-71350000D01*
X57625000Y-71350000D01*
X57625000Y-72087698D01*
X57605315Y-72154737D01*
X57552511Y-72200492D01*
X57483355Y-72210436D01*
X57410766Y-72200000D01*
X57410763Y-72200000D01*
X57339237Y-72200000D01*
X57339233Y-72200000D01*
X57266645Y-72210436D01*
X57197487Y-72200492D01*
X57144684Y-72154736D01*
X57125000Y-72087698D01*
X57125000Y-71350000D01*
X56477155Y-71350000D01*
X56417627Y-71356401D01*
X56417620Y-71356403D01*
X56282913Y-71406645D01*
X56282906Y-71406649D01*
X56167812Y-71492809D01*
X56167809Y-71492812D01*
X56081649Y-71607906D01*
X56081645Y-71607913D01*
X56031403Y-71742620D01*
X56031401Y-71742627D01*
X56025000Y-71802155D01*
X56025000Y-72450000D01*
X56761653Y-72450000D01*
X56828692Y-72469685D01*
X56874447Y-72522489D01*
X56884391Y-72591647D01*
X56880631Y-72608933D01*
X56875000Y-72628111D01*
X56875000Y-72771888D01*
X56880631Y-72791067D01*
X56880630Y-72860936D01*
X56842855Y-72919714D01*
X56779299Y-72948738D01*
X56761653Y-72950000D01*
X56025000Y-72950000D01*
X56025000Y-73597844D01*
X46000500Y-73597844D01*
X46000500Y-71000000D01*
X59644341Y-71000000D01*
X59664936Y-71235403D01*
X59664938Y-71235413D01*
X59726094Y-71463655D01*
X59726096Y-71463659D01*
X59726097Y-71463663D01*
X59739688Y-71492809D01*
X59825964Y-71677828D01*
X59825965Y-71677830D01*
X59961505Y-71871402D01*
X60128597Y-72038494D01*
X60322169Y-72174034D01*
X60322171Y-72174035D01*
X60536337Y-72273903D01*
X60764592Y-72335063D01*
X60941034Y-72350500D01*
X61058966Y-72350500D01*
X61235408Y-72335063D01*
X61463663Y-72273903D01*
X61677829Y-72174035D01*
X61871401Y-72038495D01*
X62038495Y-71871401D01*
X62174035Y-71677830D01*
X62273903Y-71463663D01*
X62335063Y-71235408D01*
X62355659Y-71000000D01*
X128644341Y-71000000D01*
X128664936Y-71235403D01*
X128664938Y-71235413D01*
X128726094Y-71463655D01*
X128726096Y-71463659D01*
X128726097Y-71463663D01*
X128739688Y-71492809D01*
X128825964Y-71677828D01*
X128825965Y-71677830D01*
X128961505Y-71871402D01*
X129128597Y-72038494D01*
X129322169Y-72174034D01*
X129322171Y-72174035D01*
X129536337Y-72273903D01*
X129764592Y-72335063D01*
X129941034Y-72350500D01*
X130058966Y-72350500D01*
X130235408Y-72335063D01*
X130463663Y-72273903D01*
X130677829Y-72174035D01*
X130871401Y-72038495D01*
X131038495Y-71871401D01*
X131174035Y-71677830D01*
X131273903Y-71463663D01*
X131335063Y-71235408D01*
X131355659Y-71000000D01*
X131335063Y-70764592D01*
X131273903Y-70536337D01*
X131174035Y-70322171D01*
X131174034Y-70322169D01*
X131038494Y-70128597D01*
X130871402Y-69961505D01*
X130677830Y-69825965D01*
X130677828Y-69825964D01*
X130570745Y-69776030D01*
X130463663Y-69726097D01*
X130463659Y-69726096D01*
X130463655Y-69726094D01*
X130235413Y-69664938D01*
X130235403Y-69664936D01*
X130058966Y-69649500D01*
X129941034Y-69649500D01*
X129764596Y-69664936D01*
X129764586Y-69664938D01*
X129536344Y-69726094D01*
X129536335Y-69726098D01*
X129322171Y-69825964D01*
X129322169Y-69825965D01*
X129128597Y-69961505D01*
X128961506Y-70128597D01*
X128961501Y-70128604D01*
X128825967Y-70322165D01*
X128825965Y-70322169D01*
X128726098Y-70536335D01*
X128726094Y-70536344D01*
X128664938Y-70764586D01*
X128664936Y-70764596D01*
X128644341Y-70999999D01*
X128644341Y-71000000D01*
X62355659Y-71000000D01*
X62335063Y-70764592D01*
X62273903Y-70536337D01*
X62174035Y-70322171D01*
X62174034Y-70322169D01*
X62038494Y-70128597D01*
X61871402Y-69961505D01*
X61677830Y-69825965D01*
X61677828Y-69825964D01*
X61570746Y-69776030D01*
X61463663Y-69726097D01*
X61463659Y-69726096D01*
X61463655Y-69726094D01*
X61235413Y-69664938D01*
X61235403Y-69664936D01*
X61058966Y-69649500D01*
X60941034Y-69649500D01*
X60764596Y-69664936D01*
X60764586Y-69664938D01*
X60536344Y-69726094D01*
X60536335Y-69726098D01*
X60322171Y-69825964D01*
X60322169Y-69825965D01*
X60128597Y-69961505D01*
X59961506Y-70128597D01*
X59961501Y-70128604D01*
X59825967Y-70322165D01*
X59825965Y-70322169D01*
X59726098Y-70536335D01*
X59726094Y-70536344D01*
X59664938Y-70764586D01*
X59664936Y-70764596D01*
X59644341Y-70999999D01*
X59644341Y-71000000D01*
X46000500Y-71000000D01*
X46000500Y-69124500D01*
X46020185Y-69057461D01*
X46072989Y-69011706D01*
X46124500Y-69000500D01*
X145875500Y-69000500D01*
X145942539Y-69020185D01*
G37*
%TD.AperFunction*%
%TD*%
M02*
