%TF.GenerationSoftware,KiCad,Pcbnew,7.0.7*%
%TF.CreationDate,2024-07-29T17:51:35+02:00*%
%TF.ProjectId,LEDBAR,4c454442-4152-42e6-9b69-6361645f7063,rev?*%
%TF.SameCoordinates,Original*%
%TF.FileFunction,Legend,Top*%
%TF.FilePolarity,Positive*%
%FSLAX46Y46*%
G04 Gerber Fmt 4.6, Leading zero omitted, Abs format (unit mm)*
G04 Created by KiCad (PCBNEW 7.0.7) date 2024-07-29 17:51:35*
%MOMM*%
%LPD*%
G01*
G04 APERTURE LIST*
%ADD10C,0.150000*%
%ADD11C,0.100000*%
%ADD12C,0.120000*%
G04 APERTURE END LIST*
D10*
X66289160Y-82822200D02*
X66432017Y-82869819D01*
X66432017Y-82869819D02*
X66670112Y-82869819D01*
X66670112Y-82869819D02*
X66765350Y-82822200D01*
X66765350Y-82822200D02*
X66812969Y-82774580D01*
X66812969Y-82774580D02*
X66860588Y-82679342D01*
X66860588Y-82679342D02*
X66860588Y-82584104D01*
X66860588Y-82584104D02*
X66812969Y-82488866D01*
X66812969Y-82488866D02*
X66765350Y-82441247D01*
X66765350Y-82441247D02*
X66670112Y-82393628D01*
X66670112Y-82393628D02*
X66479636Y-82346009D01*
X66479636Y-82346009D02*
X66384398Y-82298390D01*
X66384398Y-82298390D02*
X66336779Y-82250771D01*
X66336779Y-82250771D02*
X66289160Y-82155533D01*
X66289160Y-82155533D02*
X66289160Y-82060295D01*
X66289160Y-82060295D02*
X66336779Y-81965057D01*
X66336779Y-81965057D02*
X66384398Y-81917438D01*
X66384398Y-81917438D02*
X66479636Y-81869819D01*
X66479636Y-81869819D02*
X66717731Y-81869819D01*
X66717731Y-81869819D02*
X66860588Y-81917438D01*
X67289160Y-82869819D02*
X67289160Y-81869819D01*
X67289160Y-81869819D02*
X67670112Y-81869819D01*
X67670112Y-81869819D02*
X67765350Y-81917438D01*
X67765350Y-81917438D02*
X67812969Y-81965057D01*
X67812969Y-81965057D02*
X67860588Y-82060295D01*
X67860588Y-82060295D02*
X67860588Y-82203152D01*
X67860588Y-82203152D02*
X67812969Y-82298390D01*
X67812969Y-82298390D02*
X67765350Y-82346009D01*
X67765350Y-82346009D02*
X67670112Y-82393628D01*
X67670112Y-82393628D02*
X67289160Y-82393628D01*
X68289160Y-82869819D02*
X68289160Y-81869819D01*
X68765350Y-82869819D02*
X68765350Y-81869819D01*
X68765350Y-81869819D02*
X69336778Y-82869819D01*
X69336778Y-82869819D02*
X69336778Y-81869819D01*
X69812969Y-82869819D02*
X69812969Y-81869819D01*
X69812969Y-81869819D02*
X70384397Y-82869819D01*
X70384397Y-82869819D02*
X70384397Y-81869819D01*
X70860588Y-82869819D02*
X70860588Y-81869819D01*
X71336778Y-82869819D02*
X71336778Y-81869819D01*
X71336778Y-81869819D02*
X71908206Y-82869819D01*
X71908206Y-82869819D02*
X71908206Y-81869819D01*
X72908206Y-81917438D02*
X72812968Y-81869819D01*
X72812968Y-81869819D02*
X72670111Y-81869819D01*
X72670111Y-81869819D02*
X72527254Y-81917438D01*
X72527254Y-81917438D02*
X72432016Y-82012676D01*
X72432016Y-82012676D02*
X72384397Y-82107914D01*
X72384397Y-82107914D02*
X72336778Y-82298390D01*
X72336778Y-82298390D02*
X72336778Y-82441247D01*
X72336778Y-82441247D02*
X72384397Y-82631723D01*
X72384397Y-82631723D02*
X72432016Y-82726961D01*
X72432016Y-82726961D02*
X72527254Y-82822200D01*
X72527254Y-82822200D02*
X72670111Y-82869819D01*
X72670111Y-82869819D02*
X72765349Y-82869819D01*
X72765349Y-82869819D02*
X72908206Y-82822200D01*
X72908206Y-82822200D02*
X72955825Y-82774580D01*
X72955825Y-82774580D02*
X72955825Y-82441247D01*
X72955825Y-82441247D02*
X72765349Y-82441247D01*
X74098683Y-82822200D02*
X74241540Y-82869819D01*
X74241540Y-82869819D02*
X74479635Y-82869819D01*
X74479635Y-82869819D02*
X74574873Y-82822200D01*
X74574873Y-82822200D02*
X74622492Y-82774580D01*
X74622492Y-82774580D02*
X74670111Y-82679342D01*
X74670111Y-82679342D02*
X74670111Y-82584104D01*
X74670111Y-82584104D02*
X74622492Y-82488866D01*
X74622492Y-82488866D02*
X74574873Y-82441247D01*
X74574873Y-82441247D02*
X74479635Y-82393628D01*
X74479635Y-82393628D02*
X74289159Y-82346009D01*
X74289159Y-82346009D02*
X74193921Y-82298390D01*
X74193921Y-82298390D02*
X74146302Y-82250771D01*
X74146302Y-82250771D02*
X74098683Y-82155533D01*
X74098683Y-82155533D02*
X74098683Y-82060295D01*
X74098683Y-82060295D02*
X74146302Y-81965057D01*
X74146302Y-81965057D02*
X74193921Y-81917438D01*
X74193921Y-81917438D02*
X74289159Y-81869819D01*
X74289159Y-81869819D02*
X74527254Y-81869819D01*
X74527254Y-81869819D02*
X74670111Y-81917438D01*
X75670111Y-82774580D02*
X75622492Y-82822200D01*
X75622492Y-82822200D02*
X75479635Y-82869819D01*
X75479635Y-82869819D02*
X75384397Y-82869819D01*
X75384397Y-82869819D02*
X75241540Y-82822200D01*
X75241540Y-82822200D02*
X75146302Y-82726961D01*
X75146302Y-82726961D02*
X75098683Y-82631723D01*
X75098683Y-82631723D02*
X75051064Y-82441247D01*
X75051064Y-82441247D02*
X75051064Y-82298390D01*
X75051064Y-82298390D02*
X75098683Y-82107914D01*
X75098683Y-82107914D02*
X75146302Y-82012676D01*
X75146302Y-82012676D02*
X75241540Y-81917438D01*
X75241540Y-81917438D02*
X75384397Y-81869819D01*
X75384397Y-81869819D02*
X75479635Y-81869819D01*
X75479635Y-81869819D02*
X75622492Y-81917438D01*
X75622492Y-81917438D02*
X75670111Y-81965057D01*
X76670111Y-82869819D02*
X76336778Y-82393628D01*
X76098683Y-82869819D02*
X76098683Y-81869819D01*
X76098683Y-81869819D02*
X76479635Y-81869819D01*
X76479635Y-81869819D02*
X76574873Y-81917438D01*
X76574873Y-81917438D02*
X76622492Y-81965057D01*
X76622492Y-81965057D02*
X76670111Y-82060295D01*
X76670111Y-82060295D02*
X76670111Y-82203152D01*
X76670111Y-82203152D02*
X76622492Y-82298390D01*
X76622492Y-82298390D02*
X76574873Y-82346009D01*
X76574873Y-82346009D02*
X76479635Y-82393628D01*
X76479635Y-82393628D02*
X76098683Y-82393628D01*
X77098683Y-82346009D02*
X77432016Y-82346009D01*
X77574873Y-82869819D02*
X77098683Y-82869819D01*
X77098683Y-82869819D02*
X77098683Y-81869819D01*
X77098683Y-81869819D02*
X77574873Y-81869819D01*
X78003445Y-82346009D02*
X78336778Y-82346009D01*
X78479635Y-82869819D02*
X78003445Y-82869819D01*
X78003445Y-82869819D02*
X78003445Y-81869819D01*
X78003445Y-81869819D02*
X78479635Y-81869819D01*
X78908207Y-82869819D02*
X78908207Y-81869819D01*
X78908207Y-81869819D02*
X79479635Y-82869819D01*
X79479635Y-82869819D02*
X79479635Y-81869819D01*
X69812969Y-71869819D02*
X69336779Y-71869819D01*
X69336779Y-71869819D02*
X69336779Y-70869819D01*
X70146303Y-71346009D02*
X70479636Y-71346009D01*
X70622493Y-71869819D02*
X70146303Y-71869819D01*
X70146303Y-71869819D02*
X70146303Y-70869819D01*
X70146303Y-70869819D02*
X70622493Y-70869819D01*
X71051065Y-71869819D02*
X71051065Y-70869819D01*
X71051065Y-70869819D02*
X71289160Y-70869819D01*
X71289160Y-70869819D02*
X71432017Y-70917438D01*
X71432017Y-70917438D02*
X71527255Y-71012676D01*
X71527255Y-71012676D02*
X71574874Y-71107914D01*
X71574874Y-71107914D02*
X71622493Y-71298390D01*
X71622493Y-71298390D02*
X71622493Y-71441247D01*
X71622493Y-71441247D02*
X71574874Y-71631723D01*
X71574874Y-71631723D02*
X71527255Y-71726961D01*
X71527255Y-71726961D02*
X71432017Y-71822200D01*
X71432017Y-71822200D02*
X71289160Y-71869819D01*
X71289160Y-71869819D02*
X71051065Y-71869819D01*
X72812970Y-71869819D02*
X72812970Y-70869819D01*
X72812970Y-70869819D02*
X73051065Y-70869819D01*
X73051065Y-70869819D02*
X73193922Y-70917438D01*
X73193922Y-70917438D02*
X73289160Y-71012676D01*
X73289160Y-71012676D02*
X73336779Y-71107914D01*
X73336779Y-71107914D02*
X73384398Y-71298390D01*
X73384398Y-71298390D02*
X73384398Y-71441247D01*
X73384398Y-71441247D02*
X73336779Y-71631723D01*
X73336779Y-71631723D02*
X73289160Y-71726961D01*
X73289160Y-71726961D02*
X73193922Y-71822200D01*
X73193922Y-71822200D02*
X73051065Y-71869819D01*
X73051065Y-71869819D02*
X72812970Y-71869819D01*
X73812970Y-71869819D02*
X73812970Y-70869819D01*
X74860588Y-71869819D02*
X74527255Y-71393628D01*
X74289160Y-71869819D02*
X74289160Y-70869819D01*
X74289160Y-70869819D02*
X74670112Y-70869819D01*
X74670112Y-70869819D02*
X74765350Y-70917438D01*
X74765350Y-70917438D02*
X74812969Y-70965057D01*
X74812969Y-70965057D02*
X74860588Y-71060295D01*
X74860588Y-71060295D02*
X74860588Y-71203152D01*
X74860588Y-71203152D02*
X74812969Y-71298390D01*
X74812969Y-71298390D02*
X74765350Y-71346009D01*
X74765350Y-71346009D02*
X74670112Y-71393628D01*
X74670112Y-71393628D02*
X74289160Y-71393628D01*
X75289160Y-71346009D02*
X75622493Y-71346009D01*
X75765350Y-71869819D02*
X75289160Y-71869819D01*
X75289160Y-71869819D02*
X75289160Y-70869819D01*
X75289160Y-70869819D02*
X75765350Y-70869819D01*
X76765350Y-71774580D02*
X76717731Y-71822200D01*
X76717731Y-71822200D02*
X76574874Y-71869819D01*
X76574874Y-71869819D02*
X76479636Y-71869819D01*
X76479636Y-71869819D02*
X76336779Y-71822200D01*
X76336779Y-71822200D02*
X76241541Y-71726961D01*
X76241541Y-71726961D02*
X76193922Y-71631723D01*
X76193922Y-71631723D02*
X76146303Y-71441247D01*
X76146303Y-71441247D02*
X76146303Y-71298390D01*
X76146303Y-71298390D02*
X76193922Y-71107914D01*
X76193922Y-71107914D02*
X76241541Y-71012676D01*
X76241541Y-71012676D02*
X76336779Y-70917438D01*
X76336779Y-70917438D02*
X76479636Y-70869819D01*
X76479636Y-70869819D02*
X76574874Y-70869819D01*
X76574874Y-70869819D02*
X76717731Y-70917438D01*
X76717731Y-70917438D02*
X76765350Y-70965057D01*
X77051065Y-70869819D02*
X77622493Y-70869819D01*
X77336779Y-71869819D02*
X77336779Y-70869819D01*
X77955827Y-71869819D02*
X77955827Y-70869819D01*
X78622493Y-70869819D02*
X78812969Y-70869819D01*
X78812969Y-70869819D02*
X78908207Y-70917438D01*
X78908207Y-70917438D02*
X79003445Y-71012676D01*
X79003445Y-71012676D02*
X79051064Y-71203152D01*
X79051064Y-71203152D02*
X79051064Y-71536485D01*
X79051064Y-71536485D02*
X79003445Y-71726961D01*
X79003445Y-71726961D02*
X78908207Y-71822200D01*
X78908207Y-71822200D02*
X78812969Y-71869819D01*
X78812969Y-71869819D02*
X78622493Y-71869819D01*
X78622493Y-71869819D02*
X78527255Y-71822200D01*
X78527255Y-71822200D02*
X78432017Y-71726961D01*
X78432017Y-71726961D02*
X78384398Y-71536485D01*
X78384398Y-71536485D02*
X78384398Y-71203152D01*
X78384398Y-71203152D02*
X78432017Y-71012676D01*
X78432017Y-71012676D02*
X78527255Y-70917438D01*
X78527255Y-70917438D02*
X78622493Y-70869819D01*
X79479636Y-71869819D02*
X79479636Y-70869819D01*
X79479636Y-70869819D02*
X80051064Y-71869819D01*
X80051064Y-71869819D02*
X80051064Y-70869819D01*
X81289160Y-71488866D02*
X82051065Y-71488866D01*
X82527255Y-71203152D02*
X83289160Y-71488866D01*
X83289160Y-71488866D02*
X82527255Y-71774580D01*
X84527255Y-71488866D02*
X85289160Y-71488866D01*
X85765350Y-71203152D02*
X86527255Y-71488866D01*
X86527255Y-71488866D02*
X85765350Y-71774580D01*
X87765350Y-71488866D02*
X88527255Y-71488866D01*
X89003445Y-71203152D02*
X89765350Y-71488866D01*
X89765350Y-71488866D02*
X89003445Y-71774580D01*
X110357142Y-81019580D02*
X110309523Y-81067200D01*
X110309523Y-81067200D02*
X110166666Y-81114819D01*
X110166666Y-81114819D02*
X110071428Y-81114819D01*
X110071428Y-81114819D02*
X109928571Y-81067200D01*
X109928571Y-81067200D02*
X109833333Y-80971961D01*
X109833333Y-80971961D02*
X109785714Y-80876723D01*
X109785714Y-80876723D02*
X109738095Y-80686247D01*
X109738095Y-80686247D02*
X109738095Y-80543390D01*
X109738095Y-80543390D02*
X109785714Y-80352914D01*
X109785714Y-80352914D02*
X109833333Y-80257676D01*
X109833333Y-80257676D02*
X109928571Y-80162438D01*
X109928571Y-80162438D02*
X110071428Y-80114819D01*
X110071428Y-80114819D02*
X110166666Y-80114819D01*
X110166666Y-80114819D02*
X110309523Y-80162438D01*
X110309523Y-80162438D02*
X110357142Y-80210057D01*
X111309523Y-81114819D02*
X110738095Y-81114819D01*
X111023809Y-81114819D02*
X111023809Y-80114819D01*
X111023809Y-80114819D02*
X110928571Y-80257676D01*
X110928571Y-80257676D02*
X110833333Y-80352914D01*
X110833333Y-80352914D02*
X110738095Y-80400533D01*
X111642857Y-80114819D02*
X112261904Y-80114819D01*
X112261904Y-80114819D02*
X111928571Y-80495771D01*
X111928571Y-80495771D02*
X112071428Y-80495771D01*
X112071428Y-80495771D02*
X112166666Y-80543390D01*
X112166666Y-80543390D02*
X112214285Y-80591009D01*
X112214285Y-80591009D02*
X112261904Y-80686247D01*
X112261904Y-80686247D02*
X112261904Y-80924342D01*
X112261904Y-80924342D02*
X112214285Y-81019580D01*
X112214285Y-81019580D02*
X112166666Y-81067200D01*
X112166666Y-81067200D02*
X112071428Y-81114819D01*
X112071428Y-81114819D02*
X111785714Y-81114819D01*
X111785714Y-81114819D02*
X111690476Y-81067200D01*
X111690476Y-81067200D02*
X111642857Y-81019580D01*
X97261905Y-74844819D02*
X97261905Y-73844819D01*
X97261905Y-73844819D02*
X97500000Y-73844819D01*
X97500000Y-73844819D02*
X97642857Y-73892438D01*
X97642857Y-73892438D02*
X97738095Y-73987676D01*
X97738095Y-73987676D02*
X97785714Y-74082914D01*
X97785714Y-74082914D02*
X97833333Y-74273390D01*
X97833333Y-74273390D02*
X97833333Y-74416247D01*
X97833333Y-74416247D02*
X97785714Y-74606723D01*
X97785714Y-74606723D02*
X97738095Y-74701961D01*
X97738095Y-74701961D02*
X97642857Y-74797200D01*
X97642857Y-74797200D02*
X97500000Y-74844819D01*
X97500000Y-74844819D02*
X97261905Y-74844819D01*
X98309524Y-74844819D02*
X98500000Y-74844819D01*
X98500000Y-74844819D02*
X98595238Y-74797200D01*
X98595238Y-74797200D02*
X98642857Y-74749580D01*
X98642857Y-74749580D02*
X98738095Y-74606723D01*
X98738095Y-74606723D02*
X98785714Y-74416247D01*
X98785714Y-74416247D02*
X98785714Y-74035295D01*
X98785714Y-74035295D02*
X98738095Y-73940057D01*
X98738095Y-73940057D02*
X98690476Y-73892438D01*
X98690476Y-73892438D02*
X98595238Y-73844819D01*
X98595238Y-73844819D02*
X98404762Y-73844819D01*
X98404762Y-73844819D02*
X98309524Y-73892438D01*
X98309524Y-73892438D02*
X98261905Y-73940057D01*
X98261905Y-73940057D02*
X98214286Y-74035295D01*
X98214286Y-74035295D02*
X98214286Y-74273390D01*
X98214286Y-74273390D02*
X98261905Y-74368628D01*
X98261905Y-74368628D02*
X98309524Y-74416247D01*
X98309524Y-74416247D02*
X98404762Y-74463866D01*
X98404762Y-74463866D02*
X98595238Y-74463866D01*
X98595238Y-74463866D02*
X98690476Y-74416247D01*
X98690476Y-74416247D02*
X98738095Y-74368628D01*
X98738095Y-74368628D02*
X98785714Y-74273390D01*
D11*
X99871428Y-77672371D02*
X99528571Y-77672371D01*
X99700000Y-77672371D02*
X99700000Y-77072371D01*
X99700000Y-77072371D02*
X99642857Y-77158085D01*
X99642857Y-77158085D02*
X99585714Y-77215228D01*
X99585714Y-77215228D02*
X99528571Y-77243800D01*
D10*
X110285714Y-74844819D02*
X110285714Y-73844819D01*
X110285714Y-73844819D02*
X110523809Y-73844819D01*
X110523809Y-73844819D02*
X110666666Y-73892438D01*
X110666666Y-73892438D02*
X110761904Y-73987676D01*
X110761904Y-73987676D02*
X110809523Y-74082914D01*
X110809523Y-74082914D02*
X110857142Y-74273390D01*
X110857142Y-74273390D02*
X110857142Y-74416247D01*
X110857142Y-74416247D02*
X110809523Y-74606723D01*
X110809523Y-74606723D02*
X110761904Y-74701961D01*
X110761904Y-74701961D02*
X110666666Y-74797200D01*
X110666666Y-74797200D02*
X110523809Y-74844819D01*
X110523809Y-74844819D02*
X110285714Y-74844819D01*
X111809523Y-74844819D02*
X111238095Y-74844819D01*
X111523809Y-74844819D02*
X111523809Y-73844819D01*
X111523809Y-73844819D02*
X111428571Y-73987676D01*
X111428571Y-73987676D02*
X111333333Y-74082914D01*
X111333333Y-74082914D02*
X111238095Y-74130533D01*
X112190476Y-73940057D02*
X112238095Y-73892438D01*
X112238095Y-73892438D02*
X112333333Y-73844819D01*
X112333333Y-73844819D02*
X112571428Y-73844819D01*
X112571428Y-73844819D02*
X112666666Y-73892438D01*
X112666666Y-73892438D02*
X112714285Y-73940057D01*
X112714285Y-73940057D02*
X112761904Y-74035295D01*
X112761904Y-74035295D02*
X112761904Y-74130533D01*
X112761904Y-74130533D02*
X112714285Y-74273390D01*
X112714285Y-74273390D02*
X112142857Y-74844819D01*
X112142857Y-74844819D02*
X112761904Y-74844819D01*
D11*
X113371428Y-77672371D02*
X113028571Y-77672371D01*
X113200000Y-77672371D02*
X113200000Y-77072371D01*
X113200000Y-77072371D02*
X113142857Y-77158085D01*
X113142857Y-77158085D02*
X113085714Y-77215228D01*
X113085714Y-77215228D02*
X113028571Y-77243800D01*
D10*
X65833333Y-81019580D02*
X65785714Y-81067200D01*
X65785714Y-81067200D02*
X65642857Y-81114819D01*
X65642857Y-81114819D02*
X65547619Y-81114819D01*
X65547619Y-81114819D02*
X65404762Y-81067200D01*
X65404762Y-81067200D02*
X65309524Y-80971961D01*
X65309524Y-80971961D02*
X65261905Y-80876723D01*
X65261905Y-80876723D02*
X65214286Y-80686247D01*
X65214286Y-80686247D02*
X65214286Y-80543390D01*
X65214286Y-80543390D02*
X65261905Y-80352914D01*
X65261905Y-80352914D02*
X65309524Y-80257676D01*
X65309524Y-80257676D02*
X65404762Y-80162438D01*
X65404762Y-80162438D02*
X65547619Y-80114819D01*
X65547619Y-80114819D02*
X65642857Y-80114819D01*
X65642857Y-80114819D02*
X65785714Y-80162438D01*
X65785714Y-80162438D02*
X65833333Y-80210057D01*
X66166667Y-80114819D02*
X66785714Y-80114819D01*
X66785714Y-80114819D02*
X66452381Y-80495771D01*
X66452381Y-80495771D02*
X66595238Y-80495771D01*
X66595238Y-80495771D02*
X66690476Y-80543390D01*
X66690476Y-80543390D02*
X66738095Y-80591009D01*
X66738095Y-80591009D02*
X66785714Y-80686247D01*
X66785714Y-80686247D02*
X66785714Y-80924342D01*
X66785714Y-80924342D02*
X66738095Y-81019580D01*
X66738095Y-81019580D02*
X66690476Y-81067200D01*
X66690476Y-81067200D02*
X66595238Y-81114819D01*
X66595238Y-81114819D02*
X66309524Y-81114819D01*
X66309524Y-81114819D02*
X66214286Y-81067200D01*
X66214286Y-81067200D02*
X66166667Y-81019580D01*
X74761905Y-74844819D02*
X74761905Y-73844819D01*
X74761905Y-73844819D02*
X75000000Y-73844819D01*
X75000000Y-73844819D02*
X75142857Y-73892438D01*
X75142857Y-73892438D02*
X75238095Y-73987676D01*
X75238095Y-73987676D02*
X75285714Y-74082914D01*
X75285714Y-74082914D02*
X75333333Y-74273390D01*
X75333333Y-74273390D02*
X75333333Y-74416247D01*
X75333333Y-74416247D02*
X75285714Y-74606723D01*
X75285714Y-74606723D02*
X75238095Y-74701961D01*
X75238095Y-74701961D02*
X75142857Y-74797200D01*
X75142857Y-74797200D02*
X75000000Y-74844819D01*
X75000000Y-74844819D02*
X74761905Y-74844819D01*
X76190476Y-74178152D02*
X76190476Y-74844819D01*
X75952381Y-73797200D02*
X75714286Y-74511485D01*
X75714286Y-74511485D02*
X76333333Y-74511485D01*
D11*
X77371428Y-77672371D02*
X77028571Y-77672371D01*
X77200000Y-77672371D02*
X77200000Y-77072371D01*
X77200000Y-77072371D02*
X77142857Y-77158085D01*
X77142857Y-77158085D02*
X77085714Y-77215228D01*
X77085714Y-77215228D02*
X77028571Y-77243800D01*
D10*
X105785714Y-74844819D02*
X105785714Y-73844819D01*
X105785714Y-73844819D02*
X106023809Y-73844819D01*
X106023809Y-73844819D02*
X106166666Y-73892438D01*
X106166666Y-73892438D02*
X106261904Y-73987676D01*
X106261904Y-73987676D02*
X106309523Y-74082914D01*
X106309523Y-74082914D02*
X106357142Y-74273390D01*
X106357142Y-74273390D02*
X106357142Y-74416247D01*
X106357142Y-74416247D02*
X106309523Y-74606723D01*
X106309523Y-74606723D02*
X106261904Y-74701961D01*
X106261904Y-74701961D02*
X106166666Y-74797200D01*
X106166666Y-74797200D02*
X106023809Y-74844819D01*
X106023809Y-74844819D02*
X105785714Y-74844819D01*
X107309523Y-74844819D02*
X106738095Y-74844819D01*
X107023809Y-74844819D02*
X107023809Y-73844819D01*
X107023809Y-73844819D02*
X106928571Y-73987676D01*
X106928571Y-73987676D02*
X106833333Y-74082914D01*
X106833333Y-74082914D02*
X106738095Y-74130533D01*
X108261904Y-74844819D02*
X107690476Y-74844819D01*
X107976190Y-74844819D02*
X107976190Y-73844819D01*
X107976190Y-73844819D02*
X107880952Y-73987676D01*
X107880952Y-73987676D02*
X107785714Y-74082914D01*
X107785714Y-74082914D02*
X107690476Y-74130533D01*
D11*
X108871428Y-77672371D02*
X108528571Y-77672371D01*
X108700000Y-77672371D02*
X108700000Y-77072371D01*
X108700000Y-77072371D02*
X108642857Y-77158085D01*
X108642857Y-77158085D02*
X108585714Y-77215228D01*
X108585714Y-77215228D02*
X108528571Y-77243800D01*
D10*
X123785714Y-74844819D02*
X123785714Y-73844819D01*
X123785714Y-73844819D02*
X124023809Y-73844819D01*
X124023809Y-73844819D02*
X124166666Y-73892438D01*
X124166666Y-73892438D02*
X124261904Y-73987676D01*
X124261904Y-73987676D02*
X124309523Y-74082914D01*
X124309523Y-74082914D02*
X124357142Y-74273390D01*
X124357142Y-74273390D02*
X124357142Y-74416247D01*
X124357142Y-74416247D02*
X124309523Y-74606723D01*
X124309523Y-74606723D02*
X124261904Y-74701961D01*
X124261904Y-74701961D02*
X124166666Y-74797200D01*
X124166666Y-74797200D02*
X124023809Y-74844819D01*
X124023809Y-74844819D02*
X123785714Y-74844819D01*
X125309523Y-74844819D02*
X124738095Y-74844819D01*
X125023809Y-74844819D02*
X125023809Y-73844819D01*
X125023809Y-73844819D02*
X124928571Y-73987676D01*
X124928571Y-73987676D02*
X124833333Y-74082914D01*
X124833333Y-74082914D02*
X124738095Y-74130533D01*
X126214285Y-73844819D02*
X125738095Y-73844819D01*
X125738095Y-73844819D02*
X125690476Y-74321009D01*
X125690476Y-74321009D02*
X125738095Y-74273390D01*
X125738095Y-74273390D02*
X125833333Y-74225771D01*
X125833333Y-74225771D02*
X126071428Y-74225771D01*
X126071428Y-74225771D02*
X126166666Y-74273390D01*
X126166666Y-74273390D02*
X126214285Y-74321009D01*
X126214285Y-74321009D02*
X126261904Y-74416247D01*
X126261904Y-74416247D02*
X126261904Y-74654342D01*
X126261904Y-74654342D02*
X126214285Y-74749580D01*
X126214285Y-74749580D02*
X126166666Y-74797200D01*
X126166666Y-74797200D02*
X126071428Y-74844819D01*
X126071428Y-74844819D02*
X125833333Y-74844819D01*
X125833333Y-74844819D02*
X125738095Y-74797200D01*
X125738095Y-74797200D02*
X125690476Y-74749580D01*
D11*
X126871428Y-77672371D02*
X126528571Y-77672371D01*
X126700000Y-77672371D02*
X126700000Y-77072371D01*
X126700000Y-77072371D02*
X126642857Y-77158085D01*
X126642857Y-77158085D02*
X126585714Y-77215228D01*
X126585714Y-77215228D02*
X126528571Y-77243800D01*
D10*
X88261905Y-74844819D02*
X88261905Y-73844819D01*
X88261905Y-73844819D02*
X88500000Y-73844819D01*
X88500000Y-73844819D02*
X88642857Y-73892438D01*
X88642857Y-73892438D02*
X88738095Y-73987676D01*
X88738095Y-73987676D02*
X88785714Y-74082914D01*
X88785714Y-74082914D02*
X88833333Y-74273390D01*
X88833333Y-74273390D02*
X88833333Y-74416247D01*
X88833333Y-74416247D02*
X88785714Y-74606723D01*
X88785714Y-74606723D02*
X88738095Y-74701961D01*
X88738095Y-74701961D02*
X88642857Y-74797200D01*
X88642857Y-74797200D02*
X88500000Y-74844819D01*
X88500000Y-74844819D02*
X88261905Y-74844819D01*
X89166667Y-73844819D02*
X89833333Y-73844819D01*
X89833333Y-73844819D02*
X89404762Y-74844819D01*
D11*
X90871428Y-77672371D02*
X90528571Y-77672371D01*
X90700000Y-77672371D02*
X90700000Y-77072371D01*
X90700000Y-77072371D02*
X90642857Y-77158085D01*
X90642857Y-77158085D02*
X90585714Y-77215228D01*
X90585714Y-77215228D02*
X90528571Y-77243800D01*
D10*
X114785714Y-74844819D02*
X114785714Y-73844819D01*
X114785714Y-73844819D02*
X115023809Y-73844819D01*
X115023809Y-73844819D02*
X115166666Y-73892438D01*
X115166666Y-73892438D02*
X115261904Y-73987676D01*
X115261904Y-73987676D02*
X115309523Y-74082914D01*
X115309523Y-74082914D02*
X115357142Y-74273390D01*
X115357142Y-74273390D02*
X115357142Y-74416247D01*
X115357142Y-74416247D02*
X115309523Y-74606723D01*
X115309523Y-74606723D02*
X115261904Y-74701961D01*
X115261904Y-74701961D02*
X115166666Y-74797200D01*
X115166666Y-74797200D02*
X115023809Y-74844819D01*
X115023809Y-74844819D02*
X114785714Y-74844819D01*
X116309523Y-74844819D02*
X115738095Y-74844819D01*
X116023809Y-74844819D02*
X116023809Y-73844819D01*
X116023809Y-73844819D02*
X115928571Y-73987676D01*
X115928571Y-73987676D02*
X115833333Y-74082914D01*
X115833333Y-74082914D02*
X115738095Y-74130533D01*
X116642857Y-73844819D02*
X117261904Y-73844819D01*
X117261904Y-73844819D02*
X116928571Y-74225771D01*
X116928571Y-74225771D02*
X117071428Y-74225771D01*
X117071428Y-74225771D02*
X117166666Y-74273390D01*
X117166666Y-74273390D02*
X117214285Y-74321009D01*
X117214285Y-74321009D02*
X117261904Y-74416247D01*
X117261904Y-74416247D02*
X117261904Y-74654342D01*
X117261904Y-74654342D02*
X117214285Y-74749580D01*
X117214285Y-74749580D02*
X117166666Y-74797200D01*
X117166666Y-74797200D02*
X117071428Y-74844819D01*
X117071428Y-74844819D02*
X116785714Y-74844819D01*
X116785714Y-74844819D02*
X116690476Y-74797200D01*
X116690476Y-74797200D02*
X116642857Y-74749580D01*
D11*
X117871428Y-77672371D02*
X117528571Y-77672371D01*
X117700000Y-77672371D02*
X117700000Y-77072371D01*
X117700000Y-77072371D02*
X117642857Y-77158085D01*
X117642857Y-77158085D02*
X117585714Y-77215228D01*
X117585714Y-77215228D02*
X117528571Y-77243800D01*
D10*
X130857142Y-79359580D02*
X130809523Y-79407200D01*
X130809523Y-79407200D02*
X130666666Y-79454819D01*
X130666666Y-79454819D02*
X130571428Y-79454819D01*
X130571428Y-79454819D02*
X130428571Y-79407200D01*
X130428571Y-79407200D02*
X130333333Y-79311961D01*
X130333333Y-79311961D02*
X130285714Y-79216723D01*
X130285714Y-79216723D02*
X130238095Y-79026247D01*
X130238095Y-79026247D02*
X130238095Y-78883390D01*
X130238095Y-78883390D02*
X130285714Y-78692914D01*
X130285714Y-78692914D02*
X130333333Y-78597676D01*
X130333333Y-78597676D02*
X130428571Y-78502438D01*
X130428571Y-78502438D02*
X130571428Y-78454819D01*
X130571428Y-78454819D02*
X130666666Y-78454819D01*
X130666666Y-78454819D02*
X130809523Y-78502438D01*
X130809523Y-78502438D02*
X130857142Y-78550057D01*
X131809523Y-79454819D02*
X131238095Y-79454819D01*
X131523809Y-79454819D02*
X131523809Y-78454819D01*
X131523809Y-78454819D02*
X131428571Y-78597676D01*
X131428571Y-78597676D02*
X131333333Y-78692914D01*
X131333333Y-78692914D02*
X131238095Y-78740533D01*
X132142857Y-78454819D02*
X132809523Y-78454819D01*
X132809523Y-78454819D02*
X132380952Y-79454819D01*
X114857142Y-81019580D02*
X114809523Y-81067200D01*
X114809523Y-81067200D02*
X114666666Y-81114819D01*
X114666666Y-81114819D02*
X114571428Y-81114819D01*
X114571428Y-81114819D02*
X114428571Y-81067200D01*
X114428571Y-81067200D02*
X114333333Y-80971961D01*
X114333333Y-80971961D02*
X114285714Y-80876723D01*
X114285714Y-80876723D02*
X114238095Y-80686247D01*
X114238095Y-80686247D02*
X114238095Y-80543390D01*
X114238095Y-80543390D02*
X114285714Y-80352914D01*
X114285714Y-80352914D02*
X114333333Y-80257676D01*
X114333333Y-80257676D02*
X114428571Y-80162438D01*
X114428571Y-80162438D02*
X114571428Y-80114819D01*
X114571428Y-80114819D02*
X114666666Y-80114819D01*
X114666666Y-80114819D02*
X114809523Y-80162438D01*
X114809523Y-80162438D02*
X114857142Y-80210057D01*
X115809523Y-81114819D02*
X115238095Y-81114819D01*
X115523809Y-81114819D02*
X115523809Y-80114819D01*
X115523809Y-80114819D02*
X115428571Y-80257676D01*
X115428571Y-80257676D02*
X115333333Y-80352914D01*
X115333333Y-80352914D02*
X115238095Y-80400533D01*
X116666666Y-80448152D02*
X116666666Y-81114819D01*
X116428571Y-80067200D02*
X116190476Y-80781485D01*
X116190476Y-80781485D02*
X116809523Y-80781485D01*
X88333333Y-81019580D02*
X88285714Y-81067200D01*
X88285714Y-81067200D02*
X88142857Y-81114819D01*
X88142857Y-81114819D02*
X88047619Y-81114819D01*
X88047619Y-81114819D02*
X87904762Y-81067200D01*
X87904762Y-81067200D02*
X87809524Y-80971961D01*
X87809524Y-80971961D02*
X87761905Y-80876723D01*
X87761905Y-80876723D02*
X87714286Y-80686247D01*
X87714286Y-80686247D02*
X87714286Y-80543390D01*
X87714286Y-80543390D02*
X87761905Y-80352914D01*
X87761905Y-80352914D02*
X87809524Y-80257676D01*
X87809524Y-80257676D02*
X87904762Y-80162438D01*
X87904762Y-80162438D02*
X88047619Y-80114819D01*
X88047619Y-80114819D02*
X88142857Y-80114819D01*
X88142857Y-80114819D02*
X88285714Y-80162438D01*
X88285714Y-80162438D02*
X88333333Y-80210057D01*
X88904762Y-80543390D02*
X88809524Y-80495771D01*
X88809524Y-80495771D02*
X88761905Y-80448152D01*
X88761905Y-80448152D02*
X88714286Y-80352914D01*
X88714286Y-80352914D02*
X88714286Y-80305295D01*
X88714286Y-80305295D02*
X88761905Y-80210057D01*
X88761905Y-80210057D02*
X88809524Y-80162438D01*
X88809524Y-80162438D02*
X88904762Y-80114819D01*
X88904762Y-80114819D02*
X89095238Y-80114819D01*
X89095238Y-80114819D02*
X89190476Y-80162438D01*
X89190476Y-80162438D02*
X89238095Y-80210057D01*
X89238095Y-80210057D02*
X89285714Y-80305295D01*
X89285714Y-80305295D02*
X89285714Y-80352914D01*
X89285714Y-80352914D02*
X89238095Y-80448152D01*
X89238095Y-80448152D02*
X89190476Y-80495771D01*
X89190476Y-80495771D02*
X89095238Y-80543390D01*
X89095238Y-80543390D02*
X88904762Y-80543390D01*
X88904762Y-80543390D02*
X88809524Y-80591009D01*
X88809524Y-80591009D02*
X88761905Y-80638628D01*
X88761905Y-80638628D02*
X88714286Y-80733866D01*
X88714286Y-80733866D02*
X88714286Y-80924342D01*
X88714286Y-80924342D02*
X88761905Y-81019580D01*
X88761905Y-81019580D02*
X88809524Y-81067200D01*
X88809524Y-81067200D02*
X88904762Y-81114819D01*
X88904762Y-81114819D02*
X89095238Y-81114819D01*
X89095238Y-81114819D02*
X89190476Y-81067200D01*
X89190476Y-81067200D02*
X89238095Y-81019580D01*
X89238095Y-81019580D02*
X89285714Y-80924342D01*
X89285714Y-80924342D02*
X89285714Y-80733866D01*
X89285714Y-80733866D02*
X89238095Y-80638628D01*
X89238095Y-80638628D02*
X89190476Y-80591009D01*
X89190476Y-80591009D02*
X89095238Y-80543390D01*
X70261905Y-74844819D02*
X70261905Y-73844819D01*
X70261905Y-73844819D02*
X70500000Y-73844819D01*
X70500000Y-73844819D02*
X70642857Y-73892438D01*
X70642857Y-73892438D02*
X70738095Y-73987676D01*
X70738095Y-73987676D02*
X70785714Y-74082914D01*
X70785714Y-74082914D02*
X70833333Y-74273390D01*
X70833333Y-74273390D02*
X70833333Y-74416247D01*
X70833333Y-74416247D02*
X70785714Y-74606723D01*
X70785714Y-74606723D02*
X70738095Y-74701961D01*
X70738095Y-74701961D02*
X70642857Y-74797200D01*
X70642857Y-74797200D02*
X70500000Y-74844819D01*
X70500000Y-74844819D02*
X70261905Y-74844819D01*
X71166667Y-73844819D02*
X71785714Y-73844819D01*
X71785714Y-73844819D02*
X71452381Y-74225771D01*
X71452381Y-74225771D02*
X71595238Y-74225771D01*
X71595238Y-74225771D02*
X71690476Y-74273390D01*
X71690476Y-74273390D02*
X71738095Y-74321009D01*
X71738095Y-74321009D02*
X71785714Y-74416247D01*
X71785714Y-74416247D02*
X71785714Y-74654342D01*
X71785714Y-74654342D02*
X71738095Y-74749580D01*
X71738095Y-74749580D02*
X71690476Y-74797200D01*
X71690476Y-74797200D02*
X71595238Y-74844819D01*
X71595238Y-74844819D02*
X71309524Y-74844819D01*
X71309524Y-74844819D02*
X71214286Y-74797200D01*
X71214286Y-74797200D02*
X71166667Y-74749580D01*
D11*
X72871428Y-77672371D02*
X72528571Y-77672371D01*
X72700000Y-77672371D02*
X72700000Y-77072371D01*
X72700000Y-77072371D02*
X72642857Y-77158085D01*
X72642857Y-77158085D02*
X72585714Y-77215228D01*
X72585714Y-77215228D02*
X72528571Y-77243800D01*
D10*
X74833333Y-81019580D02*
X74785714Y-81067200D01*
X74785714Y-81067200D02*
X74642857Y-81114819D01*
X74642857Y-81114819D02*
X74547619Y-81114819D01*
X74547619Y-81114819D02*
X74404762Y-81067200D01*
X74404762Y-81067200D02*
X74309524Y-80971961D01*
X74309524Y-80971961D02*
X74261905Y-80876723D01*
X74261905Y-80876723D02*
X74214286Y-80686247D01*
X74214286Y-80686247D02*
X74214286Y-80543390D01*
X74214286Y-80543390D02*
X74261905Y-80352914D01*
X74261905Y-80352914D02*
X74309524Y-80257676D01*
X74309524Y-80257676D02*
X74404762Y-80162438D01*
X74404762Y-80162438D02*
X74547619Y-80114819D01*
X74547619Y-80114819D02*
X74642857Y-80114819D01*
X74642857Y-80114819D02*
X74785714Y-80162438D01*
X74785714Y-80162438D02*
X74833333Y-80210057D01*
X75738095Y-80114819D02*
X75261905Y-80114819D01*
X75261905Y-80114819D02*
X75214286Y-80591009D01*
X75214286Y-80591009D02*
X75261905Y-80543390D01*
X75261905Y-80543390D02*
X75357143Y-80495771D01*
X75357143Y-80495771D02*
X75595238Y-80495771D01*
X75595238Y-80495771D02*
X75690476Y-80543390D01*
X75690476Y-80543390D02*
X75738095Y-80591009D01*
X75738095Y-80591009D02*
X75785714Y-80686247D01*
X75785714Y-80686247D02*
X75785714Y-80924342D01*
X75785714Y-80924342D02*
X75738095Y-81019580D01*
X75738095Y-81019580D02*
X75690476Y-81067200D01*
X75690476Y-81067200D02*
X75595238Y-81114819D01*
X75595238Y-81114819D02*
X75357143Y-81114819D01*
X75357143Y-81114819D02*
X75261905Y-81067200D01*
X75261905Y-81067200D02*
X75214286Y-81019580D01*
X92833333Y-81019580D02*
X92785714Y-81067200D01*
X92785714Y-81067200D02*
X92642857Y-81114819D01*
X92642857Y-81114819D02*
X92547619Y-81114819D01*
X92547619Y-81114819D02*
X92404762Y-81067200D01*
X92404762Y-81067200D02*
X92309524Y-80971961D01*
X92309524Y-80971961D02*
X92261905Y-80876723D01*
X92261905Y-80876723D02*
X92214286Y-80686247D01*
X92214286Y-80686247D02*
X92214286Y-80543390D01*
X92214286Y-80543390D02*
X92261905Y-80352914D01*
X92261905Y-80352914D02*
X92309524Y-80257676D01*
X92309524Y-80257676D02*
X92404762Y-80162438D01*
X92404762Y-80162438D02*
X92547619Y-80114819D01*
X92547619Y-80114819D02*
X92642857Y-80114819D01*
X92642857Y-80114819D02*
X92785714Y-80162438D01*
X92785714Y-80162438D02*
X92833333Y-80210057D01*
X93309524Y-81114819D02*
X93500000Y-81114819D01*
X93500000Y-81114819D02*
X93595238Y-81067200D01*
X93595238Y-81067200D02*
X93642857Y-81019580D01*
X93642857Y-81019580D02*
X93738095Y-80876723D01*
X93738095Y-80876723D02*
X93785714Y-80686247D01*
X93785714Y-80686247D02*
X93785714Y-80305295D01*
X93785714Y-80305295D02*
X93738095Y-80210057D01*
X93738095Y-80210057D02*
X93690476Y-80162438D01*
X93690476Y-80162438D02*
X93595238Y-80114819D01*
X93595238Y-80114819D02*
X93404762Y-80114819D01*
X93404762Y-80114819D02*
X93309524Y-80162438D01*
X93309524Y-80162438D02*
X93261905Y-80210057D01*
X93261905Y-80210057D02*
X93214286Y-80305295D01*
X93214286Y-80305295D02*
X93214286Y-80543390D01*
X93214286Y-80543390D02*
X93261905Y-80638628D01*
X93261905Y-80638628D02*
X93309524Y-80686247D01*
X93309524Y-80686247D02*
X93404762Y-80733866D01*
X93404762Y-80733866D02*
X93595238Y-80733866D01*
X93595238Y-80733866D02*
X93690476Y-80686247D01*
X93690476Y-80686247D02*
X93738095Y-80638628D01*
X93738095Y-80638628D02*
X93785714Y-80543390D01*
X83761905Y-74844819D02*
X83761905Y-73844819D01*
X83761905Y-73844819D02*
X84000000Y-73844819D01*
X84000000Y-73844819D02*
X84142857Y-73892438D01*
X84142857Y-73892438D02*
X84238095Y-73987676D01*
X84238095Y-73987676D02*
X84285714Y-74082914D01*
X84285714Y-74082914D02*
X84333333Y-74273390D01*
X84333333Y-74273390D02*
X84333333Y-74416247D01*
X84333333Y-74416247D02*
X84285714Y-74606723D01*
X84285714Y-74606723D02*
X84238095Y-74701961D01*
X84238095Y-74701961D02*
X84142857Y-74797200D01*
X84142857Y-74797200D02*
X84000000Y-74844819D01*
X84000000Y-74844819D02*
X83761905Y-74844819D01*
X85190476Y-73844819D02*
X85000000Y-73844819D01*
X85000000Y-73844819D02*
X84904762Y-73892438D01*
X84904762Y-73892438D02*
X84857143Y-73940057D01*
X84857143Y-73940057D02*
X84761905Y-74082914D01*
X84761905Y-74082914D02*
X84714286Y-74273390D01*
X84714286Y-74273390D02*
X84714286Y-74654342D01*
X84714286Y-74654342D02*
X84761905Y-74749580D01*
X84761905Y-74749580D02*
X84809524Y-74797200D01*
X84809524Y-74797200D02*
X84904762Y-74844819D01*
X84904762Y-74844819D02*
X85095238Y-74844819D01*
X85095238Y-74844819D02*
X85190476Y-74797200D01*
X85190476Y-74797200D02*
X85238095Y-74749580D01*
X85238095Y-74749580D02*
X85285714Y-74654342D01*
X85285714Y-74654342D02*
X85285714Y-74416247D01*
X85285714Y-74416247D02*
X85238095Y-74321009D01*
X85238095Y-74321009D02*
X85190476Y-74273390D01*
X85190476Y-74273390D02*
X85095238Y-74225771D01*
X85095238Y-74225771D02*
X84904762Y-74225771D01*
X84904762Y-74225771D02*
X84809524Y-74273390D01*
X84809524Y-74273390D02*
X84761905Y-74321009D01*
X84761905Y-74321009D02*
X84714286Y-74416247D01*
D11*
X86371428Y-77672371D02*
X86028571Y-77672371D01*
X86200000Y-77672371D02*
X86200000Y-77072371D01*
X86200000Y-77072371D02*
X86142857Y-77158085D01*
X86142857Y-77158085D02*
X86085714Y-77215228D01*
X86085714Y-77215228D02*
X86028571Y-77243800D01*
D10*
X61261905Y-74844819D02*
X61261905Y-73844819D01*
X61261905Y-73844819D02*
X61500000Y-73844819D01*
X61500000Y-73844819D02*
X61642857Y-73892438D01*
X61642857Y-73892438D02*
X61738095Y-73987676D01*
X61738095Y-73987676D02*
X61785714Y-74082914D01*
X61785714Y-74082914D02*
X61833333Y-74273390D01*
X61833333Y-74273390D02*
X61833333Y-74416247D01*
X61833333Y-74416247D02*
X61785714Y-74606723D01*
X61785714Y-74606723D02*
X61738095Y-74701961D01*
X61738095Y-74701961D02*
X61642857Y-74797200D01*
X61642857Y-74797200D02*
X61500000Y-74844819D01*
X61500000Y-74844819D02*
X61261905Y-74844819D01*
X62785714Y-74844819D02*
X62214286Y-74844819D01*
X62500000Y-74844819D02*
X62500000Y-73844819D01*
X62500000Y-73844819D02*
X62404762Y-73987676D01*
X62404762Y-73987676D02*
X62309524Y-74082914D01*
X62309524Y-74082914D02*
X62214286Y-74130533D01*
D11*
X63871428Y-77672371D02*
X63528571Y-77672371D01*
X63700000Y-77672371D02*
X63700000Y-77072371D01*
X63700000Y-77072371D02*
X63642857Y-77158085D01*
X63642857Y-77158085D02*
X63585714Y-77215228D01*
X63585714Y-77215228D02*
X63528571Y-77243800D01*
D10*
X119285714Y-74844819D02*
X119285714Y-73844819D01*
X119285714Y-73844819D02*
X119523809Y-73844819D01*
X119523809Y-73844819D02*
X119666666Y-73892438D01*
X119666666Y-73892438D02*
X119761904Y-73987676D01*
X119761904Y-73987676D02*
X119809523Y-74082914D01*
X119809523Y-74082914D02*
X119857142Y-74273390D01*
X119857142Y-74273390D02*
X119857142Y-74416247D01*
X119857142Y-74416247D02*
X119809523Y-74606723D01*
X119809523Y-74606723D02*
X119761904Y-74701961D01*
X119761904Y-74701961D02*
X119666666Y-74797200D01*
X119666666Y-74797200D02*
X119523809Y-74844819D01*
X119523809Y-74844819D02*
X119285714Y-74844819D01*
X120809523Y-74844819D02*
X120238095Y-74844819D01*
X120523809Y-74844819D02*
X120523809Y-73844819D01*
X120523809Y-73844819D02*
X120428571Y-73987676D01*
X120428571Y-73987676D02*
X120333333Y-74082914D01*
X120333333Y-74082914D02*
X120238095Y-74130533D01*
X121666666Y-74178152D02*
X121666666Y-74844819D01*
X121428571Y-73797200D02*
X121190476Y-74511485D01*
X121190476Y-74511485D02*
X121809523Y-74511485D01*
D11*
X122371428Y-77672371D02*
X122028571Y-77672371D01*
X122200000Y-77672371D02*
X122200000Y-77072371D01*
X122200000Y-77072371D02*
X122142857Y-77158085D01*
X122142857Y-77158085D02*
X122085714Y-77215228D01*
X122085714Y-77215228D02*
X122028571Y-77243800D01*
D10*
X92761905Y-74844819D02*
X92761905Y-73844819D01*
X92761905Y-73844819D02*
X93000000Y-73844819D01*
X93000000Y-73844819D02*
X93142857Y-73892438D01*
X93142857Y-73892438D02*
X93238095Y-73987676D01*
X93238095Y-73987676D02*
X93285714Y-74082914D01*
X93285714Y-74082914D02*
X93333333Y-74273390D01*
X93333333Y-74273390D02*
X93333333Y-74416247D01*
X93333333Y-74416247D02*
X93285714Y-74606723D01*
X93285714Y-74606723D02*
X93238095Y-74701961D01*
X93238095Y-74701961D02*
X93142857Y-74797200D01*
X93142857Y-74797200D02*
X93000000Y-74844819D01*
X93000000Y-74844819D02*
X92761905Y-74844819D01*
X93904762Y-74273390D02*
X93809524Y-74225771D01*
X93809524Y-74225771D02*
X93761905Y-74178152D01*
X93761905Y-74178152D02*
X93714286Y-74082914D01*
X93714286Y-74082914D02*
X93714286Y-74035295D01*
X93714286Y-74035295D02*
X93761905Y-73940057D01*
X93761905Y-73940057D02*
X93809524Y-73892438D01*
X93809524Y-73892438D02*
X93904762Y-73844819D01*
X93904762Y-73844819D02*
X94095238Y-73844819D01*
X94095238Y-73844819D02*
X94190476Y-73892438D01*
X94190476Y-73892438D02*
X94238095Y-73940057D01*
X94238095Y-73940057D02*
X94285714Y-74035295D01*
X94285714Y-74035295D02*
X94285714Y-74082914D01*
X94285714Y-74082914D02*
X94238095Y-74178152D01*
X94238095Y-74178152D02*
X94190476Y-74225771D01*
X94190476Y-74225771D02*
X94095238Y-74273390D01*
X94095238Y-74273390D02*
X93904762Y-74273390D01*
X93904762Y-74273390D02*
X93809524Y-74321009D01*
X93809524Y-74321009D02*
X93761905Y-74368628D01*
X93761905Y-74368628D02*
X93714286Y-74463866D01*
X93714286Y-74463866D02*
X93714286Y-74654342D01*
X93714286Y-74654342D02*
X93761905Y-74749580D01*
X93761905Y-74749580D02*
X93809524Y-74797200D01*
X93809524Y-74797200D02*
X93904762Y-74844819D01*
X93904762Y-74844819D02*
X94095238Y-74844819D01*
X94095238Y-74844819D02*
X94190476Y-74797200D01*
X94190476Y-74797200D02*
X94238095Y-74749580D01*
X94238095Y-74749580D02*
X94285714Y-74654342D01*
X94285714Y-74654342D02*
X94285714Y-74463866D01*
X94285714Y-74463866D02*
X94238095Y-74368628D01*
X94238095Y-74368628D02*
X94190476Y-74321009D01*
X94190476Y-74321009D02*
X94095238Y-74273390D01*
D11*
X95371428Y-77672371D02*
X95028571Y-77672371D01*
X95200000Y-77672371D02*
X95200000Y-77072371D01*
X95200000Y-77072371D02*
X95142857Y-77158085D01*
X95142857Y-77158085D02*
X95085714Y-77215228D01*
X95085714Y-77215228D02*
X95028571Y-77243800D01*
D10*
X119357142Y-81019580D02*
X119309523Y-81067200D01*
X119309523Y-81067200D02*
X119166666Y-81114819D01*
X119166666Y-81114819D02*
X119071428Y-81114819D01*
X119071428Y-81114819D02*
X118928571Y-81067200D01*
X118928571Y-81067200D02*
X118833333Y-80971961D01*
X118833333Y-80971961D02*
X118785714Y-80876723D01*
X118785714Y-80876723D02*
X118738095Y-80686247D01*
X118738095Y-80686247D02*
X118738095Y-80543390D01*
X118738095Y-80543390D02*
X118785714Y-80352914D01*
X118785714Y-80352914D02*
X118833333Y-80257676D01*
X118833333Y-80257676D02*
X118928571Y-80162438D01*
X118928571Y-80162438D02*
X119071428Y-80114819D01*
X119071428Y-80114819D02*
X119166666Y-80114819D01*
X119166666Y-80114819D02*
X119309523Y-80162438D01*
X119309523Y-80162438D02*
X119357142Y-80210057D01*
X120309523Y-81114819D02*
X119738095Y-81114819D01*
X120023809Y-81114819D02*
X120023809Y-80114819D01*
X120023809Y-80114819D02*
X119928571Y-80257676D01*
X119928571Y-80257676D02*
X119833333Y-80352914D01*
X119833333Y-80352914D02*
X119738095Y-80400533D01*
X121214285Y-80114819D02*
X120738095Y-80114819D01*
X120738095Y-80114819D02*
X120690476Y-80591009D01*
X120690476Y-80591009D02*
X120738095Y-80543390D01*
X120738095Y-80543390D02*
X120833333Y-80495771D01*
X120833333Y-80495771D02*
X121071428Y-80495771D01*
X121071428Y-80495771D02*
X121166666Y-80543390D01*
X121166666Y-80543390D02*
X121214285Y-80591009D01*
X121214285Y-80591009D02*
X121261904Y-80686247D01*
X121261904Y-80686247D02*
X121261904Y-80924342D01*
X121261904Y-80924342D02*
X121214285Y-81019580D01*
X121214285Y-81019580D02*
X121166666Y-81067200D01*
X121166666Y-81067200D02*
X121071428Y-81114819D01*
X121071428Y-81114819D02*
X120833333Y-81114819D01*
X120833333Y-81114819D02*
X120738095Y-81067200D01*
X120738095Y-81067200D02*
X120690476Y-81019580D01*
X101285714Y-74844819D02*
X101285714Y-73844819D01*
X101285714Y-73844819D02*
X101523809Y-73844819D01*
X101523809Y-73844819D02*
X101666666Y-73892438D01*
X101666666Y-73892438D02*
X101761904Y-73987676D01*
X101761904Y-73987676D02*
X101809523Y-74082914D01*
X101809523Y-74082914D02*
X101857142Y-74273390D01*
X101857142Y-74273390D02*
X101857142Y-74416247D01*
X101857142Y-74416247D02*
X101809523Y-74606723D01*
X101809523Y-74606723D02*
X101761904Y-74701961D01*
X101761904Y-74701961D02*
X101666666Y-74797200D01*
X101666666Y-74797200D02*
X101523809Y-74844819D01*
X101523809Y-74844819D02*
X101285714Y-74844819D01*
X102809523Y-74844819D02*
X102238095Y-74844819D01*
X102523809Y-74844819D02*
X102523809Y-73844819D01*
X102523809Y-73844819D02*
X102428571Y-73987676D01*
X102428571Y-73987676D02*
X102333333Y-74082914D01*
X102333333Y-74082914D02*
X102238095Y-74130533D01*
X103428571Y-73844819D02*
X103523809Y-73844819D01*
X103523809Y-73844819D02*
X103619047Y-73892438D01*
X103619047Y-73892438D02*
X103666666Y-73940057D01*
X103666666Y-73940057D02*
X103714285Y-74035295D01*
X103714285Y-74035295D02*
X103761904Y-74225771D01*
X103761904Y-74225771D02*
X103761904Y-74463866D01*
X103761904Y-74463866D02*
X103714285Y-74654342D01*
X103714285Y-74654342D02*
X103666666Y-74749580D01*
X103666666Y-74749580D02*
X103619047Y-74797200D01*
X103619047Y-74797200D02*
X103523809Y-74844819D01*
X103523809Y-74844819D02*
X103428571Y-74844819D01*
X103428571Y-74844819D02*
X103333333Y-74797200D01*
X103333333Y-74797200D02*
X103285714Y-74749580D01*
X103285714Y-74749580D02*
X103238095Y-74654342D01*
X103238095Y-74654342D02*
X103190476Y-74463866D01*
X103190476Y-74463866D02*
X103190476Y-74225771D01*
X103190476Y-74225771D02*
X103238095Y-74035295D01*
X103238095Y-74035295D02*
X103285714Y-73940057D01*
X103285714Y-73940057D02*
X103333333Y-73892438D01*
X103333333Y-73892438D02*
X103428571Y-73844819D01*
D11*
X104371428Y-77672371D02*
X104028571Y-77672371D01*
X104200000Y-77672371D02*
X104200000Y-77072371D01*
X104200000Y-77072371D02*
X104142857Y-77158085D01*
X104142857Y-77158085D02*
X104085714Y-77215228D01*
X104085714Y-77215228D02*
X104028571Y-77243800D01*
D10*
X128285714Y-74844819D02*
X128285714Y-73844819D01*
X128285714Y-73844819D02*
X128523809Y-73844819D01*
X128523809Y-73844819D02*
X128666666Y-73892438D01*
X128666666Y-73892438D02*
X128761904Y-73987676D01*
X128761904Y-73987676D02*
X128809523Y-74082914D01*
X128809523Y-74082914D02*
X128857142Y-74273390D01*
X128857142Y-74273390D02*
X128857142Y-74416247D01*
X128857142Y-74416247D02*
X128809523Y-74606723D01*
X128809523Y-74606723D02*
X128761904Y-74701961D01*
X128761904Y-74701961D02*
X128666666Y-74797200D01*
X128666666Y-74797200D02*
X128523809Y-74844819D01*
X128523809Y-74844819D02*
X128285714Y-74844819D01*
X129809523Y-74844819D02*
X129238095Y-74844819D01*
X129523809Y-74844819D02*
X129523809Y-73844819D01*
X129523809Y-73844819D02*
X129428571Y-73987676D01*
X129428571Y-73987676D02*
X129333333Y-74082914D01*
X129333333Y-74082914D02*
X129238095Y-74130533D01*
X130666666Y-73844819D02*
X130476190Y-73844819D01*
X130476190Y-73844819D02*
X130380952Y-73892438D01*
X130380952Y-73892438D02*
X130333333Y-73940057D01*
X130333333Y-73940057D02*
X130238095Y-74082914D01*
X130238095Y-74082914D02*
X130190476Y-74273390D01*
X130190476Y-74273390D02*
X130190476Y-74654342D01*
X130190476Y-74654342D02*
X130238095Y-74749580D01*
X130238095Y-74749580D02*
X130285714Y-74797200D01*
X130285714Y-74797200D02*
X130380952Y-74844819D01*
X130380952Y-74844819D02*
X130571428Y-74844819D01*
X130571428Y-74844819D02*
X130666666Y-74797200D01*
X130666666Y-74797200D02*
X130714285Y-74749580D01*
X130714285Y-74749580D02*
X130761904Y-74654342D01*
X130761904Y-74654342D02*
X130761904Y-74416247D01*
X130761904Y-74416247D02*
X130714285Y-74321009D01*
X130714285Y-74321009D02*
X130666666Y-74273390D01*
X130666666Y-74273390D02*
X130571428Y-74225771D01*
X130571428Y-74225771D02*
X130380952Y-74225771D01*
X130380952Y-74225771D02*
X130285714Y-74273390D01*
X130285714Y-74273390D02*
X130238095Y-74321009D01*
X130238095Y-74321009D02*
X130190476Y-74416247D01*
D11*
X131371428Y-77672371D02*
X131028571Y-77672371D01*
X131200000Y-77672371D02*
X131200000Y-77072371D01*
X131200000Y-77072371D02*
X131142857Y-77158085D01*
X131142857Y-77158085D02*
X131085714Y-77215228D01*
X131085714Y-77215228D02*
X131028571Y-77243800D01*
D10*
X65761905Y-74844819D02*
X65761905Y-73844819D01*
X65761905Y-73844819D02*
X66000000Y-73844819D01*
X66000000Y-73844819D02*
X66142857Y-73892438D01*
X66142857Y-73892438D02*
X66238095Y-73987676D01*
X66238095Y-73987676D02*
X66285714Y-74082914D01*
X66285714Y-74082914D02*
X66333333Y-74273390D01*
X66333333Y-74273390D02*
X66333333Y-74416247D01*
X66333333Y-74416247D02*
X66285714Y-74606723D01*
X66285714Y-74606723D02*
X66238095Y-74701961D01*
X66238095Y-74701961D02*
X66142857Y-74797200D01*
X66142857Y-74797200D02*
X66000000Y-74844819D01*
X66000000Y-74844819D02*
X65761905Y-74844819D01*
X66714286Y-73940057D02*
X66761905Y-73892438D01*
X66761905Y-73892438D02*
X66857143Y-73844819D01*
X66857143Y-73844819D02*
X67095238Y-73844819D01*
X67095238Y-73844819D02*
X67190476Y-73892438D01*
X67190476Y-73892438D02*
X67238095Y-73940057D01*
X67238095Y-73940057D02*
X67285714Y-74035295D01*
X67285714Y-74035295D02*
X67285714Y-74130533D01*
X67285714Y-74130533D02*
X67238095Y-74273390D01*
X67238095Y-74273390D02*
X66666667Y-74844819D01*
X66666667Y-74844819D02*
X67285714Y-74844819D01*
D11*
X68371428Y-77672371D02*
X68028571Y-77672371D01*
X68200000Y-77672371D02*
X68200000Y-77072371D01*
X68200000Y-77072371D02*
X68142857Y-77158085D01*
X68142857Y-77158085D02*
X68085714Y-77215228D01*
X68085714Y-77215228D02*
X68028571Y-77243800D01*
D10*
X70333333Y-81019580D02*
X70285714Y-81067200D01*
X70285714Y-81067200D02*
X70142857Y-81114819D01*
X70142857Y-81114819D02*
X70047619Y-81114819D01*
X70047619Y-81114819D02*
X69904762Y-81067200D01*
X69904762Y-81067200D02*
X69809524Y-80971961D01*
X69809524Y-80971961D02*
X69761905Y-80876723D01*
X69761905Y-80876723D02*
X69714286Y-80686247D01*
X69714286Y-80686247D02*
X69714286Y-80543390D01*
X69714286Y-80543390D02*
X69761905Y-80352914D01*
X69761905Y-80352914D02*
X69809524Y-80257676D01*
X69809524Y-80257676D02*
X69904762Y-80162438D01*
X69904762Y-80162438D02*
X70047619Y-80114819D01*
X70047619Y-80114819D02*
X70142857Y-80114819D01*
X70142857Y-80114819D02*
X70285714Y-80162438D01*
X70285714Y-80162438D02*
X70333333Y-80210057D01*
X71190476Y-80448152D02*
X71190476Y-81114819D01*
X70952381Y-80067200D02*
X70714286Y-80781485D01*
X70714286Y-80781485D02*
X71333333Y-80781485D01*
X105857142Y-81019580D02*
X105809523Y-81067200D01*
X105809523Y-81067200D02*
X105666666Y-81114819D01*
X105666666Y-81114819D02*
X105571428Y-81114819D01*
X105571428Y-81114819D02*
X105428571Y-81067200D01*
X105428571Y-81067200D02*
X105333333Y-80971961D01*
X105333333Y-80971961D02*
X105285714Y-80876723D01*
X105285714Y-80876723D02*
X105238095Y-80686247D01*
X105238095Y-80686247D02*
X105238095Y-80543390D01*
X105238095Y-80543390D02*
X105285714Y-80352914D01*
X105285714Y-80352914D02*
X105333333Y-80257676D01*
X105333333Y-80257676D02*
X105428571Y-80162438D01*
X105428571Y-80162438D02*
X105571428Y-80114819D01*
X105571428Y-80114819D02*
X105666666Y-80114819D01*
X105666666Y-80114819D02*
X105809523Y-80162438D01*
X105809523Y-80162438D02*
X105857142Y-80210057D01*
X106809523Y-81114819D02*
X106238095Y-81114819D01*
X106523809Y-81114819D02*
X106523809Y-80114819D01*
X106523809Y-80114819D02*
X106428571Y-80257676D01*
X106428571Y-80257676D02*
X106333333Y-80352914D01*
X106333333Y-80352914D02*
X106238095Y-80400533D01*
X107190476Y-80210057D02*
X107238095Y-80162438D01*
X107238095Y-80162438D02*
X107333333Y-80114819D01*
X107333333Y-80114819D02*
X107571428Y-80114819D01*
X107571428Y-80114819D02*
X107666666Y-80162438D01*
X107666666Y-80162438D02*
X107714285Y-80210057D01*
X107714285Y-80210057D02*
X107761904Y-80305295D01*
X107761904Y-80305295D02*
X107761904Y-80400533D01*
X107761904Y-80400533D02*
X107714285Y-80543390D01*
X107714285Y-80543390D02*
X107142857Y-81114819D01*
X107142857Y-81114819D02*
X107761904Y-81114819D01*
X79333333Y-81019580D02*
X79285714Y-81067200D01*
X79285714Y-81067200D02*
X79142857Y-81114819D01*
X79142857Y-81114819D02*
X79047619Y-81114819D01*
X79047619Y-81114819D02*
X78904762Y-81067200D01*
X78904762Y-81067200D02*
X78809524Y-80971961D01*
X78809524Y-80971961D02*
X78761905Y-80876723D01*
X78761905Y-80876723D02*
X78714286Y-80686247D01*
X78714286Y-80686247D02*
X78714286Y-80543390D01*
X78714286Y-80543390D02*
X78761905Y-80352914D01*
X78761905Y-80352914D02*
X78809524Y-80257676D01*
X78809524Y-80257676D02*
X78904762Y-80162438D01*
X78904762Y-80162438D02*
X79047619Y-80114819D01*
X79047619Y-80114819D02*
X79142857Y-80114819D01*
X79142857Y-80114819D02*
X79285714Y-80162438D01*
X79285714Y-80162438D02*
X79333333Y-80210057D01*
X80190476Y-80114819D02*
X80000000Y-80114819D01*
X80000000Y-80114819D02*
X79904762Y-80162438D01*
X79904762Y-80162438D02*
X79857143Y-80210057D01*
X79857143Y-80210057D02*
X79761905Y-80352914D01*
X79761905Y-80352914D02*
X79714286Y-80543390D01*
X79714286Y-80543390D02*
X79714286Y-80924342D01*
X79714286Y-80924342D02*
X79761905Y-81019580D01*
X79761905Y-81019580D02*
X79809524Y-81067200D01*
X79809524Y-81067200D02*
X79904762Y-81114819D01*
X79904762Y-81114819D02*
X80095238Y-81114819D01*
X80095238Y-81114819D02*
X80190476Y-81067200D01*
X80190476Y-81067200D02*
X80238095Y-81019580D01*
X80238095Y-81019580D02*
X80285714Y-80924342D01*
X80285714Y-80924342D02*
X80285714Y-80686247D01*
X80285714Y-80686247D02*
X80238095Y-80591009D01*
X80238095Y-80591009D02*
X80190476Y-80543390D01*
X80190476Y-80543390D02*
X80095238Y-80495771D01*
X80095238Y-80495771D02*
X79904762Y-80495771D01*
X79904762Y-80495771D02*
X79809524Y-80543390D01*
X79809524Y-80543390D02*
X79761905Y-80591009D01*
X79761905Y-80591009D02*
X79714286Y-80686247D01*
X83833333Y-81019580D02*
X83785714Y-81067200D01*
X83785714Y-81067200D02*
X83642857Y-81114819D01*
X83642857Y-81114819D02*
X83547619Y-81114819D01*
X83547619Y-81114819D02*
X83404762Y-81067200D01*
X83404762Y-81067200D02*
X83309524Y-80971961D01*
X83309524Y-80971961D02*
X83261905Y-80876723D01*
X83261905Y-80876723D02*
X83214286Y-80686247D01*
X83214286Y-80686247D02*
X83214286Y-80543390D01*
X83214286Y-80543390D02*
X83261905Y-80352914D01*
X83261905Y-80352914D02*
X83309524Y-80257676D01*
X83309524Y-80257676D02*
X83404762Y-80162438D01*
X83404762Y-80162438D02*
X83547619Y-80114819D01*
X83547619Y-80114819D02*
X83642857Y-80114819D01*
X83642857Y-80114819D02*
X83785714Y-80162438D01*
X83785714Y-80162438D02*
X83833333Y-80210057D01*
X84166667Y-80114819D02*
X84833333Y-80114819D01*
X84833333Y-80114819D02*
X84404762Y-81114819D01*
X79261905Y-74844819D02*
X79261905Y-73844819D01*
X79261905Y-73844819D02*
X79500000Y-73844819D01*
X79500000Y-73844819D02*
X79642857Y-73892438D01*
X79642857Y-73892438D02*
X79738095Y-73987676D01*
X79738095Y-73987676D02*
X79785714Y-74082914D01*
X79785714Y-74082914D02*
X79833333Y-74273390D01*
X79833333Y-74273390D02*
X79833333Y-74416247D01*
X79833333Y-74416247D02*
X79785714Y-74606723D01*
X79785714Y-74606723D02*
X79738095Y-74701961D01*
X79738095Y-74701961D02*
X79642857Y-74797200D01*
X79642857Y-74797200D02*
X79500000Y-74844819D01*
X79500000Y-74844819D02*
X79261905Y-74844819D01*
X80738095Y-73844819D02*
X80261905Y-73844819D01*
X80261905Y-73844819D02*
X80214286Y-74321009D01*
X80214286Y-74321009D02*
X80261905Y-74273390D01*
X80261905Y-74273390D02*
X80357143Y-74225771D01*
X80357143Y-74225771D02*
X80595238Y-74225771D01*
X80595238Y-74225771D02*
X80690476Y-74273390D01*
X80690476Y-74273390D02*
X80738095Y-74321009D01*
X80738095Y-74321009D02*
X80785714Y-74416247D01*
X80785714Y-74416247D02*
X80785714Y-74654342D01*
X80785714Y-74654342D02*
X80738095Y-74749580D01*
X80738095Y-74749580D02*
X80690476Y-74797200D01*
X80690476Y-74797200D02*
X80595238Y-74844819D01*
X80595238Y-74844819D02*
X80357143Y-74844819D01*
X80357143Y-74844819D02*
X80261905Y-74797200D01*
X80261905Y-74797200D02*
X80214286Y-74749580D01*
D11*
X81871428Y-77672371D02*
X81528571Y-77672371D01*
X81700000Y-77672371D02*
X81700000Y-77072371D01*
X81700000Y-77072371D02*
X81642857Y-77158085D01*
X81642857Y-77158085D02*
X81585714Y-77215228D01*
X81585714Y-77215228D02*
X81528571Y-77243800D01*
D10*
X101357142Y-81019580D02*
X101309523Y-81067200D01*
X101309523Y-81067200D02*
X101166666Y-81114819D01*
X101166666Y-81114819D02*
X101071428Y-81114819D01*
X101071428Y-81114819D02*
X100928571Y-81067200D01*
X100928571Y-81067200D02*
X100833333Y-80971961D01*
X100833333Y-80971961D02*
X100785714Y-80876723D01*
X100785714Y-80876723D02*
X100738095Y-80686247D01*
X100738095Y-80686247D02*
X100738095Y-80543390D01*
X100738095Y-80543390D02*
X100785714Y-80352914D01*
X100785714Y-80352914D02*
X100833333Y-80257676D01*
X100833333Y-80257676D02*
X100928571Y-80162438D01*
X100928571Y-80162438D02*
X101071428Y-80114819D01*
X101071428Y-80114819D02*
X101166666Y-80114819D01*
X101166666Y-80114819D02*
X101309523Y-80162438D01*
X101309523Y-80162438D02*
X101357142Y-80210057D01*
X102309523Y-81114819D02*
X101738095Y-81114819D01*
X102023809Y-81114819D02*
X102023809Y-80114819D01*
X102023809Y-80114819D02*
X101928571Y-80257676D01*
X101928571Y-80257676D02*
X101833333Y-80352914D01*
X101833333Y-80352914D02*
X101738095Y-80400533D01*
X103261904Y-81114819D02*
X102690476Y-81114819D01*
X102976190Y-81114819D02*
X102976190Y-80114819D01*
X102976190Y-80114819D02*
X102880952Y-80257676D01*
X102880952Y-80257676D02*
X102785714Y-80352914D01*
X102785714Y-80352914D02*
X102690476Y-80400533D01*
X123857142Y-81019580D02*
X123809523Y-81067200D01*
X123809523Y-81067200D02*
X123666666Y-81114819D01*
X123666666Y-81114819D02*
X123571428Y-81114819D01*
X123571428Y-81114819D02*
X123428571Y-81067200D01*
X123428571Y-81067200D02*
X123333333Y-80971961D01*
X123333333Y-80971961D02*
X123285714Y-80876723D01*
X123285714Y-80876723D02*
X123238095Y-80686247D01*
X123238095Y-80686247D02*
X123238095Y-80543390D01*
X123238095Y-80543390D02*
X123285714Y-80352914D01*
X123285714Y-80352914D02*
X123333333Y-80257676D01*
X123333333Y-80257676D02*
X123428571Y-80162438D01*
X123428571Y-80162438D02*
X123571428Y-80114819D01*
X123571428Y-80114819D02*
X123666666Y-80114819D01*
X123666666Y-80114819D02*
X123809523Y-80162438D01*
X123809523Y-80162438D02*
X123857142Y-80210057D01*
X124809523Y-81114819D02*
X124238095Y-81114819D01*
X124523809Y-81114819D02*
X124523809Y-80114819D01*
X124523809Y-80114819D02*
X124428571Y-80257676D01*
X124428571Y-80257676D02*
X124333333Y-80352914D01*
X124333333Y-80352914D02*
X124238095Y-80400533D01*
X125666666Y-80114819D02*
X125476190Y-80114819D01*
X125476190Y-80114819D02*
X125380952Y-80162438D01*
X125380952Y-80162438D02*
X125333333Y-80210057D01*
X125333333Y-80210057D02*
X125238095Y-80352914D01*
X125238095Y-80352914D02*
X125190476Y-80543390D01*
X125190476Y-80543390D02*
X125190476Y-80924342D01*
X125190476Y-80924342D02*
X125238095Y-81019580D01*
X125238095Y-81019580D02*
X125285714Y-81067200D01*
X125285714Y-81067200D02*
X125380952Y-81114819D01*
X125380952Y-81114819D02*
X125571428Y-81114819D01*
X125571428Y-81114819D02*
X125666666Y-81067200D01*
X125666666Y-81067200D02*
X125714285Y-81019580D01*
X125714285Y-81019580D02*
X125761904Y-80924342D01*
X125761904Y-80924342D02*
X125761904Y-80686247D01*
X125761904Y-80686247D02*
X125714285Y-80591009D01*
X125714285Y-80591009D02*
X125666666Y-80543390D01*
X125666666Y-80543390D02*
X125571428Y-80495771D01*
X125571428Y-80495771D02*
X125380952Y-80495771D01*
X125380952Y-80495771D02*
X125285714Y-80543390D01*
X125285714Y-80543390D02*
X125238095Y-80591009D01*
X125238095Y-80591009D02*
X125190476Y-80686247D01*
X96857142Y-81019580D02*
X96809523Y-81067200D01*
X96809523Y-81067200D02*
X96666666Y-81114819D01*
X96666666Y-81114819D02*
X96571428Y-81114819D01*
X96571428Y-81114819D02*
X96428571Y-81067200D01*
X96428571Y-81067200D02*
X96333333Y-80971961D01*
X96333333Y-80971961D02*
X96285714Y-80876723D01*
X96285714Y-80876723D02*
X96238095Y-80686247D01*
X96238095Y-80686247D02*
X96238095Y-80543390D01*
X96238095Y-80543390D02*
X96285714Y-80352914D01*
X96285714Y-80352914D02*
X96333333Y-80257676D01*
X96333333Y-80257676D02*
X96428571Y-80162438D01*
X96428571Y-80162438D02*
X96571428Y-80114819D01*
X96571428Y-80114819D02*
X96666666Y-80114819D01*
X96666666Y-80114819D02*
X96809523Y-80162438D01*
X96809523Y-80162438D02*
X96857142Y-80210057D01*
X97809523Y-81114819D02*
X97238095Y-81114819D01*
X97523809Y-81114819D02*
X97523809Y-80114819D01*
X97523809Y-80114819D02*
X97428571Y-80257676D01*
X97428571Y-80257676D02*
X97333333Y-80352914D01*
X97333333Y-80352914D02*
X97238095Y-80400533D01*
X98428571Y-80114819D02*
X98523809Y-80114819D01*
X98523809Y-80114819D02*
X98619047Y-80162438D01*
X98619047Y-80162438D02*
X98666666Y-80210057D01*
X98666666Y-80210057D02*
X98714285Y-80305295D01*
X98714285Y-80305295D02*
X98761904Y-80495771D01*
X98761904Y-80495771D02*
X98761904Y-80733866D01*
X98761904Y-80733866D02*
X98714285Y-80924342D01*
X98714285Y-80924342D02*
X98666666Y-81019580D01*
X98666666Y-81019580D02*
X98619047Y-81067200D01*
X98619047Y-81067200D02*
X98523809Y-81114819D01*
X98523809Y-81114819D02*
X98428571Y-81114819D01*
X98428571Y-81114819D02*
X98333333Y-81067200D01*
X98333333Y-81067200D02*
X98285714Y-81019580D01*
X98285714Y-81019580D02*
X98238095Y-80924342D01*
X98238095Y-80924342D02*
X98190476Y-80733866D01*
X98190476Y-80733866D02*
X98190476Y-80495771D01*
X98190476Y-80495771D02*
X98238095Y-80305295D01*
X98238095Y-80305295D02*
X98285714Y-80210057D01*
X98285714Y-80210057D02*
X98333333Y-80162438D01*
X98333333Y-80162438D02*
X98428571Y-80114819D01*
X59333333Y-79859580D02*
X59285714Y-79907200D01*
X59285714Y-79907200D02*
X59142857Y-79954819D01*
X59142857Y-79954819D02*
X59047619Y-79954819D01*
X59047619Y-79954819D02*
X58904762Y-79907200D01*
X58904762Y-79907200D02*
X58809524Y-79811961D01*
X58809524Y-79811961D02*
X58761905Y-79716723D01*
X58761905Y-79716723D02*
X58714286Y-79526247D01*
X58714286Y-79526247D02*
X58714286Y-79383390D01*
X58714286Y-79383390D02*
X58761905Y-79192914D01*
X58761905Y-79192914D02*
X58809524Y-79097676D01*
X58809524Y-79097676D02*
X58904762Y-79002438D01*
X58904762Y-79002438D02*
X59047619Y-78954819D01*
X59047619Y-78954819D02*
X59142857Y-78954819D01*
X59142857Y-78954819D02*
X59285714Y-79002438D01*
X59285714Y-79002438D02*
X59333333Y-79050057D01*
X59714286Y-79050057D02*
X59761905Y-79002438D01*
X59761905Y-79002438D02*
X59857143Y-78954819D01*
X59857143Y-78954819D02*
X60095238Y-78954819D01*
X60095238Y-78954819D02*
X60190476Y-79002438D01*
X60190476Y-79002438D02*
X60238095Y-79050057D01*
X60238095Y-79050057D02*
X60285714Y-79145295D01*
X60285714Y-79145295D02*
X60285714Y-79240533D01*
X60285714Y-79240533D02*
X60238095Y-79383390D01*
X60238095Y-79383390D02*
X59666667Y-79954819D01*
X59666667Y-79954819D02*
X60285714Y-79954819D01*
D12*
%TO.C,C13*%
X111115835Y-79860000D02*
X110884165Y-79860000D01*
X111115835Y-79140000D02*
X110884165Y-79140000D01*
%TO.C,D9*%
X99200000Y-75100000D02*
X98500000Y-75100000D01*
%TO.C,D12*%
X112700000Y-75100000D02*
X112000000Y-75100000D01*
%TO.C,C3*%
X66115835Y-79860000D02*
X65884165Y-79860000D01*
X66115835Y-79140000D02*
X65884165Y-79140000D01*
%TO.C,D4*%
X76700000Y-75100000D02*
X76000000Y-75100000D01*
%TO.C,D11*%
X108200000Y-75100000D02*
X107500000Y-75100000D01*
%TO.C,D15*%
X126200000Y-75100000D02*
X125500000Y-75100000D01*
%TO.C,D7*%
X90200000Y-75100000D02*
X89500000Y-75100000D01*
%TO.C,D13*%
X117200000Y-75100000D02*
X116500000Y-75100000D01*
%TO.C,C17*%
X129115835Y-79360000D02*
X128884165Y-79360000D01*
X129115835Y-78640000D02*
X128884165Y-78640000D01*
%TO.C,C14*%
X115615835Y-79860000D02*
X115384165Y-79860000D01*
X115615835Y-79140000D02*
X115384165Y-79140000D01*
%TO.C,C8*%
X88615835Y-79860000D02*
X88384165Y-79860000D01*
X88615835Y-79140000D02*
X88384165Y-79140000D01*
%TO.C,D3*%
X72200000Y-75100000D02*
X71500000Y-75100000D01*
%TO.C,C5*%
X75115835Y-79860000D02*
X74884165Y-79860000D01*
X75115835Y-79140000D02*
X74884165Y-79140000D01*
%TO.C,C9*%
X93115835Y-79860000D02*
X92884165Y-79860000D01*
X93115835Y-79140000D02*
X92884165Y-79140000D01*
%TO.C,D6*%
X85700000Y-75100000D02*
X85000000Y-75100000D01*
%TO.C,D1*%
X63200000Y-75100000D02*
X62500000Y-75100000D01*
%TO.C,D14*%
X121700000Y-75100000D02*
X121000000Y-75100000D01*
%TO.C,D8*%
X94700000Y-75100000D02*
X94000000Y-75100000D01*
%TO.C,C15*%
X120115835Y-79860000D02*
X119884165Y-79860000D01*
X120115835Y-79140000D02*
X119884165Y-79140000D01*
%TO.C,D10*%
X103700000Y-75100000D02*
X103000000Y-75100000D01*
%TO.C,D16*%
X130700000Y-75100000D02*
X130000000Y-75100000D01*
%TO.C,D2*%
X67700000Y-75100000D02*
X67000000Y-75100000D01*
%TO.C,C4*%
X70615835Y-79860000D02*
X70384165Y-79860000D01*
X70615835Y-79140000D02*
X70384165Y-79140000D01*
%TO.C,C12*%
X106615835Y-79860000D02*
X106384165Y-79860000D01*
X106615835Y-79140000D02*
X106384165Y-79140000D01*
%TO.C,C6*%
X79615835Y-79860000D02*
X79384165Y-79860000D01*
X79615835Y-79140000D02*
X79384165Y-79140000D01*
%TO.C,C7*%
X84115835Y-79860000D02*
X83884165Y-79860000D01*
X84115835Y-79140000D02*
X83884165Y-79140000D01*
%TO.C,D5*%
X81200000Y-75100000D02*
X80500000Y-75100000D01*
%TO.C,C11*%
X102115835Y-79860000D02*
X101884165Y-79860000D01*
X102115835Y-79140000D02*
X101884165Y-79140000D01*
%TO.C,C16*%
X124615835Y-79860000D02*
X124384165Y-79860000D01*
X124615835Y-79140000D02*
X124384165Y-79140000D01*
%TO.C,C10*%
X97615835Y-79860000D02*
X97384165Y-79860000D01*
X97615835Y-79140000D02*
X97384165Y-79140000D01*
%TO.C,C2*%
X61615835Y-79360000D02*
X61384165Y-79360000D01*
X61615835Y-78640000D02*
X61384165Y-78640000D01*
%TD*%
M02*
